<?xml version="1.0" encoding="utf-8" standalone="no"?>
<!DOCTYPE svg PUBLIC "-//W3C//DTD SVG 1.1//EN"
  "http://www.w3.org/Graphics/SVG/1.1/DTD/svg11.dtd">
<!-- Created with matplotlib (http://matplotlib.org/) -->
<svg height="216pt" version="1.1" viewBox="0 0 576 216" width="576pt" xmlns="http://www.w3.org/2000/svg" xmlns:xlink="http://www.w3.org/1999/xlink">
 <defs>
  <style type="text/css">
*{stroke-linecap:butt;stroke-linejoin:round;}
  </style>
 </defs>
 <g id="figure_1">
  <g id="patch_1">
   <path d="M 0 216 
L 576 216 
L 576 0 
L 0 0 
z
" style="fill:#ffffff;"/>
  </g>
  <g id="axes_1">
   <g id="patch_2">
    <path d="M 33.742222 182.54 
L 186.863704 182.54 
L 186.863704 18.96 
L 33.742222 18.96 
z
" style="fill:#ffffff;"/>
   </g>
   <g id="PathCollection_1"/>
   <g id="matplotlib.axis_1">
    <g id="xtick_1">
     <g id="line2d_1">
      <defs>
       <path d="M 0 0 
L 0 6 
" id="mda684ef81e" style="stroke:#000000;stroke-width:1.25;"/>
      </defs>
      <g>
       <use style="stroke:#000000;stroke-width:1.25;" x="110.302963" xlink:href="#mda684ef81e" y="182.54"/>
      </g>
     </g>
    </g>
   </g>
   <g id="matplotlib.axis_2">
    <g id="ytick_1">
     <g id="line2d_2">
      <defs>
       <path d="M 0 0 
L -6 0 
" id="m2ed192bd5d" style="stroke:#000000;stroke-width:1.25;"/>
      </defs>
      <g>
       <use style="stroke:#000000;stroke-width:1.25;" x="33.742222" xlink:href="#m2ed192bd5d" y="173.727499"/>
      </g>
     </g>
     <g id="text_1">
      <!-- −0.015 -->
      <defs>
       <path d="M 6.84375 38.15625 
L 51.15625 38.15625 
L 51.15625 29 
L 6.84375 29 
z
" id="Lato-Bold-2212"/>
       <path d="M 55.5 36.15625 
Q 55.5 26.703125 53.46875 19.71875 
Q 51.453125 12.75 47.875 8.203125 
Q 44.296875 3.65625 39.421875 1.421875 
Q 34.546875 -0.796875 28.90625 -0.796875 
Q 23.25 -0.796875 18.421875 1.421875 
Q 13.59375 3.65625 10.046875 8.203125 
Q 6.5 12.75 4.5 19.71875 
Q 2.5 26.703125 2.5 36.15625 
Q 2.5 45.65625 4.5 52.59375 
Q 6.5 59.546875 10.046875 64.09375 
Q 13.59375 68.65625 18.421875 70.875 
Q 23.25 73.09375 28.90625 73.09375 
Q 34.546875 73.09375 39.421875 70.875 
Q 44.296875 68.65625 47.875 64.09375 
Q 51.453125 59.546875 53.46875 52.59375 
Q 55.5 45.65625 55.5 36.15625 
z
M 42.75 36.15625 
Q 42.75 44 41.59375 49.140625 
Q 40.453125 54.296875 38.515625 57.34375 
Q 36.59375 60.40625 34.09375 61.625 
Q 31.59375 62.84375 28.90625 62.84375 
Q 26.25 62.84375 23.765625 61.625 
Q 21.296875 60.40625 19.390625 57.34375 
Q 17.5 54.296875 16.375 49.140625 
Q 15.25 44 15.25 36.15625 
Q 15.25 28.296875 16.375 23.140625 
Q 17.5 18 19.390625 14.953125 
Q 21.296875 11.90625 23.765625 10.671875 
Q 26.25 9.453125 28.90625 9.453125 
Q 31.59375 9.453125 34.09375 10.671875 
Q 36.59375 11.90625 38.515625 14.953125 
Q 40.453125 18 41.59375 23.140625 
Q 42.75 28.296875 42.75 36.15625 
z
" id="Lato-Bold-30"/>
       <path d="M 4.296875 6.796875 
Q 4.296875 8.34375 4.875 9.75 
Q 5.453125 11.15625 6.453125 12.15625 
Q 7.453125 13.15625 8.84375 13.75 
Q 10.25 14.34375 11.84375 14.34375 
Q 13.453125 14.34375 14.828125 13.75 
Q 16.203125 13.15625 17.21875 12.15625 
Q 18.25 11.15625 18.84375 9.75 
Q 19.453125 8.34375 19.453125 6.796875 
Q 19.453125 5.203125 18.84375 3.828125 
Q 18.25 2.453125 17.21875 1.453125 
Q 16.203125 0.453125 14.828125 -0.125 
Q 13.453125 -0.703125 11.84375 -0.703125 
Q 10.25 -0.703125 8.84375 -0.125 
Q 7.453125 0.453125 6.453125 1.453125 
Q 5.453125 2.453125 4.875 3.828125 
Q 4.296875 5.203125 4.296875 6.796875 
z
" id="Lato-Bold-2e"/>
       <path d="M 11.75 9.25 
L 26.40625 9.25 
L 26.40625 51.40625 
Q 26.40625 53.84375 26.546875 56.546875 
L 16.15625 47.84375 
Q 15.25 47.15625 14.375 46.96875 
Q 13.5 46.796875 12.71875 46.9375 
Q 11.953125 47.09375 11.34375 47.46875 
Q 10.75 47.84375 10.453125 48.296875 
L 6.546875 53.65625 
L 28.59375 72.40625 
L 38.75 72.40625 
L 38.75 9.25 
L 51.75 9.25 
L 51.75 0 
L 11.75 0 
z
" id="Lato-Bold-31"/>
       <path d="M 49.953125 67.046875 
Q 49.953125 64.40625 48.296875 62.75 
Q 46.65625 61.09375 42.703125 61.09375 
L 22.84375 61.09375 
L 20.25 46 
Q 25.15625 47 29.15625 47 
Q 34.84375 47 39.1875 45.296875 
Q 43.546875 43.59375 46.5 40.59375 
Q 49.453125 37.59375 50.953125 33.5625 
Q 52.453125 29.546875 52.453125 24.90625 
Q 52.453125 19.15625 50.421875 14.40625 
Q 48.40625 9.65625 44.796875 6.28125 
Q 41.203125 2.90625 36.265625 1.046875 
Q 31.34375 -0.796875 25.546875 -0.796875 
Q 22.15625 -0.796875 19.09375 -0.09375 
Q 16.046875 0.59375 13.375 1.765625 
Q 10.703125 2.953125 8.421875 4.46875 
Q 6.15625 6 4.34375 7.703125 
L 8.15625 12.953125 
Q 9.34375 14.65625 11.296875 14.65625 
Q 12.546875 14.65625 13.84375 13.84375 
Q 15.15625 13.046875 16.828125 12.09375 
Q 18.5 11.15625 20.765625 10.34375 
Q 23.046875 9.546875 26.25 9.546875 
Q 29.65625 9.546875 32.25 10.640625 
Q 34.84375 11.75 36.5625 13.71875 
Q 38.296875 15.703125 39.171875 18.421875 
Q 40.046875 21.15625 40.046875 24.34375 
Q 40.046875 30.25 36.625 33.578125 
Q 33.203125 36.90625 26.5 36.90625 
Q 21.34375 36.90625 15.953125 35 
L 8.25 37.203125 
L 14.25 72.296875 
L 49.953125 72.296875 
z
" id="Lato-Bold-35"/>
      </defs>
      <g transform="translate(-10.270278 177.813827)scale(0.11 -0.11)">
       <use xlink:href="#Lato-Bold-2212"/>
       <use x="58" xlink:href="#Lato-Bold-30"/>
       <use x="116" xlink:href="#Lato-Bold-2e"/>
       <use x="139.75" xlink:href="#Lato-Bold-30"/>
       <use x="197.75" xlink:href="#Lato-Bold-31"/>
       <use x="255.75" xlink:href="#Lato-Bold-35"/>
      </g>
     </g>
    </g>
    <g id="ytick_2">
     <g id="line2d_3">
      <g>
       <use style="stroke:#000000;stroke-width:1.25;" x="33.742222" xlink:href="#m2ed192bd5d" y="149.401666"/>
      </g>
     </g>
     <g id="text_2">
      <!-- −0.010 -->
      <g transform="translate(-10.270278 153.487994)scale(0.11 -0.11)">
       <use xlink:href="#Lato-Bold-2212"/>
       <use x="58" xlink:href="#Lato-Bold-30"/>
       <use x="116" xlink:href="#Lato-Bold-2e"/>
       <use x="139.75" xlink:href="#Lato-Bold-30"/>
       <use x="197.75" xlink:href="#Lato-Bold-31"/>
       <use x="255.75" xlink:href="#Lato-Bold-30"/>
      </g>
     </g>
    </g>
    <g id="ytick_3">
     <g id="line2d_4">
      <g>
       <use style="stroke:#000000;stroke-width:1.25;" x="33.742222" xlink:href="#m2ed192bd5d" y="125.075833"/>
      </g>
     </g>
     <g id="text_3">
      <!-- −0.005 -->
      <g transform="translate(-10.270278 129.162161)scale(0.11 -0.11)">
       <use xlink:href="#Lato-Bold-2212"/>
       <use x="58" xlink:href="#Lato-Bold-30"/>
       <use x="116" xlink:href="#Lato-Bold-2e"/>
       <use x="139.75" xlink:href="#Lato-Bold-30"/>
       <use x="197.75" xlink:href="#Lato-Bold-30"/>
       <use x="255.75" xlink:href="#Lato-Bold-35"/>
      </g>
     </g>
    </g>
    <g id="ytick_4">
     <g id="line2d_5">
      <g>
       <use style="stroke:#000000;stroke-width:1.25;" x="33.742222" xlink:href="#m2ed192bd5d" y="100.75"/>
      </g>
     </g>
     <g id="text_4">
      <!-- 0.000 -->
      <g transform="translate(-3.890278 104.836328)scale(0.11 -0.11)">
       <use xlink:href="#Lato-Bold-30"/>
       <use x="58" xlink:href="#Lato-Bold-2e"/>
       <use x="81.75" xlink:href="#Lato-Bold-30"/>
       <use x="139.75" xlink:href="#Lato-Bold-30"/>
       <use x="197.75" xlink:href="#Lato-Bold-30"/>
      </g>
     </g>
    </g>
    <g id="ytick_5">
     <g id="line2d_6">
      <g>
       <use style="stroke:#000000;stroke-width:1.25;" x="33.742222" xlink:href="#m2ed192bd5d" y="76.424167"/>
      </g>
     </g>
     <g id="text_5">
      <!-- 0.005 -->
      <g transform="translate(-3.890278 80.510495)scale(0.11 -0.11)">
       <use xlink:href="#Lato-Bold-30"/>
       <use x="58" xlink:href="#Lato-Bold-2e"/>
       <use x="81.75" xlink:href="#Lato-Bold-30"/>
       <use x="139.75" xlink:href="#Lato-Bold-30"/>
       <use x="197.75" xlink:href="#Lato-Bold-35"/>
      </g>
     </g>
    </g>
    <g id="ytick_6">
     <g id="line2d_7">
      <g>
       <use style="stroke:#000000;stroke-width:1.25;" x="33.742222" xlink:href="#m2ed192bd5d" y="52.098334"/>
      </g>
     </g>
     <g id="text_6">
      <!-- 0.010 -->
      <g transform="translate(-3.890278 56.184662)scale(0.11 -0.11)">
       <use xlink:href="#Lato-Bold-30"/>
       <use x="58" xlink:href="#Lato-Bold-2e"/>
       <use x="81.75" xlink:href="#Lato-Bold-30"/>
       <use x="139.75" xlink:href="#Lato-Bold-31"/>
       <use x="197.75" xlink:href="#Lato-Bold-30"/>
      </g>
     </g>
    </g>
    <g id="ytick_7">
     <g id="line2d_8">
      <g>
       <use style="stroke:#000000;stroke-width:1.25;" x="33.742222" xlink:href="#m2ed192bd5d" y="27.772501"/>
      </g>
     </g>
     <g id="text_7">
      <!-- 0.015 -->
      <g transform="translate(-3.890278 31.858829)scale(0.11 -0.11)">
       <use xlink:href="#Lato-Bold-30"/>
       <use x="58" xlink:href="#Lato-Bold-2e"/>
       <use x="81.75" xlink:href="#Lato-Bold-30"/>
       <use x="139.75" xlink:href="#Lato-Bold-31"/>
       <use x="197.75" xlink:href="#Lato-Bold-35"/>
      </g>
     </g>
    </g>
    <g id="text_8">
     <!-- Annual flow change -->
     <defs>
      <path d="M 67.40625 0 
L 59.90625 0 
Q 58.59375 0 57.796875 0.640625 
Q 57 1.296875 56.59375 2.296875 
L 49.90625 19.59375 
L 17.75 19.59375 
L 11.046875 2.296875 
Q 10.75 1.40625 9.890625 0.703125 
Q 9.046875 0 7.796875 0 
L 0.296875 0 
L 28.953125 71.65625 
L 38.75 71.65625 
z
M 20.453125 26.59375 
L 47.203125 26.59375 
L 35.953125 55.75 
Q 35.40625 57.046875 34.875 58.75 
Q 34.34375 60.453125 33.796875 62.40625 
Q 33.296875 60.453125 32.765625 58.71875 
Q 32.25 57 31.703125 55.703125 
z
" id="Lato-Regular-41"/>
      <path d="M 7.046875 0 
L 7.046875 50.65625 
L 12.40625 50.65625 
Q 14.296875 50.65625 14.75 48.796875 
L 15.453125 43.296875 
Q 18.75 46.953125 22.84375 49.203125 
Q 26.953125 51.453125 32.296875 51.453125 
Q 36.453125 51.453125 39.625 50.078125 
Q 42.796875 48.703125 44.921875 46.171875 
Q 47.046875 43.65625 48.140625 40.09375 
Q 49.25 36.546875 49.25 32.25 
L 49.25 0 
L 40.296875 0 
L 40.296875 32.25 
Q 40.296875 38 37.671875 41.171875 
Q 35.046875 44.34375 29.703125 44.34375 
Q 25.703125 44.34375 22.265625 42.4375 
Q 18.84375 40.546875 16 37.296875 
L 16 0 
z
" id="Lato-Regular-6e"/>
      <path d="M 15.453125 50.65625 
L 15.453125 18.34375 
Q 15.453125 12.59375 18.078125 9.4375 
Q 20.703125 6.296875 26.09375 6.296875 
Q 30 6.296875 33.453125 8.140625 
Q 36.90625 10 39.796875 13.296875 
L 39.796875 50.65625 
L 48.703125 50.65625 
L 48.703125 0 
L 43.40625 0 
Q 41.5 0 41 1.84375 
L 40.296875 7.296875 
Q 37 3.65625 32.890625 1.421875 
Q 28.796875 -0.796875 23.5 -0.796875 
Q 19.34375 -0.796875 16.171875 0.578125 
Q 13 1.953125 10.84375 4.453125 
Q 8.703125 6.953125 7.625 10.5 
Q 6.546875 14.046875 6.546875 18.34375 
L 6.546875 50.65625 
z
" id="Lato-Regular-75"/>
      <path d="M 39.25 0 
Q 37.953125 0 37.25 0.421875 
Q 36.546875 0.84375 36.15625 2.09375 
L 35.15625 6.84375 
Q 33.15625 5.046875 31.21875 3.625 
Q 29.296875 2.203125 27.21875 1.21875 
Q 25.15625 0.25 22.78125 -0.265625 
Q 20.40625 -0.796875 17.5 -0.796875 
Q 14.546875 -0.796875 11.9375 0.015625 
Q 9.34375 0.84375 7.421875 2.5 
Q 5.5 4.15625 4.375 6.671875 
Q 3.25 9.203125 3.25 12.65625 
Q 3.25 15.65625 4.890625 18.421875 
Q 6.546875 21.203125 10.25 23.34375 
Q 13.953125 25.5 19.890625 26.875 
Q 25.84375 28.25 34.5 28.453125 
L 34.5 32.40625 
Q 34.5 38.296875 31.953125 41.3125 
Q 29.40625 44.34375 24.5 44.34375 
Q 21.203125 44.34375 18.96875 43.515625 
Q 16.75 42.703125 15.125 41.671875 
Q 13.5 40.65625 12.328125 39.828125 
Q 11.15625 39 10 39 
Q 9.09375 39 8.4375 39.46875 
Q 7.796875 39.953125 7.34375 40.65625 
L 5.75 43.5 
Q 9.953125 47.546875 14.796875 49.546875 
Q 19.65625 51.546875 25.546875 51.546875 
Q 29.796875 51.546875 33.09375 50.140625 
Q 36.40625 48.75 38.65625 46.25 
Q 40.90625 43.75 42.046875 40.203125 
Q 43.203125 36.65625 43.203125 32.40625 
L 43.203125 0 
z
M 20.15625 5.453125 
Q 22.5 5.453125 24.453125 5.921875 
Q 26.40625 6.40625 28.125 7.28125 
Q 29.84375 8.15625 31.421875 9.421875 
Q 33 10.703125 34.5 12.296875 
L 34.5 22.796875 
Q 28.34375 22.59375 24.015625 21.8125 
Q 19.703125 21.046875 16.96875 19.796875 
Q 14.25 18.546875 13.015625 16.84375 
Q 11.796875 15.15625 11.796875 13.046875 
Q 11.796875 11.046875 12.4375 9.59375 
Q 13.09375 8.15625 14.21875 7.21875 
Q 15.34375 6.296875 16.875 5.875 
Q 18.40625 5.453125 20.15625 5.453125 
z
" id="Lato-Regular-61"/>
      <path d="M 16.25 73.65625 
L 16.25 0 
L 7.34375 0 
L 7.34375 73.65625 
z
" id="Lato-Regular-6c"/>
      <path id="Lato-Regular-20"/>
      <path d="M 10.34375 0 
L 10.34375 43.046875 
L 4.75 43.703125 
Q 3.703125 43.953125 3.015625 44.46875 
Q 2.34375 45 2.34375 46 
L 2.34375 49.65625 
L 10.34375 49.65625 
L 10.34375 54.546875 
Q 10.34375 58.90625 11.5625 62.28125 
Q 12.796875 65.65625 15.0625 67.96875 
Q 17.34375 70.296875 20.546875 71.5 
Q 23.75 72.703125 27.75 72.703125 
Q 31.15625 72.703125 34 71.703125 
L 33.796875 67.25 
Q 33.703125 66.046875 32.46875 65.9375 
Q 31.25 65.84375 29.203125 65.84375 
Q 26.90625 65.84375 25.03125 65.25 
Q 23.15625 64.65625 21.796875 63.296875 
Q 20.453125 61.953125 19.71875 59.75 
Q 19 57.546875 19 54.296875 
L 19 49.65625 
L 33.59375 49.65625 
L 33.59375 43.203125 
L 19.296875 43.203125 
L 19.296875 0 
z
" id="Lato-Regular-66"/>
      <path d="M 28.40625 51.453125 
Q 33.953125 51.453125 38.390625 49.59375 
Q 42.84375 47.75 46 44.34375 
Q 49.15625 40.953125 50.828125 36.125 
Q 52.5 31.296875 52.5 25.34375 
Q 52.5 19.34375 50.828125 14.546875 
Q 49.15625 9.75 46 6.34375 
Q 42.84375 2.953125 38.390625 1.125 
Q 33.953125 -0.703125 28.40625 -0.703125 
Q 22.796875 -0.703125 18.3125 1.125 
Q 13.84375 2.953125 10.6875 6.34375 
Q 7.546875 9.75 5.875 14.546875 
Q 4.203125 19.34375 4.203125 25.34375 
Q 4.203125 31.296875 5.875 36.125 
Q 7.546875 40.953125 10.6875 44.34375 
Q 13.84375 47.75 18.3125 49.59375 
Q 22.796875 51.453125 28.40625 51.453125 
z
M 28.40625 6.25 
Q 35.90625 6.25 39.59375 11.265625 
Q 43.296875 16.296875 43.296875 25.296875 
Q 43.296875 34.34375 39.59375 39.390625 
Q 35.90625 44.453125 28.40625 44.453125 
Q 24.59375 44.453125 21.765625 43.140625 
Q 18.953125 41.84375 17.078125 39.390625 
Q 15.203125 36.953125 14.265625 33.375 
Q 13.34375 29.796875 13.34375 25.296875 
Q 13.34375 16.296875 17.0625 11.265625 
Q 20.796875 6.25 28.40625 6.25 
z
" id="Lato-Regular-6f"/>
      <path d="M 1.65625 50.65625 
L 8.65625 50.65625 
Q 9.703125 50.65625 10.421875 50.09375 
Q 11.15625 49.546875 11.40625 48.796875 
L 21.09375 16.203125 
Q 21.5 14.453125 21.84375 12.765625 
Q 22.203125 11.09375 22.453125 9.453125 
Q 22.84375 11.09375 23.34375 12.765625 
Q 23.84375 14.453125 24.40625 16.203125 
L 35.09375 49 
Q 35.34375 49.75 35.96875 50.25 
Q 36.59375 50.75 37.5 50.75 
L 41.40625 50.75 
Q 42.40625 50.75 43.046875 50.25 
Q 43.703125 49.75 43.953125 49 
L 54.40625 16.203125 
Q 54.90625 14.453125 55.34375 12.75 
Q 55.796875 11.046875 56.203125 9.40625 
Q 56.5 11.046875 56.875 12.71875 
Q 57.25 14.40625 57.703125 16.203125 
L 67.59375 48.796875 
Q 67.84375 49.59375 68.546875 50.125 
Q 69.25 50.65625 70.203125 50.65625 
L 76.90625 50.65625 
L 60.5 0 
L 53.453125 0 
Q 52.15625 0 51.65625 1.703125 
L 40.453125 36.046875 
Q 40.046875 37.203125 39.796875 38.375 
Q 39.546875 39.546875 39.296875 40.703125 
Q 39.046875 39.546875 38.765625 38.34375 
Q 38.5 37.15625 38.15625 36 
L 26.75 1.703125 
Q 26.296875 0 24.75 0 
L 18.046875 0 
z
" id="Lato-Regular-77"/>
      <path d="M 42.296875 41.65625 
Q 41.90625 41.09375 41.5 40.796875 
Q 41.09375 40.5 40.40625 40.5 
Q 39.65625 40.5 38.75 41.125 
Q 37.84375 41.75 36.515625 42.5 
Q 35.203125 43.25 33.265625 43.875 
Q 31.34375 44.5 28.546875 44.5 
Q 24.796875 44.5 21.9375 43.171875 
Q 19.09375 41.84375 17.171875 39.34375 
Q 15.25 36.84375 14.265625 33.296875 
Q 13.296875 29.75 13.296875 25.34375 
Q 13.296875 20.75 14.34375 17.171875 
Q 15.40625 13.59375 17.328125 11.171875 
Q 19.25 8.75 21.96875 7.46875 
Q 24.703125 6.203125 28.09375 6.203125 
Q 31.34375 6.203125 33.4375 6.96875 
Q 35.546875 7.75 36.921875 8.703125 
Q 38.296875 9.65625 39.21875 10.421875 
Q 40.15625 11.203125 41.046875 11.203125 
Q 42.15625 11.203125 42.75 10.34375 
L 45.25 7.09375 
Q 43.59375 5.046875 41.5 3.59375 
Q 39.40625 2.15625 36.96875 1.171875 
Q 34.546875 0.203125 31.890625 -0.25 
Q 29.25 -0.703125 26.5 -0.703125 
Q 21.75 -0.703125 17.671875 1.046875 
Q 13.59375 2.796875 10.59375 6.125 
Q 7.59375 9.453125 5.890625 14.296875 
Q 4.203125 19.15625 4.203125 25.34375 
Q 4.203125 31 5.765625 35.796875 
Q 7.34375 40.59375 10.375 44.0625 
Q 13.40625 47.546875 17.828125 49.5 
Q 22.25 51.453125 28 51.453125 
Q 33.34375 51.453125 37.421875 49.71875 
Q 41.5 48 44.65625 44.84375 
z
" id="Lato-Regular-63"/>
      <path d="M 7.046875 0 
L 7.046875 73.65625 
L 16 73.65625 
L 16 43.84375 
Q 19.25 47.296875 23.203125 49.375 
Q 27.15625 51.453125 32.296875 51.453125 
Q 36.453125 51.453125 39.625 50.078125 
Q 42.796875 48.703125 44.921875 46.171875 
Q 47.046875 43.65625 48.140625 40.09375 
Q 49.25 36.546875 49.25 32.25 
L 49.25 0 
L 40.296875 0 
L 40.296875 32.25 
Q 40.296875 38 37.671875 41.171875 
Q 35.046875 44.34375 29.703125 44.34375 
Q 25.703125 44.34375 22.265625 42.4375 
Q 18.84375 40.546875 16 37.296875 
L 16 0 
z
" id="Lato-Regular-68"/>
      <path d="M 24.703125 51.5 
Q 28 51.5 30.84375 50.765625 
Q 33.703125 50.046875 36.046875 48.65625 
L 49.796875 48.65625 
L 49.796875 45.34375 
Q 49.796875 43.703125 47.703125 43.25 
L 41.953125 42.453125 
Q 43.65625 39.203125 43.65625 35.203125 
Q 43.65625 31.5 42.21875 28.46875 
Q 40.796875 25.453125 38.296875 23.296875 
Q 35.796875 21.15625 32.296875 20 
Q 28.796875 18.84375 24.703125 18.84375 
Q 21.09375 18.84375 17.953125 19.703125 
Q 16.34375 18.703125 15.515625 17.546875 
Q 14.703125 16.40625 14.703125 15.296875 
Q 14.703125 13.5 16.171875 12.578125 
Q 17.65625 11.65625 20.046875 11.25 
Q 22.453125 10.84375 25.515625 10.75 
Q 28.59375 10.65625 31.8125 10.421875 
Q 35.046875 10.203125 38.125 9.640625 
Q 41.203125 9.09375 43.59375 7.84375 
Q 46 6.59375 47.46875 4.390625 
Q 48.953125 2.203125 48.953125 -1.296875 
Q 48.953125 -4.546875 47.328125 -7.59375 
Q 45.703125 -10.65625 42.640625 -13.03125 
Q 39.59375 -15.40625 35.171875 -16.828125 
Q 30.75 -18.25 25.203125 -18.25 
Q 19.65625 -18.25 15.5 -17.140625 
Q 11.34375 -16.046875 8.59375 -14.1875 
Q 5.84375 -12.34375 4.46875 -9.921875 
Q 3.09375 -7.5 3.09375 -4.84375 
Q 3.09375 -1.09375 5.4375 1.5 
Q 7.796875 4.09375 11.84375 5.65625 
Q 9.59375 6.65625 8.296875 8.328125 
Q 7 10 7 12.84375 
Q 7 13.953125 7.390625 15.125 
Q 7.796875 16.296875 8.625 17.4375 
Q 9.453125 18.59375 10.640625 19.640625 
Q 11.84375 20.703125 13.453125 21.5 
Q 9.703125 23.59375 7.59375 27.09375 
Q 5.5 30.59375 5.5 35.203125 
Q 5.5 38.90625 6.921875 41.921875 
Q 8.34375 44.953125 10.890625 47.078125 
Q 13.453125 49.203125 16.96875 50.34375 
Q 20.5 51.5 24.703125 51.5 
z
M 40.75 -2.75 
Q 40.75 -0.90625 39.703125 0.25 
Q 38.65625 1.40625 36.875 2.046875 
Q 35.09375 2.703125 32.75 2.96875 
Q 30.40625 3.25 27.78125 3.390625 
Q 25.15625 3.546875 22.453125 3.6875 
Q 19.75 3.84375 17.25 4.203125 
Q 14.453125 2.90625 12.671875 0.953125 
Q 10.90625 -1 10.90625 -3.703125 
Q 10.90625 -5.40625 11.78125 -6.875 
Q 12.65625 -8.34375 14.453125 -9.421875 
Q 16.25 -10.5 18.96875 -11.125 
Q 21.703125 -11.75 25.40625 -11.75 
Q 29 -11.75 31.84375 -11.09375 
Q 34.703125 -10.453125 36.671875 -9.25 
Q 38.65625 -8.046875 39.703125 -6.390625 
Q 40.75 -4.75 40.75 -2.75 
z
M 24.703125 24.75 
Q 27.40625 24.75 29.453125 25.5 
Q 31.5 26.25 32.890625 27.59375 
Q 34.296875 28.953125 35 30.828125 
Q 35.703125 32.703125 35.703125 34.953125 
Q 35.703125 39.59375 32.875 42.34375 
Q 30.046875 45.09375 24.703125 45.09375 
Q 19.296875 45.09375 16.46875 42.34375 
Q 13.65625 39.59375 13.65625 34.953125 
Q 13.65625 32.703125 14.375 30.828125 
Q 15.09375 28.953125 16.5 27.59375 
Q 17.90625 26.25 19.953125 25.5 
Q 22 24.75 24.703125 24.75 
z
" id="Lato-Regular-67"/>
      <path d="M 27.796875 51.453125 
Q 32.34375 51.453125 36.21875 49.921875 
Q 40.09375 48.40625 42.921875 45.53125 
Q 45.75 42.65625 47.34375 38.421875 
Q 48.953125 34.203125 48.953125 28.796875 
Q 48.953125 26.703125 48.5 26 
Q 48.046875 25.296875 46.796875 25.296875 
L 12.953125 25.296875 
Q 13.046875 20.5 14.25 16.953125 
Q 15.453125 13.40625 17.546875 11.03125 
Q 19.65625 8.65625 22.546875 7.46875 
Q 25.453125 6.296875 29.046875 6.296875 
Q 32.40625 6.296875 34.828125 7.0625 
Q 37.25 7.84375 39 8.75 
Q 40.75 9.65625 41.921875 10.421875 
Q 43.09375 11.203125 43.953125 11.203125 
Q 45.046875 11.203125 45.65625 10.34375 
L 48.15625 7.09375 
Q 46.5 5.09375 44.203125 3.625 
Q 41.90625 2.15625 39.28125 1.203125 
Q 36.65625 0.25 33.84375 -0.21875 
Q 31.046875 -0.703125 28.296875 -0.703125 
Q 23.046875 -0.703125 18.625 1.0625 
Q 14.203125 2.84375 10.96875 6.265625 
Q 7.75 9.703125 5.953125 14.75 
Q 4.15625 19.796875 4.15625 26.34375 
Q 4.15625 31.65625 5.78125 36.25 
Q 7.40625 40.84375 10.453125 44.21875 
Q 13.5 47.59375 17.890625 49.515625 
Q 22.296875 51.453125 27.796875 51.453125 
z
M 28 44.90625 
Q 21.546875 44.90625 17.84375 41.171875 
Q 14.15625 37.453125 13.25 30.84375 
L 40.953125 30.84375 
Q 40.953125 33.953125 40.078125 36.515625 
Q 39.203125 39.09375 37.515625 40.96875 
Q 35.84375 42.84375 33.4375 43.875 
Q 31.046875 44.90625 28 44.90625 
z
" id="Lato-Regular-65"/>
     </defs>
     <g transform="translate(-16.460278 152.784062)rotate(-90)scale(0.12 -0.12)">
      <use xlink:href="#Lato-Regular-41"/>
      <use x="67.700012" xlink:href="#Lato-Regular-6e"/>
      <use x="123.500015" xlink:href="#Lato-Regular-6e"/>
      <use x="179.300018" xlink:href="#Lato-Regular-75"/>
      <use x="235.050018" xlink:href="#Lato-Regular-61"/>
      <use x="284.750031" xlink:href="#Lato-Regular-6c"/>
      <use x="308.350037" xlink:href="#Lato-Regular-20"/>
      <use x="333.950043" xlink:href="#Lato-Regular-66"/>
      <use x="369.000046" xlink:href="#Lato-Regular-6c"/>
      <use x="392.600052" xlink:href="#Lato-Regular-6f"/>
      <use x="449.300064" xlink:href="#Lato-Regular-77"/>
      <use x="527.818832" xlink:href="#Lato-Regular-20"/>
      <use x="553.418839" xlink:href="#Lato-Regular-63"/>
      <use x="601.168839" xlink:href="#Lato-Regular-68"/>
      <use x="656.968842" xlink:href="#Lato-Regular-61"/>
      <use x="706.668854" xlink:href="#Lato-Regular-6e"/>
      <use x="762.468857" xlink:href="#Lato-Regular-67"/>
      <use x="814.468857" xlink:href="#Lato-Regular-65"/>
     </g>
    </g>
    <g id="text_9">
     <!-- +1.03e2 -->
     <defs>
      <path d="M 34 58.65625 
L 34 38.15625 
L 53.40625 38.15625 
L 53.40625 29 
L 34 29 
L 34 8.40625 
L 23.953125 8.40625 
L 23.953125 29 
L 4.65625 29 
L 4.65625 38.15625 
L 23.953125 38.15625 
L 23.953125 58.65625 
z
" id="Lato-Bold-2b"/>
      <path d="M 30.046875 73.09375 
Q 35.046875 73.09375 39.0625 71.671875 
Q 43.09375 70.25 45.9375 67.71875 
Q 48.796875 65.203125 50.3125 61.796875 
Q 51.84375 58.40625 51.84375 54.453125 
Q 51.84375 51 51.0625 48.375 
Q 50.296875 45.75 48.8125 43.796875 
Q 47.34375 41.84375 45.21875 40.5 
Q 43.09375 39.15625 40.40625 38.25 
Q 46.90625 36.203125 50.09375 32 
Q 53.296875 27.796875 53.296875 21.453125 
Q 53.296875 16.046875 51.296875 11.890625 
Q 49.296875 7.75 45.890625 4.921875 
Q 42.5 2.09375 38.015625 0.640625 
Q 33.546875 -0.796875 28.546875 -0.796875 
Q 23.09375 -0.796875 19.046875 0.453125 
Q 15 1.703125 12 4.140625 
Q 9 6.59375 6.890625 10.140625 
Q 4.796875 13.703125 3.296875 18.34375 
L 8.75 20.59375 
Q 10.90625 21.5 12.78125 21.078125 
Q 14.65625 20.65625 15.5 19.046875 
Q 16.40625 17.296875 17.46875 15.59375 
Q 18.546875 13.90625 20.046875 12.578125 
Q 21.546875 11.25 23.5625 10.421875 
Q 25.59375 9.59375 28.40625 9.59375 
Q 31.546875 9.59375 33.890625 10.625 
Q 36.25 11.65625 37.828125 13.296875 
Q 39.40625 14.953125 40.171875 16.96875 
Q 40.953125 19 40.953125 21.046875 
Q 40.953125 23.65625 40.390625 25.78125 
Q 39.84375 27.90625 38.09375 29.40625 
Q 36.34375 30.90625 33.0625 31.75 
Q 29.796875 32.59375 24.296875 32.59375 
L 24.296875 41.40625 
Q 28.84375 41.453125 31.84375 42.25 
Q 34.84375 43.046875 36.625 44.46875 
Q 38.40625 45.90625 39.09375 47.90625 
Q 39.796875 49.90625 39.796875 52.296875 
Q 39.796875 57.40625 36.9375 60.046875 
Q 34.09375 62.703125 29.34375 62.703125 
Q 27.15625 62.703125 25.296875 62.078125 
Q 23.453125 61.453125 21.96875 60.328125 
Q 20.5 59.203125 19.5 57.703125 
Q 18.5 56.203125 18 54.40625 
Q 17.15625 52.09375 15.78125 51.34375 
Q 14.40625 50.59375 11.90625 51 
L 5.40625 52.15625 
Q 6.15625 57.34375 8.296875 61.265625 
Q 10.453125 65.203125 13.671875 67.828125 
Q 16.90625 70.453125 21.078125 71.765625 
Q 25.25 73.09375 30.046875 73.09375 
z
" id="Lato-Bold-33"/>
      <path d="M 27.953125 52.09375 
Q 32.796875 52.09375 36.890625 50.546875 
Q 41 49 43.953125 46.015625 
Q 46.90625 43.046875 48.578125 38.71875 
Q 50.25 34.40625 50.25 28.84375 
Q 50.25 26.046875 49.640625 25.0625 
Q 49.046875 24.09375 47.34375 24.09375 
L 15.59375 24.09375 
Q 15.90625 20.15625 17 17.28125 
Q 18.09375 14.40625 19.890625 12.53125 
Q 21.703125 10.65625 24.171875 9.71875 
Q 26.65625 8.796875 29.65625 8.796875 
Q 32.65625 8.796875 34.828125 9.5 
Q 37 10.203125 38.625 11.046875 
Q 40.25 11.90625 41.46875 12.59375 
Q 42.703125 13.296875 43.84375 13.296875 
Q 45.40625 13.296875 46.15625 12.15625 
L 49.703125 7.65625 
Q 47.65625 5.25 45.09375 3.625 
Q 42.546875 2 39.765625 1.015625 
Q 37 0.046875 34.125 -0.34375 
Q 31.25 -0.75 28.546875 -0.75 
Q 23.203125 -0.75 18.59375 1.015625 
Q 14 2.796875 10.59375 6.265625 
Q 7.203125 9.75 5.25 14.875 
Q 3.296875 20 3.296875 26.75 
Q 3.296875 32 5 36.625 
Q 6.703125 41.25 9.875 44.671875 
Q 13.046875 48.09375 17.625 50.09375 
Q 22.203125 52.09375 27.953125 52.09375 
z
M 28.203125 43.25 
Q 22.796875 43.25 19.75 40.203125 
Q 16.703125 37.15625 15.84375 31.546875 
L 39.15625 31.546875 
Q 39.15625 33.953125 38.46875 36.078125 
Q 37.796875 38.203125 36.4375 39.796875 
Q 35.09375 41.40625 33.015625 42.328125 
Q 30.953125 43.25 28.203125 43.25 
z
" id="Lato-Bold-65"/>
      <path d="M 29.703125 73.09375 
Q 34.703125 73.09375 38.84375 71.625 
Q 43 70.15625 45.953125 67.453125 
Q 48.90625 64.75 50.546875 60.953125 
Q 52.203125 57.15625 52.203125 52.5 
Q 52.203125 48.5 51.015625 45.09375 
Q 49.84375 41.703125 47.875 38.59375 
Q 45.90625 35.5 43.25 32.59375 
Q 40.59375 29.703125 37.703125 26.703125 
L 21.34375 10.046875 
Q 23.75 10.75 26.078125 11.125 
Q 28.40625 11.5 30.5 11.5 
L 49.046875 11.5 
Q 51.046875 11.5 52.21875 10.375 
Q 53.40625 9.25 53.40625 7.40625 
L 53.40625 0 
L 3.796875 0 
L 3.796875 4.09375 
Q 3.796875 5.34375 4.3125 6.71875 
Q 4.84375 8.09375 6 9.203125 
L 27.953125 31.203125 
Q 30.703125 34 32.875 36.546875 
Q 35.046875 39.09375 36.5 41.59375 
Q 37.953125 44.09375 38.71875 46.671875 
Q 39.5 49.25 39.5 52.09375 
Q 39.5 54.703125 38.75 56.671875 
Q 38 58.65625 36.625 60 
Q 35.25 61.34375 33.328125 62.015625 
Q 31.40625 62.703125 29 62.703125 
Q 26.796875 62.703125 24.921875 62.078125 
Q 23.046875 61.453125 21.59375 60.328125 
Q 20.15625 59.203125 19.15625 57.703125 
Q 18.15625 56.203125 17.65625 54.40625 
Q 16.796875 52.09375 15.4375 51.34375 
Q 14.09375 50.59375 11.546875 51 
L 5.046875 52.15625 
Q 5.796875 57.34375 7.9375 61.265625 
Q 10.09375 65.203125 13.3125 67.828125 
Q 16.546875 70.453125 20.71875 71.765625 
Q 24.90625 73.09375 29.703125 73.09375 
z
" id="Lato-Bold-32"/>
     </defs>
     <g transform="translate(33.742222 15.96)scale(0.11 -0.11)">
      <use xlink:href="#Lato-Bold-2b"/>
      <use x="58" xlink:href="#Lato-Bold-31"/>
      <use x="116" xlink:href="#Lato-Bold-2e"/>
      <use x="139.75" xlink:href="#Lato-Bold-30"/>
      <use x="197.75" xlink:href="#Lato-Bold-33"/>
      <use x="255.75" xlink:href="#Lato-Bold-65"/>
      <use x="309.150009" xlink:href="#Lato-Bold-32"/>
     </g>
    </g>
   </g>
   <g id="patch_3">
    <path d="M 33.742222 182.54 
L 33.742222 18.96 
" style="fill:none;stroke:#000000;stroke-linecap:square;stroke-linejoin:miter;stroke-width:1.25;"/>
   </g>
   <g id="patch_4">
    <path d="M 33.742222 182.54 
L 186.863704 182.54 
" style="fill:none;stroke:#000000;stroke-linecap:square;stroke-linejoin:miter;stroke-width:1.25;"/>
   </g>
   <g id="PathCollection_2">
    <defs>
     <path d="M 0 2.5 
C 0.663008 2.5 1.29895 2.236584 1.767767 1.767767 
C 2.236584 1.29895 2.5 0.663008 2.5 0 
C 2.5 -0.663008 2.236584 -1.29895 1.767767 -1.767767 
C 1.29895 -2.236584 0.663008 -2.5 0 -2.5 
C -0.663008 -2.5 -1.29895 -2.236584 -1.767767 -1.767767 
C -2.236584 -1.29895 -2.5 -0.663008 -2.5 0 
C -2.5 0.663008 -2.236584 1.29895 -1.767767 1.767767 
C -1.29895 2.236584 -0.663008 2.5 0 2.5 
z
" id="m4419be2d68"/>
    </defs>
    <g clip-path="url(#p0a768193bb)">
     <use style="fill:#1f77b4;" x="110.302963" xlink:href="#m4419be2d68" y="100.75"/>
    </g>
   </g>
  </g>
  <g id="axes_2">
   <g id="patch_5">
    <path d="M 217.717037 182.54 
L 370.838519 182.54 
L 370.838519 18.96 
L 217.717037 18.96 
z
" style="fill:#ffffff;"/>
   </g>
   <g id="PathCollection_3"/>
   <g id="matplotlib.axis_3">
    <g id="xtick_2">
     <g id="line2d_9">
      <g>
       <use style="stroke:#000000;stroke-width:1.25;" x="294.277778" xlink:href="#mda684ef81e" y="182.54"/>
      </g>
     </g>
    </g>
   </g>
   <g id="matplotlib.axis_4">
    <g id="ytick_8">
     <g id="line2d_10">
      <g>
       <use style="stroke:#000000;stroke-width:1.25;" x="217.717037" xlink:href="#m2ed192bd5d" y="173.727499"/>
      </g>
     </g>
    </g>
    <g id="ytick_9">
     <g id="line2d_11">
      <g>
       <use style="stroke:#000000;stroke-width:1.25;" x="217.717037" xlink:href="#m2ed192bd5d" y="149.401666"/>
      </g>
     </g>
    </g>
    <g id="ytick_10">
     <g id="line2d_12">
      <g>
       <use style="stroke:#000000;stroke-width:1.25;" x="217.717037" xlink:href="#m2ed192bd5d" y="125.075833"/>
      </g>
     </g>
    </g>
    <g id="ytick_11">
     <g id="line2d_13">
      <g>
       <use style="stroke:#000000;stroke-width:1.25;" x="217.717037" xlink:href="#m2ed192bd5d" y="100.75"/>
      </g>
     </g>
    </g>
    <g id="ytick_12">
     <g id="line2d_14">
      <g>
       <use style="stroke:#000000;stroke-width:1.25;" x="217.717037" xlink:href="#m2ed192bd5d" y="76.424167"/>
      </g>
     </g>
    </g>
    <g id="ytick_13">
     <g id="line2d_15">
      <g>
       <use style="stroke:#000000;stroke-width:1.25;" x="217.717037" xlink:href="#m2ed192bd5d" y="52.098334"/>
      </g>
     </g>
    </g>
    <g id="ytick_14">
     <g id="line2d_16">
      <g>
       <use style="stroke:#000000;stroke-width:1.25;" x="217.717037" xlink:href="#m2ed192bd5d" y="27.772501"/>
      </g>
     </g>
    </g>
    <g id="text_10">
     <!-- Low flow change -->
     <defs>
      <path d="M 18.796875 8.15625 
L 49.796875 8.15625 
L 49.796875 0 
L 9.15625 0 
L 9.15625 71.65625 
L 18.796875 71.65625 
z
" id="Lato-Regular-4c"/>
     </defs>
     <g transform="translate(211.527037 145.474375)rotate(-90)scale(0.12 -0.12)">
      <use xlink:href="#Lato-Regular-4c"/>
      <use x="51.303131" xlink:href="#Lato-Regular-6f"/>
      <use x="108.003143" xlink:href="#Lato-Regular-77"/>
      <use x="186.521912" xlink:href="#Lato-Regular-20"/>
      <use x="212.121918" xlink:href="#Lato-Regular-66"/>
      <use x="247.171921" xlink:href="#Lato-Regular-6c"/>
      <use x="270.771927" xlink:href="#Lato-Regular-6f"/>
      <use x="327.471939" xlink:href="#Lato-Regular-77"/>
      <use x="405.990707" xlink:href="#Lato-Regular-20"/>
      <use x="431.590714" xlink:href="#Lato-Regular-63"/>
      <use x="479.340714" xlink:href="#Lato-Regular-68"/>
      <use x="535.140717" xlink:href="#Lato-Regular-61"/>
      <use x="584.840729" xlink:href="#Lato-Regular-6e"/>
      <use x="640.640732" xlink:href="#Lato-Regular-67"/>
      <use x="692.640732" xlink:href="#Lato-Regular-65"/>
     </g>
    </g>
   </g>
   <g id="patch_6">
    <path d="M 217.717037 182.54 
L 217.717037 18.96 
" style="fill:none;stroke:#000000;stroke-linecap:square;stroke-linejoin:miter;stroke-width:1.25;"/>
   </g>
   <g id="patch_7">
    <path d="M 217.717037 182.54 
L 370.838519 182.54 
" style="fill:none;stroke:#000000;stroke-linecap:square;stroke-linejoin:miter;stroke-width:1.25;"/>
   </g>
   <g id="PathCollection_4">
    <path clip-path="url(#pf735f2ca45)" d="M 0 216.5 
C 0.132602 216.5 0.25979 216.447317 0.353553 216.353553 
C 0.447317 216.25979 0.5 216.132602 0.5 216 
C 0.5 215.867398 0.447317 215.74021 0.353553 215.646447 
C 0.25979 215.552683 0.132602 215.5 0 215.5 
C -0.132602 215.5 -0.25979 215.552683 -0.353553 215.646447 
C -0.447317 215.74021 -0.5 215.867398 -0.5 216 
C -0.5 216.132602 -0.447317 216.25979 -0.353553 216.353553 
C -0.25979 216.447317 -0.132602 216.5 0 216.5 
z
" style="fill:none;"/>
   </g>
  </g>
  <g id="axes_3">
   <g id="patch_8">
    <path d="M 401.691852 182.54 
L 554.813333 182.54 
L 554.813333 18.96 
L 401.691852 18.96 
z
" style="fill:#ffffff;"/>
   </g>
   <g id="PathCollection_5"/>
   <g id="matplotlib.axis_5">
    <g id="xtick_3">
     <g id="line2d_17">
      <g>
       <use style="stroke:#000000;stroke-width:1.25;" x="478.252593" xlink:href="#mda684ef81e" y="182.54"/>
      </g>
     </g>
    </g>
   </g>
   <g id="matplotlib.axis_6">
    <g id="ytick_15">
     <g id="line2d_18">
      <g>
       <use style="stroke:#000000;stroke-width:1.25;" x="401.691852" xlink:href="#m2ed192bd5d" y="173.727499"/>
      </g>
     </g>
    </g>
    <g id="ytick_16">
     <g id="line2d_19">
      <g>
       <use style="stroke:#000000;stroke-width:1.25;" x="401.691852" xlink:href="#m2ed192bd5d" y="149.401666"/>
      </g>
     </g>
    </g>
    <g id="ytick_17">
     <g id="line2d_20">
      <g>
       <use style="stroke:#000000;stroke-width:1.25;" x="401.691852" xlink:href="#m2ed192bd5d" y="125.075833"/>
      </g>
     </g>
    </g>
    <g id="ytick_18">
     <g id="line2d_21">
      <g>
       <use style="stroke:#000000;stroke-width:1.25;" x="401.691852" xlink:href="#m2ed192bd5d" y="100.75"/>
      </g>
     </g>
    </g>
    <g id="ytick_19">
     <g id="line2d_22">
      <g>
       <use style="stroke:#000000;stroke-width:1.25;" x="401.691852" xlink:href="#m2ed192bd5d" y="76.424167"/>
      </g>
     </g>
    </g>
    <g id="ytick_20">
     <g id="line2d_23">
      <g>
       <use style="stroke:#000000;stroke-width:1.25;" x="401.691852" xlink:href="#m2ed192bd5d" y="52.098334"/>
      </g>
     </g>
    </g>
    <g id="ytick_21">
     <g id="line2d_24">
      <g>
       <use style="stroke:#000000;stroke-width:1.25;" x="401.691852" xlink:href="#m2ed192bd5d" y="27.772501"/>
      </g>
     </g>
    </g>
    <g id="text_11">
     <!-- Peak flow change -->
     <defs>
      <path d="M 18.796875 26.796875 
L 18.796875 0 
L 9.15625 0 
L 9.15625 71.65625 
L 30.296875 71.65625 
Q 37.09375 71.65625 42.125 70.078125 
Q 47.15625 68.5 50.453125 65.59375 
Q 53.75 62.703125 55.375 58.59375 
Q 57 54.5 57 49.453125 
Q 57 44.453125 55.25 40.296875 
Q 53.5 36.15625 50.125 33.15625 
Q 46.75 30.15625 41.765625 28.46875 
Q 36.796875 26.796875 30.296875 26.796875 
z
M 18.796875 34.5 
L 30.296875 34.5 
Q 34.453125 34.5 37.625 35.59375 
Q 40.796875 36.703125 42.96875 38.671875 
Q 45.15625 40.65625 46.25 43.40625 
Q 47.34375 46.15625 47.34375 49.453125 
Q 47.34375 56.296875 43.125 60.140625 
Q 38.90625 64 30.296875 64 
L 18.796875 64 
z
" id="Lato-Regular-50"/>
      <path d="M 16 73.65625 
L 16 30.296875 
L 18.296875 30.296875 
Q 19.296875 30.296875 19.96875 30.5625 
Q 20.65625 30.84375 21.40625 31.703125 
L 37.40625 48.84375 
Q 38.09375 49.703125 38.875 50.171875 
Q 39.65625 50.65625 40.953125 50.65625 
L 49 50.65625 
L 30.34375 30.796875 
Q 29 29.09375 27.453125 28.15625 
Q 28.34375 27.546875 29.0625 26.765625 
Q 29.796875 26 30.453125 25 
L 50.25 0 
L 42.296875 0 
Q 41.15625 0 40.328125 0.375 
Q 39.5 0.75 38.90625 1.75 
L 22.25 22.5 
Q 21.5 23.546875 20.765625 23.875 
Q 20.046875 24.203125 18.546875 24.203125 
L 16 24.203125 
L 16 0 
L 7.046875 0 
L 7.046875 73.65625 
z
" id="Lato-Regular-6b"/>
     </defs>
     <g transform="translate(395.501852 147.082187)rotate(-90)scale(0.12 -0.12)">
      <use xlink:href="#Lato-Regular-50"/>
      <use x="60.018753" xlink:href="#Lato-Regular-65"/>
      <use x="112.818756" xlink:href="#Lato-Regular-61"/>
      <use x="162.518768" xlink:href="#Lato-Regular-6b"/>
      <use x="213.318771" xlink:href="#Lato-Regular-20"/>
      <use x="238.918777" xlink:href="#Lato-Regular-66"/>
      <use x="273.968781" xlink:href="#Lato-Regular-6c"/>
      <use x="297.568787" xlink:href="#Lato-Regular-6f"/>
      <use x="354.268799" xlink:href="#Lato-Regular-77"/>
      <use x="432.787567" xlink:href="#Lato-Regular-20"/>
      <use x="458.387573" xlink:href="#Lato-Regular-63"/>
      <use x="506.137573" xlink:href="#Lato-Regular-68"/>
      <use x="561.937576" xlink:href="#Lato-Regular-61"/>
      <use x="611.637589" xlink:href="#Lato-Regular-6e"/>
      <use x="667.437592" xlink:href="#Lato-Regular-67"/>
      <use x="719.437592" xlink:href="#Lato-Regular-65"/>
     </g>
    </g>
   </g>
   <g id="patch_9">
    <path d="M 401.691852 182.54 
L 401.691852 18.96 
" style="fill:none;stroke:#000000;stroke-linecap:square;stroke-linejoin:miter;stroke-width:1.25;"/>
   </g>
   <g id="patch_10">
    <path d="M 401.691852 182.54 
L 554.813333 182.54 
" style="fill:none;stroke:#000000;stroke-linecap:square;stroke-linejoin:miter;stroke-width:1.25;"/>
   </g>
   <g id="PathCollection_6">
    <path clip-path="url(#pd50436029b)" d="M 0 216.5 
C 0.132602 216.5 0.25979 216.447317 0.353553 216.353553 
C 0.447317 216.25979 0.5 216.132602 0.5 216 
C 0.5 215.867398 0.447317 215.74021 0.353553 215.646447 
C 0.25979 215.552683 0.132602 215.5 0 215.5 
C -0.132602 215.5 -0.25979 215.552683 -0.353553 215.646447 
C -0.447317 215.74021 -0.5 215.867398 -0.5 216 
C -0.5 216.132602 -0.447317 216.25979 -0.353553 216.353553 
C -0.25979 216.447317 -0.132602 216.5 0 216.5 
z
" style="fill:none;"/>
   </g>
  </g>
 </g>
 <defs>
  <clipPath id="p0a768193bb">
   <rect height="163.58" width="153.121481" x="33.742222" y="18.96"/>
  </clipPath>
  <clipPath id="pf735f2ca45">
   <rect height="163.58" width="153.121481" x="217.717037" y="18.96"/>
  </clipPath>
  <clipPath id="pd50436029b">
   <rect height="163.58" width="153.121481" x="401.691852" y="18.96"/>
  </clipPath>
 </defs>
</svg>
