<?xml version="1.0" encoding="utf-8" standalone="no"?>
<!DOCTYPE svg PUBLIC "-//W3C//DTD SVG 1.1//EN"
  "http://www.w3.org/Graphics/SVG/1.1/DTD/svg11.dtd">
<!-- Created with matplotlib (http://matplotlib.org/) -->
<svg height="288pt" version="1.1" viewBox="0 0 432 288" width="432pt" xmlns="http://www.w3.org/2000/svg" xmlns:xlink="http://www.w3.org/1999/xlink">
 <defs>
  <style type="text/css">
*{stroke-linecap:butt;stroke-linejoin:round;}
  </style>
 </defs>
 <g id="figure_1">
  <g id="patch_1">
   <path d="M 0 288 
L 432 288 
L 432 0 
L 0 0 
z
" style="fill:#ffffff;"/>
  </g>
  <g id="axes_1">
   <g id="patch_2">
    <path d="M 54 252 
L 388.8 252 
L 388.8 34.56 
L 54 34.56 
z
" style="fill:#ffffff;"/>
   </g>
   <g id="PathCollection_1"/>
   <g id="PathCollection_2"/>
   <g id="PathCollection_3"/>
   <g id="PathCollection_4"/>
   <g id="PathCollection_5"/>
   <g id="PathCollection_6"/>
   <g id="PathCollection_7"/>
   <g id="PathCollection_8"/>
   <g id="PathCollection_9"/>
   <g id="PathCollection_10"/>
   <g id="PathCollection_11"/>
   <g id="PathCollection_12"/>
   <g id="matplotlib.axis_1">
    <g id="xtick_1">
     <g id="line2d_1">
      <defs>
       <path d="M 0 0 
L 0 6 
" id="m72481b46c2" style="stroke:#000000;stroke-width:1.25;"/>
      </defs>
      <g>
       <use style="stroke:#000000;stroke-width:1.25;" x="137.7" xlink:href="#m72481b46c2" y="252"/>
      </g>
     </g>
     <g id="text_1">
      <!-- Deforestation -->
      <defs>
       <path d="M 72.25 36.15625 
Q 72.25 28.203125 69.59375 21.546875 
Q 66.953125 14.90625 62.140625 10.09375 
Q 57.34375 5.296875 50.59375 2.640625 
Q 43.84375 0 35.59375 0 
L 8.046875 0 
L 8.046875 72.296875 
L 35.59375 72.296875 
Q 43.84375 72.296875 50.59375 69.625 
Q 57.34375 66.953125 62.140625 62.171875 
Q 66.953125 57.40625 69.59375 50.75 
Q 72.25 44.09375 72.25 36.15625 
z
M 58.453125 36.15625 
Q 58.453125 42.09375 56.875 46.8125 
Q 55.296875 51.546875 52.3125 54.8125 
Q 49.34375 58.09375 45.125 59.84375 
Q 40.90625 61.59375 35.59375 61.59375 
L 21.546875 61.59375 
L 21.546875 10.703125 
L 35.59375 10.703125 
Q 40.90625 10.703125 45.125 12.453125 
Q 49.34375 14.203125 52.3125 17.46875 
Q 55.296875 20.75 56.875 25.46875 
Q 58.453125 30.203125 58.453125 36.15625 
z
" id="Lato-Bold-44"/>
       <path d="M 27.953125 52.09375 
Q 32.796875 52.09375 36.890625 50.546875 
Q 41 49 43.953125 46.015625 
Q 46.90625 43.046875 48.578125 38.71875 
Q 50.25 34.40625 50.25 28.84375 
Q 50.25 26.046875 49.640625 25.0625 
Q 49.046875 24.09375 47.34375 24.09375 
L 15.59375 24.09375 
Q 15.90625 20.15625 17 17.28125 
Q 18.09375 14.40625 19.890625 12.53125 
Q 21.703125 10.65625 24.171875 9.71875 
Q 26.65625 8.796875 29.65625 8.796875 
Q 32.65625 8.796875 34.828125 9.5 
Q 37 10.203125 38.625 11.046875 
Q 40.25 11.90625 41.46875 12.59375 
Q 42.703125 13.296875 43.84375 13.296875 
Q 45.40625 13.296875 46.15625 12.15625 
L 49.703125 7.65625 
Q 47.65625 5.25 45.09375 3.625 
Q 42.546875 2 39.765625 1.015625 
Q 37 0.046875 34.125 -0.34375 
Q 31.25 -0.75 28.546875 -0.75 
Q 23.203125 -0.75 18.59375 1.015625 
Q 14 2.796875 10.59375 6.265625 
Q 7.203125 9.75 5.25 14.875 
Q 3.296875 20 3.296875 26.75 
Q 3.296875 32 5 36.625 
Q 6.703125 41.25 9.875 44.671875 
Q 13.046875 48.09375 17.625 50.09375 
Q 22.203125 52.09375 27.953125 52.09375 
z
M 28.203125 43.25 
Q 22.796875 43.25 19.75 40.203125 
Q 16.703125 37.15625 15.84375 31.546875 
L 39.15625 31.546875 
Q 39.15625 33.953125 38.46875 36.078125 
Q 37.796875 38.203125 36.4375 39.796875 
Q 35.09375 41.40625 33.015625 42.328125 
Q 30.953125 43.25 28.203125 43.25 
z
" id="Lato-Bold-65"/>
       <path d="M 9.703125 0 
L 9.703125 42 
L 5.25 42.703125 
Q 3.796875 43 2.921875 43.71875 
Q 2.046875 44.453125 2.046875 45.796875 
L 2.046875 50.84375 
L 9.703125 50.84375 
L 9.703125 54.65625 
Q 9.703125 59.046875 11.015625 62.546875 
Q 12.34375 66.046875 14.8125 68.5 
Q 17.296875 70.953125 20.84375 72.25 
Q 24.40625 73.546875 28.84375 73.546875 
Q 32.40625 73.546875 35.453125 72.59375 
L 35.203125 66.40625 
Q 35.15625 65.703125 34.796875 65.265625 
Q 34.453125 64.84375 33.875 64.625 
Q 33.296875 64.40625 32.546875 64.328125 
Q 31.796875 64.25 30.953125 64.25 
Q 28.75 64.25 27.015625 63.765625 
Q 25.296875 63.296875 24.09375 62.125 
Q 22.90625 60.953125 22.28125 59.015625 
Q 21.65625 57.09375 21.65625 54.25 
L 21.65625 50.84375 
L 35 50.84375 
L 35 42.046875 
L 22.046875 42.046875 
L 22.046875 0 
z
" id="Lato-Bold-66"/>
       <path d="M 28.796875 52.09375 
Q 34.5 52.09375 39.171875 50.25 
Q 43.84375 48.40625 47.171875 45 
Q 50.5 41.59375 52.296875 36.6875 
Q 54.09375 31.796875 54.09375 25.75 
Q 54.09375 19.65625 52.296875 14.75 
Q 50.5 9.84375 47.171875 6.390625 
Q 43.84375 2.953125 39.171875 1.09375 
Q 34.5 -0.75 28.796875 -0.75 
Q 23.046875 -0.75 18.34375 1.09375 
Q 13.65625 2.953125 10.328125 6.390625 
Q 7 9.84375 5.171875 14.75 
Q 3.34375 19.65625 3.34375 25.75 
Q 3.34375 31.796875 5.171875 36.6875 
Q 7 41.59375 10.328125 45 
Q 13.65625 48.40625 18.34375 50.25 
Q 23.046875 52.09375 28.796875 52.09375 
z
M 28.796875 8.75 
Q 35.203125 8.75 38.265625 13.046875 
Q 41.34375 17.34375 41.34375 25.65625 
Q 41.34375 33.953125 38.265625 38.296875 
Q 35.203125 42.65625 28.796875 42.65625 
Q 22.296875 42.65625 19.171875 38.28125 
Q 16.046875 33.90625 16.046875 25.65625 
Q 16.046875 17.40625 19.171875 13.078125 
Q 22.296875 8.75 28.796875 8.75 
z
" id="Lato-Bold-6f"/>
       <path d="M 6.09375 0 
L 6.09375 51.296875 
L 13.34375 51.296875 
Q 15.25 51.296875 16 50.625 
Q 16.75 49.953125 17 48.203125 
L 17.703125 42.40625 
Q 20.15625 47 23.453125 49.625 
Q 26.75 52.25 31.25 52.25 
Q 34.796875 52.25 36.953125 50.703125 
L 36.15625 41.453125 
Q 35.90625 40.546875 35.421875 40.171875 
Q 34.953125 39.796875 34.15625 39.796875 
Q 33.40625 39.796875 31.921875 40.046875 
Q 30.453125 40.296875 29.046875 40.296875 
Q 27 40.296875 25.390625 39.6875 
Q 23.796875 39.09375 22.515625 37.96875 
Q 21.25 36.84375 20.265625 35.25 
Q 19.296875 33.65625 18.453125 31.59375 
L 18.453125 0 
z
" id="Lato-Bold-72"/>
       <path d="M 37.40625 41.296875 
Q 36.90625 40.5 36.34375 40.171875 
Q 35.796875 39.84375 34.953125 39.84375 
Q 34.046875 39.84375 33.015625 40.34375 
Q 32 40.84375 30.640625 41.46875 
Q 29.296875 42.09375 27.5625 42.59375 
Q 25.84375 43.09375 23.5 43.09375 
Q 19.84375 43.09375 17.765625 41.546875 
Q 15.703125 40 15.703125 37.5 
Q 15.703125 35.84375 16.765625 34.71875 
Q 17.84375 33.59375 19.625 32.75 
Q 21.40625 31.90625 23.65625 31.21875 
Q 25.90625 30.546875 28.21875 29.75 
Q 30.546875 28.953125 32.796875 27.921875 
Q 35.046875 26.90625 36.8125 25.328125 
Q 38.59375 23.75 39.671875 21.546875 
Q 40.75 19.34375 40.75 16.25 
Q 40.75 12.546875 39.421875 9.421875 
Q 38.09375 6.296875 35.5 4.015625 
Q 32.90625 1.75 29.078125 0.46875 
Q 25.25 -0.796875 20.25 -0.796875 
Q 17.59375 -0.796875 15.0625 -0.3125 
Q 12.546875 0.15625 10.21875 1 
Q 7.90625 1.84375 5.921875 3 
Q 3.953125 4.15625 2.453125 5.5 
L 5.296875 10.203125 
Q 5.84375 11.046875 6.59375 11.5 
Q 7.34375 11.953125 8.5 11.953125 
Q 9.65625 11.953125 10.671875 11.296875 
Q 11.703125 10.65625 13.046875 9.90625 
Q 14.40625 9.15625 16.21875 8.5 
Q 18.046875 7.84375 20.84375 7.84375 
Q 23.046875 7.84375 24.625 8.375 
Q 26.203125 8.90625 27.21875 9.75 
Q 28.25 10.59375 28.71875 11.71875 
Q 29.203125 12.84375 29.203125 14.046875 
Q 29.203125 15.84375 28.125 17 
Q 27.046875 18.15625 25.265625 19 
Q 23.5 19.84375 21.21875 20.515625 
Q 18.953125 21.203125 16.578125 22 
Q 14.203125 22.796875 11.921875 23.875 
Q 9.65625 24.953125 7.875 26.59375 
Q 6.09375 28.25 5.015625 30.640625 
Q 3.953125 33.046875 3.953125 36.453125 
Q 3.953125 39.59375 5.203125 42.4375 
Q 6.453125 45.296875 8.875 47.421875 
Q 11.296875 49.546875 14.921875 50.8125 
Q 18.546875 52.09375 23.296875 52.09375 
Q 28.59375 52.09375 32.9375 50.34375 
Q 37.296875 48.59375 40.203125 45.75 
z
" id="Lato-Bold-73"/>
       <path d="M 23.203125 -0.796875 
Q 16.5 -0.796875 12.921875 2.96875 
Q 9.34375 6.75 9.34375 13.40625 
L 9.34375 42.046875 
L 4.09375 42.046875 
Q 3.09375 42.046875 2.390625 42.6875 
Q 1.703125 43.34375 1.703125 44.65625 
L 1.703125 49.546875 
L 9.953125 50.90625 
L 12.546875 64.90625 
Q 12.796875 65.90625 13.5 66.453125 
Q 14.203125 67 15.296875 67 
L 21.703125 67 
L 21.703125 50.84375 
L 35.40625 50.84375 
L 35.40625 42.046875 
L 21.703125 42.046875 
L 21.703125 14.25 
Q 21.703125 11.84375 22.875 10.5 
Q 24.046875 9.15625 26.09375 9.15625 
Q 27.25 9.15625 28.015625 9.421875 
Q 28.796875 9.703125 29.375 10 
Q 29.953125 10.296875 30.390625 10.5625 
Q 30.84375 10.84375 31.296875 10.84375 
Q 31.84375 10.84375 32.1875 10.5625 
Q 32.546875 10.296875 32.953125 9.75 
L 36.65625 3.75 
Q 33.953125 1.5 30.453125 0.34375 
Q 26.953125 -0.796875 23.203125 -0.796875 
z
" id="Lato-Bold-74"/>
       <path d="M 39.65625 0 
Q 37.90625 0 36.953125 0.515625 
Q 36 1.046875 35.453125 2.65625 
L 34.34375 6.296875 
Q 32.40625 4.546875 30.546875 3.21875 
Q 28.703125 1.90625 26.703125 1 
Q 24.703125 0.09375 22.421875 -0.34375 
Q 20.15625 -0.796875 17.40625 -0.796875 
Q 14.15625 -0.796875 11.40625 0.078125 
Q 8.65625 0.953125 6.65625 2.703125 
Q 4.65625 4.453125 3.546875 7.046875 
Q 2.453125 9.65625 2.453125 13.09375 
Q 2.453125 16 3.96875 18.828125 
Q 5.5 21.65625 9.046875 23.921875 
Q 12.59375 26.203125 18.5 27.703125 
Q 24.40625 29.203125 33.203125 29.40625 
L 33.203125 32.40625 
Q 33.203125 37.546875 31 40.015625 
Q 28.796875 42.5 24.65625 42.5 
Q 21.65625 42.5 19.671875 41.796875 
Q 17.703125 41.09375 16.203125 40.21875 
Q 14.703125 39.34375 13.46875 38.640625 
Q 12.25 37.953125 10.75 37.953125 
Q 9.453125 37.953125 8.546875 38.625 
Q 7.65625 39.296875 7.09375 40.203125 
L 4.90625 44.15625 
Q 13.75 52.25 26.203125 52.25 
Q 30.703125 52.25 34.25 50.765625 
Q 37.796875 49.296875 40.25 46.671875 
Q 42.703125 44.046875 43.96875 40.390625 
Q 45.25 36.75 45.25 32.40625 
L 45.25 0 
z
M 21.203125 7.703125 
Q 25 7.703125 27.765625 9.078125 
Q 30.546875 10.453125 33.203125 13.25 
L 33.203125 21.90625 
Q 27.796875 21.65625 24.171875 20.96875 
Q 20.546875 20.296875 18.34375 19.25 
Q 16.15625 18.203125 15.203125 16.796875 
Q 14.25 15.40625 14.25 13.75 
Q 14.25 10.5 16.171875 9.09375 
Q 18.09375 7.703125 21.203125 7.703125 
z
" id="Lato-Bold-61"/>
       <path d="M 18.90625 51.296875 
L 18.90625 0 
L 6.5 0 
L 6.5 51.296875 
z
M 20.59375 66.25 
Q 20.59375 64.65625 19.9375 63.25 
Q 19.296875 61.84375 18.21875 60.796875 
Q 17.15625 59.75 15.703125 59.125 
Q 14.25 58.5 12.59375 58.5 
Q 11 58.5 9.578125 59.125 
Q 8.15625 59.75 7.09375 60.796875 
Q 6.046875 61.84375 5.421875 63.25 
Q 4.796875 64.65625 4.796875 66.25 
Q 4.796875 67.90625 5.421875 69.34375 
Q 6.046875 70.796875 7.09375 71.84375 
Q 8.15625 72.90625 9.578125 73.53125 
Q 11 74.15625 12.59375 74.15625 
Q 14.25 74.15625 15.703125 73.53125 
Q 17.15625 72.90625 18.21875 71.84375 
Q 19.296875 70.796875 19.9375 69.34375 
Q 20.59375 67.90625 20.59375 66.25 
z
" id="Lato-Bold-69"/>
       <path d="M 6.09375 0 
L 6.09375 51.296875 
L 13.65625 51.296875 
Q 16.046875 51.296875 16.796875 49.046875 
L 17.65625 45 
Q 19.203125 46.59375 20.921875 47.890625 
Q 22.65625 49.203125 24.578125 50.140625 
Q 26.5 51.09375 28.703125 51.59375 
Q 30.90625 52.09375 33.5 52.09375 
Q 37.703125 52.09375 40.953125 50.671875 
Q 44.203125 49.25 46.375 46.671875 
Q 48.546875 44.09375 49.671875 40.515625 
Q 50.796875 36.953125 50.796875 32.65625 
L 50.796875 0 
L 38.453125 0 
L 38.453125 32.65625 
Q 38.453125 37.34375 36.296875 39.921875 
Q 34.15625 42.5 29.75 42.5 
Q 26.546875 42.5 23.75 41.046875 
Q 20.953125 39.59375 18.453125 37.09375 
L 18.453125 0 
z
" id="Lato-Bold-6e"/>
      </defs>
      <g transform="translate(103.501172 269.672656)scale(0.11 -0.11)">
       <use xlink:href="#Lato-Bold-44"/>
       <use x="76.050018" xlink:href="#Lato-Bold-65"/>
       <use x="129.450027" xlink:href="#Lato-Bold-66"/>
       <use x="165.284409" xlink:href="#Lato-Bold-6f"/>
       <use x="222.734421" xlink:href="#Lato-Bold-72"/>
       <use x="260.018799" xlink:href="#Lato-Bold-65"/>
       <use x="313.418808" xlink:href="#Lato-Bold-73"/>
       <use x="357.368805" xlink:href="#Lato-Bold-74"/>
       <use x="394.568802" xlink:href="#Lato-Bold-61"/>
       <use x="445.318802" xlink:href="#Lato-Bold-74"/>
       <use x="482.518799" xlink:href="#Lato-Bold-69"/>
       <use x="507.918793" xlink:href="#Lato-Bold-6f"/>
       <use x="565.368805" xlink:href="#Lato-Bold-6e"/>
      </g>
     </g>
    </g>
    <g id="xtick_2">
     <g id="line2d_2">
      <g>
       <use style="stroke:#000000;stroke-width:1.25;" x="305.1" xlink:href="#m72481b46c2" y="252"/>
      </g>
     </g>
     <g id="text_2">
      <!-- Afforestation -->
      <defs>
       <path d="M 70 0 
L 59.59375 0 
Q 57.84375 0 56.75 0.875 
Q 55.65625 1.75 55.09375 3.046875 
L 49.703125 17.796875 
L 19.75 17.796875 
L 14.34375 3.046875 
Q 13.953125 1.90625 12.796875 0.953125 
Q 11.65625 0 9.953125 0 
L -0.546875 0 
L 27.90625 72.296875 
L 41.59375 72.296875 
z
M 23.203125 27.296875 
L 46.25 27.296875 
L 37.453125 51.34375 
Q 36.796875 52.953125 36.09375 55.125 
Q 35.40625 57.296875 34.703125 59.84375 
Q 34 57.296875 33.328125 55.09375 
Q 32.65625 52.90625 32 51.25 
z
" id="Lato-Bold-41"/>
      </defs>
      <g transform="translate(272.231484 269.672656)scale(0.11 -0.11)">
       <use xlink:href="#Lato-Bold-41"/>
       <use x="69.418762" xlink:href="#Lato-Bold-66"/>
       <use x="105.268768" xlink:href="#Lato-Bold-66"/>
       <use x="141.103149" xlink:href="#Lato-Bold-6f"/>
       <use x="198.553162" xlink:href="#Lato-Bold-72"/>
       <use x="235.83754" xlink:href="#Lato-Bold-65"/>
       <use x="289.237549" xlink:href="#Lato-Bold-73"/>
       <use x="333.187546" xlink:href="#Lato-Bold-74"/>
       <use x="370.387543" xlink:href="#Lato-Bold-61"/>
       <use x="421.137543" xlink:href="#Lato-Bold-74"/>
       <use x="458.33754" xlink:href="#Lato-Bold-69"/>
       <use x="483.737534" xlink:href="#Lato-Bold-6f"/>
       <use x="541.187546" xlink:href="#Lato-Bold-6e"/>
      </g>
     </g>
    </g>
   </g>
   <g id="matplotlib.axis_2">
    <g id="ytick_1">
     <g id="line2d_3">
      <defs>
       <path d="M 0 0 
L -6 0 
" id="maefa9736af" style="stroke:#000000;stroke-width:1.25;"/>
      </defs>
      <g>
       <use style="stroke:#000000;stroke-width:1.25;" x="54" xlink:href="#maefa9736af" y="242.087662"/>
      </g>
     </g>
     <g id="text_3">
      <!-- 0 -->
      <defs>
       <path d="M 55.5 36.15625 
Q 55.5 26.703125 53.46875 19.71875 
Q 51.453125 12.75 47.875 8.203125 
Q 44.296875 3.65625 39.421875 1.421875 
Q 34.546875 -0.796875 28.90625 -0.796875 
Q 23.25 -0.796875 18.421875 1.421875 
Q 13.59375 3.65625 10.046875 8.203125 
Q 6.5 12.75 4.5 19.71875 
Q 2.5 26.703125 2.5 36.15625 
Q 2.5 45.65625 4.5 52.59375 
Q 6.5 59.546875 10.046875 64.09375 
Q 13.59375 68.65625 18.421875 70.875 
Q 23.25 73.09375 28.90625 73.09375 
Q 34.546875 73.09375 39.421875 70.875 
Q 44.296875 68.65625 47.875 64.09375 
Q 51.453125 59.546875 53.46875 52.59375 
Q 55.5 45.65625 55.5 36.15625 
z
M 42.75 36.15625 
Q 42.75 44 41.59375 49.140625 
Q 40.453125 54.296875 38.515625 57.34375 
Q 36.59375 60.40625 34.09375 61.625 
Q 31.59375 62.84375 28.90625 62.84375 
Q 26.25 62.84375 23.765625 61.625 
Q 21.296875 60.40625 19.390625 57.34375 
Q 17.5 54.296875 16.375 49.140625 
Q 15.25 44 15.25 36.15625 
Q 15.25 28.296875 16.375 23.140625 
Q 17.5 18 19.390625 14.953125 
Q 21.296875 11.90625 23.765625 10.671875 
Q 26.25 9.453125 28.90625 9.453125 
Q 31.59375 9.453125 34.09375 10.671875 
Q 36.59375 11.90625 38.515625 14.953125 
Q 40.453125 18 41.59375 23.140625 
Q 42.75 28.296875 42.75 36.15625 
z
" id="Lato-Bold-30"/>
      </defs>
      <g transform="translate(38.12 246.17399)scale(0.11 -0.11)">
       <use xlink:href="#Lato-Bold-30"/>
      </g>
     </g>
    </g>
    <g id="ytick_2">
     <g id="line2d_4">
      <g>
       <use style="stroke:#000000;stroke-width:1.25;" x="54" xlink:href="#maefa9736af" y="197.256636"/>
      </g>
     </g>
     <g id="text_4">
      <!-- 50 -->
      <defs>
       <path d="M 49.953125 67.046875 
Q 49.953125 64.40625 48.296875 62.75 
Q 46.65625 61.09375 42.703125 61.09375 
L 22.84375 61.09375 
L 20.25 46 
Q 25.15625 47 29.15625 47 
Q 34.84375 47 39.1875 45.296875 
Q 43.546875 43.59375 46.5 40.59375 
Q 49.453125 37.59375 50.953125 33.5625 
Q 52.453125 29.546875 52.453125 24.90625 
Q 52.453125 19.15625 50.421875 14.40625 
Q 48.40625 9.65625 44.796875 6.28125 
Q 41.203125 2.90625 36.265625 1.046875 
Q 31.34375 -0.796875 25.546875 -0.796875 
Q 22.15625 -0.796875 19.09375 -0.09375 
Q 16.046875 0.59375 13.375 1.765625 
Q 10.703125 2.953125 8.421875 4.46875 
Q 6.15625 6 4.34375 7.703125 
L 8.15625 12.953125 
Q 9.34375 14.65625 11.296875 14.65625 
Q 12.546875 14.65625 13.84375 13.84375 
Q 15.15625 13.046875 16.828125 12.09375 
Q 18.5 11.15625 20.765625 10.34375 
Q 23.046875 9.546875 26.25 9.546875 
Q 29.65625 9.546875 32.25 10.640625 
Q 34.84375 11.75 36.5625 13.71875 
Q 38.296875 15.703125 39.171875 18.421875 
Q 40.046875 21.15625 40.046875 24.34375 
Q 40.046875 30.25 36.625 33.578125 
Q 33.203125 36.90625 26.5 36.90625 
Q 21.34375 36.90625 15.953125 35 
L 8.25 37.203125 
L 14.25 72.296875 
L 49.953125 72.296875 
z
" id="Lato-Bold-35"/>
      </defs>
      <g transform="translate(31.74 201.342964)scale(0.11 -0.11)">
       <use xlink:href="#Lato-Bold-35"/>
       <use x="58" xlink:href="#Lato-Bold-30"/>
      </g>
     </g>
    </g>
    <g id="ytick_3">
     <g id="line2d_5">
      <g>
       <use style="stroke:#000000;stroke-width:1.25;" x="54" xlink:href="#maefa9736af" y="152.425611"/>
      </g>
     </g>
     <g id="text_5">
      <!-- 100 -->
      <defs>
       <path d="M 11.75 9.25 
L 26.40625 9.25 
L 26.40625 51.40625 
Q 26.40625 53.84375 26.546875 56.546875 
L 16.15625 47.84375 
Q 15.25 47.15625 14.375 46.96875 
Q 13.5 46.796875 12.71875 46.9375 
Q 11.953125 47.09375 11.34375 47.46875 
Q 10.75 47.84375 10.453125 48.296875 
L 6.546875 53.65625 
L 28.59375 72.40625 
L 38.75 72.40625 
L 38.75 9.25 
L 51.75 9.25 
L 51.75 0 
L 11.75 0 
z
" id="Lato-Bold-31"/>
      </defs>
      <g transform="translate(25.36 156.511939)scale(0.11 -0.11)">
       <use xlink:href="#Lato-Bold-31"/>
       <use x="58" xlink:href="#Lato-Bold-30"/>
       <use x="116" xlink:href="#Lato-Bold-30"/>
      </g>
     </g>
    </g>
    <g id="ytick_4">
     <g id="line2d_6">
      <g>
       <use style="stroke:#000000;stroke-width:1.25;" x="54" xlink:href="#maefa9736af" y="107.594585"/>
      </g>
     </g>
     <g id="text_6">
      <!-- 150 -->
      <g transform="translate(25.36 111.680913)scale(0.11 -0.11)">
       <use xlink:href="#Lato-Bold-31"/>
       <use x="58" xlink:href="#Lato-Bold-35"/>
       <use x="116" xlink:href="#Lato-Bold-30"/>
      </g>
     </g>
    </g>
    <g id="ytick_5">
     <g id="line2d_7">
      <g>
       <use style="stroke:#000000;stroke-width:1.25;" x="54" xlink:href="#maefa9736af" y="62.763559"/>
      </g>
     </g>
     <g id="text_7">
      <!-- 200 -->
      <defs>
       <path d="M 29.703125 73.09375 
Q 34.703125 73.09375 38.84375 71.625 
Q 43 70.15625 45.953125 67.453125 
Q 48.90625 64.75 50.546875 60.953125 
Q 52.203125 57.15625 52.203125 52.5 
Q 52.203125 48.5 51.015625 45.09375 
Q 49.84375 41.703125 47.875 38.59375 
Q 45.90625 35.5 43.25 32.59375 
Q 40.59375 29.703125 37.703125 26.703125 
L 21.34375 10.046875 
Q 23.75 10.75 26.078125 11.125 
Q 28.40625 11.5 30.5 11.5 
L 49.046875 11.5 
Q 51.046875 11.5 52.21875 10.375 
Q 53.40625 9.25 53.40625 7.40625 
L 53.40625 0 
L 3.796875 0 
L 3.796875 4.09375 
Q 3.796875 5.34375 4.3125 6.71875 
Q 4.84375 8.09375 6 9.203125 
L 27.953125 31.203125 
Q 30.703125 34 32.875 36.546875 
Q 35.046875 39.09375 36.5 41.59375 
Q 37.953125 44.09375 38.71875 46.671875 
Q 39.5 49.25 39.5 52.09375 
Q 39.5 54.703125 38.75 56.671875 
Q 38 58.65625 36.625 60 
Q 35.25 61.34375 33.328125 62.015625 
Q 31.40625 62.703125 29 62.703125 
Q 26.796875 62.703125 24.921875 62.078125 
Q 23.046875 61.453125 21.59375 60.328125 
Q 20.15625 59.203125 19.15625 57.703125 
Q 18.15625 56.203125 17.65625 54.40625 
Q 16.796875 52.09375 15.4375 51.34375 
Q 14.09375 50.59375 11.546875 51 
L 5.046875 52.15625 
Q 5.796875 57.34375 7.9375 61.265625 
Q 10.09375 65.203125 13.3125 67.828125 
Q 16.546875 70.453125 20.71875 71.765625 
Q 24.90625 73.09375 29.703125 73.09375 
z
" id="Lato-Bold-32"/>
      </defs>
      <g transform="translate(25.36 66.849888)scale(0.11 -0.11)">
       <use xlink:href="#Lato-Bold-32"/>
       <use x="58" xlink:href="#Lato-Bold-30"/>
       <use x="116" xlink:href="#Lato-Bold-30"/>
      </g>
     </g>
    </g>
    <g id="text_8">
     <!-- Peak flow change -->
     <defs>
      <path d="M 12.796875 30 
L 12.796875 0 
L 11.59375 0 
L 11.59375 70 
L 27.40625 70 
Q 38.84375 70 44.96875 65.046875 
Q 51.09375 60.09375 51.09375 50 
Q 51.09375 45.65625 49.375 41.96875 
Q 47.65625 38.296875 44.5 35.640625 
Q 41.34375 33 37 31.5 
Q 32.65625 30 27.40625 30 
z
M 12.796875 31 
L 27.40625 31 
Q 32.546875 31 36.6875 32.46875 
Q 40.84375 33.953125 43.765625 36.515625 
Q 46.703125 39.09375 48.296875 42.546875 
Q 49.90625 46 49.90625 50 
Q 49.90625 59.34375 44.28125 64.171875 
Q 38.65625 69 27.40625 69 
L 12.796875 69 
z
" id="Lato-Hairline-50"/>
      <path d="M 27.5 49.796875 
Q 31.34375 49.796875 34.75 48.421875 
Q 38.15625 47.046875 40.671875 44.34375 
Q 43.203125 41.65625 44.640625 37.71875 
Q 46.09375 33.796875 46.09375 28.703125 
Q 46.09375 28.453125 45.921875 28.328125 
Q 45.75 28.203125 45.5 28.203125 
L 7.40625 28.203125 
Q 7.296875 27.5 7.296875 26.84375 
Q 7.296875 26.203125 7.296875 25.5 
Q 7.296875 19.40625 8.75 14.71875 
Q 10.203125 10.046875 12.875 6.875 
Q 15.546875 3.703125 19.3125 2.046875 
Q 23.09375 0.40625 27.703125 0.40625 
Q 31.796875 0.40625 34.796875 1.296875 
Q 37.796875 2.203125 39.796875 3.296875 
Q 41.796875 4.40625 42.84375 5.296875 
Q 43.90625 6.203125 44.09375 6.203125 
Q 44.296875 6.203125 44.5 6 
L 44.703125 5.796875 
Q 43.84375 4.75 42.171875 3.625 
Q 40.5 2.5 38.21875 1.546875 
Q 35.953125 0.59375 33.25 0 
Q 30.546875 -0.59375 27.703125 -0.59375 
Q 22.65625 -0.59375 18.65625 1.171875 
Q 14.65625 2.953125 11.875 6.296875 
Q 9.09375 9.65625 7.59375 14.5 
Q 6.09375 19.34375 6.09375 25.5 
Q 6.09375 30.90625 7.546875 35.375 
Q 9 39.84375 11.75 43.046875 
Q 14.5 46.25 18.46875 48.015625 
Q 22.453125 49.796875 27.5 49.796875 
z
M 27.5 48.796875 
Q 23.09375 48.796875 19.5625 47.375 
Q 16.046875 45.953125 13.5 43.375 
Q 10.953125 40.796875 9.421875 37.140625 
Q 7.90625 33.5 7.453125 29.09375 
L 45 29.09375 
Q 45 33.84375 43.640625 37.515625 
Q 42.296875 41.203125 39.921875 43.703125 
Q 37.546875 46.203125 34.34375 47.5 
Q 31.15625 48.796875 27.5 48.796875 
z
" id="Lato-Hairline-65"/>
      <path d="M 38.40625 0 
Q 37.703125 0 37.703125 0.796875 
L 37.40625 8.75 
Q 35.296875 6.546875 33.1875 4.765625 
Q 31.09375 3 28.75 1.765625 
Q 26.40625 0.546875 23.703125 -0.125 
Q 21 -0.796875 17.703125 -0.796875 
Q 15.5 -0.796875 13.25 -0.125 
Q 11 0.546875 9.203125 2.015625 
Q 7.40625 3.5 6.25 5.828125 
Q 5.09375 8.15625 5.09375 11.5 
Q 5.09375 14.796875 7.046875 17.421875 
Q 9 20.046875 12.96875 21.890625 
Q 16.953125 23.75 23.015625 24.828125 
Q 29.09375 25.90625 37.40625 26.09375 
L 37.40625 32.40625 
Q 37.40625 36.25 36.546875 39.296875 
Q 35.703125 42.34375 34.046875 44.4375 
Q 32.40625 46.546875 29.90625 47.671875 
Q 27.40625 48.796875 24.09375 48.796875 
Q 21.5 48.796875 19.390625 48.25 
Q 17.296875 47.703125 15.640625 46.890625 
Q 14 46.09375 12.765625 45.140625 
Q 11.546875 44.203125 10.640625 43.390625 
Q 9.75 42.59375 9.203125 42.046875 
Q 8.65625 41.5 8.40625 41.5 
Q 8.203125 41.5 7.90625 41.796875 
L 7.703125 42 
Q 11.296875 45.796875 15.140625 47.796875 
Q 19 49.796875 24.09375 49.796875 
Q 27.84375 49.796875 30.5625 48.59375 
Q 33.296875 47.40625 35.09375 45.15625 
Q 36.90625 42.90625 37.75 39.671875 
Q 38.59375 36.453125 38.59375 32.40625 
L 38.59375 0 
z
M 17.703125 0.203125 
Q 21.15625 0.203125 23.953125 1 
Q 26.75 1.796875 29.09375 3.140625 
Q 31.453125 4.5 33.46875 6.265625 
Q 35.5 8.046875 37.40625 10 
L 37.40625 25.09375 
Q 21.65625 24.59375 13.96875 21.171875 
Q 6.296875 17.75 6.296875 11.5 
Q 6.296875 8.546875 7.265625 6.421875 
Q 8.25 4.296875 9.84375 2.921875 
Q 11.453125 1.546875 13.5 0.875 
Q 15.546875 0.203125 17.703125 0.203125 
z
" id="Lato-Hairline-61"/>
      <path d="M 10.40625 72 
L 10.40625 26.796875 
L 12.703125 26.796875 
Q 13.15625 26.796875 13.75 26.890625 
Q 14.34375 27 15.09375 27.703125 
L 38.40625 48.203125 
Q 38.796875 48.59375 39.1875 48.796875 
Q 39.59375 49 40.203125 49 
L 41.09375 49 
L 16.296875 27.296875 
Q 15.65625 26.703125 15.046875 26.453125 
Q 15.75 26.25 16.25 25.921875 
Q 16.75 25.59375 17.203125 25.203125 
L 43.09375 0 
L 42.203125 0 
Q 41.796875 0 41.5 0.09375 
Q 41.203125 0.203125 40.796875 0.59375 
L 16.203125 24.5 
Q 15.296875 25.296875 14.59375 25.59375 
Q 13.90625 25.90625 12.40625 25.90625 
L 10.40625 25.90625 
L 10.40625 0 
L 9.203125 0 
L 9.203125 72 
z
" id="Lato-Hairline-6b"/>
      <path id="Lato-Hairline-20"/>
      <path d="M 11.84375 0 
L 11.84375 45.90625 
L 3.65625 46.09375 
Q 3.046875 46.09375 3.046875 46.5 
L 3.046875 46.90625 
L 11.84375 46.90625 
L 11.84375 54.40625 
Q 11.84375 58.59375 12.84375 61.671875 
Q 13.84375 64.75 15.59375 66.75 
Q 17.34375 68.75 19.796875 69.71875 
Q 22.25 70.703125 25.203125 70.703125 
Q 26.65625 70.703125 28.203125 70.421875 
Q 29.75 70.15625 30.796875 69.59375 
L 30.703125 69.203125 
Q 30.59375 68.84375 30.296875 68.890625 
Q 30 68.953125 29.375 69.125 
Q 28.75 69.296875 27.71875 69.5 
Q 26.703125 69.703125 25.203125 69.703125 
Q 22.59375 69.703125 20.375 68.875 
Q 18.15625 68.046875 16.53125 66.21875 
Q 14.90625 64.40625 13.96875 61.46875 
Q 13.046875 58.546875 13.046875 54.40625 
L 13.046875 46.90625 
L 30.5 46.90625 
L 30.5 45.90625 
L 13.046875 45.90625 
L 13.046875 0 
z
" id="Lato-Hairline-66"/>
      <path d="M 11 72 
L 11 0 
L 9.796875 0 
L 9.796875 72 
z
" id="Lato-Hairline-6c"/>
      <path d="M 27.5 49.796875 
Q 32.65625 49.796875 36.65625 47.96875 
Q 40.65625 46.15625 43.375 42.84375 
Q 46.09375 39.546875 47.5 34.875 
Q 48.90625 30.203125 48.90625 24.5 
Q 48.90625 18.796875 47.5 14.171875 
Q 46.09375 9.546875 43.375 6.25 
Q 40.65625 2.953125 36.65625 1.171875 
Q 32.65625 -0.59375 27.5 -0.59375 
Q 22.296875 -0.59375 18.3125 1.171875 
Q 14.34375 2.953125 11.625 6.25 
Q 8.90625 9.546875 7.5 14.171875 
Q 6.09375 18.796875 6.09375 24.5 
Q 6.09375 30.203125 7.5 34.875 
Q 8.90625 39.546875 11.625 42.84375 
Q 14.34375 46.15625 18.3125 47.96875 
Q 22.296875 49.796875 27.5 49.796875 
z
M 27.5 0.40625 
Q 32.5 0.40625 36.296875 2.15625 
Q 40.09375 3.90625 42.625 7.046875 
Q 45.15625 10.203125 46.421875 14.640625 
Q 47.703125 19.09375 47.703125 24.5 
Q 47.703125 29.90625 46.421875 34.375 
Q 45.15625 38.84375 42.625 42.046875 
Q 40.09375 45.25 36.296875 47.015625 
Q 32.5 48.796875 27.5 48.796875 
Q 22.453125 48.796875 18.671875 47.015625 
Q 14.90625 45.25 12.375 42.046875 
Q 9.84375 38.84375 8.5625 34.375 
Q 7.296875 29.90625 7.296875 24.5 
Q 7.296875 19.09375 8.5625 14.640625 
Q 9.84375 10.203125 12.375 7.046875 
Q 14.90625 3.90625 18.671875 2.15625 
Q 22.453125 0.40625 27.5 0.40625 
z
" id="Lato-Hairline-6f"/>
      <path d="M 3.25 49 
L 3.953125 49 
Q 4.34375 49 4.546875 48.765625 
Q 4.75 48.546875 4.84375 48.296875 
L 19.84375 3.40625 
Q 20.046875 2.84375 20.21875 2.34375 
Q 20.40625 1.84375 20.5 1.296875 
Q 20.703125 2.296875 21.15625 3.40625 
L 36.75 48.796875 
Q 36.90625 49.296875 37.25 49.296875 
L 37.546875 49.296875 
Q 37.90625 49.296875 38.046875 48.796875 
L 53.546875 3.40625 
Q 53.75 2.84375 53.890625 2.390625 
Q 54.046875 1.953125 54.15625 1.40625 
Q 54.25 1.953125 54.453125 2.390625 
Q 54.65625 2.84375 54.84375 3.40625 
L 69.84375 48.296875 
Q 70.203125 49 70.75 49 
L 71.453125 49 
L 54.65625 0 
L 54.15625 0 
Q 53.703125 0 53.546875 0.5 
L 37.84375 46.09375 
Q 37.546875 46.90625 37.40625 47.5 
Q 37.296875 47.15625 37.171875 46.828125 
Q 37.046875 46.5 36.953125 46.09375 
L 21.046875 0.5 
Q 20.90625 0 20.546875 0 
L 20.046875 0 
z
" id="Lato-Hairline-77"/>
      <path d="M 41.09375 44.40625 
Q 40.90625 44.203125 40.703125 44.203125 
Q 40.40625 44.203125 39.578125 44.921875 
Q 38.75 45.65625 37.171875 46.5 
Q 35.59375 47.34375 33.21875 48.0625 
Q 30.84375 48.796875 27.5 48.796875 
Q 22.75 48.796875 19 47.09375 
Q 15.25 45.40625 12.640625 42.25 
Q 10.046875 39.09375 8.671875 34.59375 
Q 7.296875 30.09375 7.296875 24.5 
Q 7.296875 18.703125 8.671875 14.21875 
Q 10.046875 9.75 12.59375 6.671875 
Q 15.15625 3.59375 18.71875 2 
Q 22.296875 0.40625 26.703125 0.40625 
Q 30.59375 0.40625 33.296875 1.296875 
Q 36 2.203125 37.75 3.296875 
Q 39.5 4.40625 40.390625 5.296875 
Q 41.296875 6.203125 41.59375 6.203125 
Q 41.796875 6.203125 42 6 
L 42.203125 5.796875 
Q 41.453125 4.703125 40 3.578125 
Q 38.546875 2.453125 36.546875 1.515625 
Q 34.546875 0.59375 32.046875 0 
Q 29.546875 -0.59375 26.703125 -0.59375 
Q 21.953125 -0.59375 18.140625 1.09375 
Q 14.34375 2.796875 11.671875 6.015625 
Q 9 9.25 7.546875 13.890625 
Q 6.09375 18.546875 6.09375 24.5 
Q 6.09375 30.203125 7.546875 34.875 
Q 9 39.546875 11.75 42.84375 
Q 14.5 46.15625 18.46875 47.96875 
Q 22.453125 49.796875 27.5 49.796875 
Q 31.953125 49.796875 35.421875 48.375 
Q 38.90625 46.953125 41.40625 44.703125 
z
" id="Lato-Hairline-63"/>
      <path d="M 9.203125 0 
L 9.203125 72 
L 10.40625 72 
L 10.40625 38.796875 
Q 12.09375 41.296875 14.21875 43.3125 
Q 16.34375 45.34375 18.796875 46.796875 
Q 21.25 48.25 23.953125 49.015625 
Q 26.65625 49.796875 29.5 49.796875 
Q 37.65625 49.796875 41.671875 44.9375 
Q 45.703125 40.09375 45.703125 31.40625 
L 45.703125 0 
L 44.5 0 
L 44.5 31.40625 
Q 44.5 35.5 43.59375 38.71875 
Q 42.703125 41.953125 40.828125 44.203125 
Q 38.953125 46.453125 36.125 47.625 
Q 33.296875 48.796875 29.5 48.796875 
Q 23.75 48.796875 18.890625 45.71875 
Q 14.046875 42.65625 10.40625 37.25 
L 10.40625 0 
z
" id="Lato-Hairline-68"/>
      <path d="M 9.203125 0 
L 9.203125 49 
L 9.5 49 
Q 10.203125 49 10.203125 48.203125 
L 10.34375 38.75 
Q 12.046875 41.25 14.171875 43.296875 
Q 16.296875 45.34375 18.75 46.796875 
Q 21.203125 48.25 23.890625 49.015625 
Q 26.59375 49.796875 29.5 49.796875 
Q 37.65625 49.796875 41.671875 44.9375 
Q 45.703125 40.09375 45.703125 31.40625 
L 45.703125 0 
L 44.5 0 
L 44.5 31.40625 
Q 44.5 35.5 43.59375 38.71875 
Q 42.703125 41.953125 40.828125 44.203125 
Q 38.953125 46.453125 36.125 47.625 
Q 33.296875 48.796875 29.5 48.796875 
Q 23.75 48.796875 18.890625 45.71875 
Q 14.046875 42.65625 10.40625 37.25 
L 10.40625 0 
z
" id="Lato-Hairline-6e"/>
      <path d="M 24.296875 49.796875 
Q 27.546875 49.796875 30.21875 48.9375 
Q 32.90625 48.09375 35 46.59375 
L 46.90625 46.59375 
L 46.90625 46.40625 
Q 46.90625 46.09375 46.65625 45.890625 
Q 46.40625 45.703125 46.09375 45.703125 
L 36.296875 45.5 
Q 38.546875 43.40625 39.71875 40.546875 
Q 40.90625 37.703125 40.90625 34.203125 
Q 40.90625 30.703125 39.71875 27.828125 
Q 38.546875 24.953125 36.375 22.890625 
Q 34.203125 20.84375 31.140625 19.71875 
Q 28.09375 18.59375 24.296875 18.59375 
Q 19.40625 18.59375 15.703125 20.453125 
Q 14.453125 19.75 13.390625 18.84375 
Q 12.34375 17.953125 11.59375 16.953125 
Q 10.84375 15.953125 10.421875 14.890625 
Q 10 13.84375 10 12.90625 
Q 10 10.40625 11.546875 9.078125 
Q 13.09375 7.75 15.640625 7.09375 
Q 18.203125 6.453125 21.453125 6.265625 
Q 24.703125 6.09375 28.09375 5.9375 
Q 31.5 5.796875 34.75 5.4375 
Q 38 5.09375 40.546875 4.0625 
Q 43.09375 3.046875 44.640625 1.171875 
Q 46.203125 -0.703125 46.203125 -3.90625 
Q 46.203125 -6.84375 44.671875 -9.515625 
Q 43.15625 -12.203125 40.375 -14.265625 
Q 37.59375 -16.34375 33.671875 -17.5625 
Q 29.75 -18.796875 24.90625 -18.796875 
Q 19.953125 -18.796875 16.140625 -17.75 
Q 12.34375 -16.703125 9.75 -14.890625 
Q 7.15625 -13.09375 5.828125 -10.6875 
Q 4.5 -8.296875 4.5 -5.59375 
Q 4.5 -1.40625 7.34375 1.625 
Q 10.203125 4.65625 15.046875 6.296875 
Q 12.25 7 10.578125 8.515625 
Q 8.90625 10.046875 8.90625 12.90625 
Q 8.90625 13.90625 9.328125 15 
Q 9.75 16.09375 10.5 17.171875 
Q 11.25 18.25 12.328125 19.21875 
Q 13.40625 20.203125 14.75 20.953125 
Q 11.34375 22.953125 9.515625 26.34375 
Q 7.703125 29.75 7.703125 34.203125 
Q 7.703125 37.65625 8.84375 40.53125 
Q 10 43.40625 12.171875 45.453125 
Q 14.34375 47.5 17.390625 48.640625 
Q 20.453125 49.796875 24.296875 49.796875 
z
M 45.09375 -3.90625 
Q 45.09375 -1.09375 43.71875 0.578125 
Q 42.34375 2.25 40.046875 3.171875 
Q 37.75 4.09375 34.796875 4.4375 
Q 31.84375 4.796875 28.640625 4.96875 
Q 25.453125 5.15625 22.296875 5.296875 
Q 19.15625 5.453125 16.5 5.953125 
Q 14.15625 5.09375 12.15625 4 
Q 10.15625 2.90625 8.71875 1.453125 
Q 7.296875 0 6.5 -1.75 
Q 5.703125 -3.5 5.703125 -5.59375 
Q 5.703125 -8.15625 7.046875 -10.375 
Q 8.40625 -12.59375 10.875 -14.25 
Q 13.34375 -15.90625 16.890625 -16.84375 
Q 20.453125 -17.796875 24.90625 -17.796875 
Q 28.84375 -17.796875 32.5 -16.765625 
Q 36.15625 -15.75 38.953125 -13.921875 
Q 41.75 -12.09375 43.421875 -9.546875 
Q 45.09375 -7 45.09375 -3.90625 
z
M 24.296875 19.59375 
Q 27.953125 19.59375 30.796875 20.640625 
Q 33.65625 21.703125 35.625 23.625 
Q 37.59375 25.546875 38.640625 28.25 
Q 39.703125 30.953125 39.703125 34.203125 
Q 39.703125 37.453125 38.625 40.140625 
Q 37.546875 42.84375 35.546875 44.765625 
Q 33.546875 46.703125 30.6875 47.75 
Q 27.84375 48.796875 24.296875 48.796875 
Q 20.75 48.796875 17.890625 47.75 
Q 15.046875 46.703125 13.046875 44.765625 
Q 11.046875 42.84375 9.96875 40.140625 
Q 8.90625 37.453125 8.90625 34.203125 
Q 8.90625 30.953125 9.96875 28.25 
Q 11.046875 25.546875 13.046875 23.625 
Q 15.046875 21.703125 17.890625 20.640625 
Q 20.75 19.59375 24.296875 19.59375 
z
" id="Lato-Hairline-67"/>
     </defs>
     <g transform="translate(19.104375 187.959375)rotate(-90)scale(0.12 -0.12)">
      <use xlink:href="#Lato-Hairline-50"/>
      <use x="55.853134" xlink:href="#Lato-Hairline-65"/>
      <use x="107.403137" xlink:href="#Lato-Hairline-61"/>
      <use x="154.70314" xlink:href="#Lato-Hairline-6b"/>
      <use x="199.553146" xlink:href="#Lato-Hairline-20"/>
      <use x="228.053146" xlink:href="#Lato-Hairline-66"/>
      <use x="261.253143" xlink:href="#Lato-Hairline-6c"/>
      <use x="282.053146" xlink:href="#Lato-Hairline-6f"/>
      <use x="337.103149" xlink:href="#Lato-Hairline-77"/>
      <use x="411.771912" xlink:href="#Lato-Hairline-20"/>
      <use x="440.271912" xlink:href="#Lato-Hairline-63"/>
      <use x="486.921921" xlink:href="#Lato-Hairline-68"/>
      <use x="541.271927" xlink:href="#Lato-Hairline-61"/>
      <use x="588.57193" xlink:href="#Lato-Hairline-6e"/>
      <use x="642.921936" xlink:href="#Lato-Hairline-67"/>
      <use x="693.121948" xlink:href="#Lato-Hairline-65"/>
     </g>
    </g>
   </g>
   <g id="LineCollection_1">
    <path clip-path="url(#p406e064d46)" d="M -1 242.087662 
L 433 242.087662 
" style="fill:none;stroke:#000000;stroke-width:1.5;"/>
   </g>
   <g id="patch_3">
    <path d="M 54 252 
L 54 34.56 
" style="fill:none;stroke:#000000;stroke-linecap:square;stroke-linejoin:miter;stroke-width:1.25;"/>
   </g>
   <g id="patch_4">
    <path d="M 54 252 
L 388.8 252 
" style="fill:none;stroke:#000000;stroke-linecap:square;stroke-linejoin:miter;stroke-width:1.25;"/>
   </g>
   <g id="PathCollection_13">
    <defs>
     <path d="M 0 7 
C 1.856422 7 3.637059 6.262436 4.949747 4.949747 
C 6.262436 3.637059 7 1.856422 7 0 
C 7 -1.856422 6.262436 -3.637059 4.949747 -4.949747 
C 3.637059 -6.262436 1.856422 -7 0 -7 
C -1.856422 -7 -3.637059 -6.262436 -4.949747 -4.949747 
C -6.262436 -3.637059 -7 -1.856422 -7 0 
C -7 1.856422 -6.262436 3.637059 -4.949747 4.949747 
C -3.637059 6.262436 -1.856422 7 0 7 
z
" id="C0_0_3fc4544c87"/>
    </defs>
    <g clip-path="url(#p406e064d46)">
     <use style="fill:#f88e3b;" x="137.7" xlink:href="#C0_0_3fc4544c87" y="242.087499"/>
    </g>
    <g clip-path="url(#p406e064d46)">
     <use style="fill:#f88e3b;" x="123" xlink:href="#C0_0_3fc4544c87" y="242.087336"/>
    </g>
    <g clip-path="url(#p406e064d46)">
     <use style="fill:#f88e3b;" x="152.4" xlink:href="#C0_0_3fc4544c87" y="242.086848"/>
    </g>
    <g clip-path="url(#p406e064d46)">
     <use style="fill:#39be8f;" x="108.304816" xlink:href="#C0_0_3fc4544c87" y="241.729013"/>
    </g>
    <g clip-path="url(#p406e064d46)">
     <use style="fill:#57bf36;" x="167.093079" xlink:href="#C0_0_3fc4544c87" y="241.657284"/>
    </g>
    <g clip-path="url(#p406e064d46)">
     <use style="fill:#39be8f;" x="181.791619" xlink:href="#C0_0_3fc4544c87" y="241.460027"/>
    </g>
    <g clip-path="url(#p406e064d46)">
     <use style="fill:#3bbbb2;" x="93.612056" xlink:href="#C0_0_3fc4544c87" y="241.289669"/>
    </g>
    <g clip-path="url(#p406e064d46)">
     <use style="fill:#57bf36;" x="78.912203" xlink:href="#C0_0_3fc4544c87" y="241.226906"/>
    </g>
    <g clip-path="url(#p406e064d46)">
     <use style="fill:#57bf36;" x="196.472312" xlink:href="#C0_0_3fc4544c87" y="240.742731"/>
    </g>
    <g clip-path="url(#p406e064d46)">
     <use style="fill:#b09cf6;" x="137.7" xlink:href="#C0_0_3fc4544c87" y="171.254641"/>
    </g>
    <g clip-path="url(#p406e064d46)">
     <use style="fill:#b09cf6;" x="127.26717" xlink:href="#C0_0_3fc4544c87" y="161.391816"/>
    </g>
    <g clip-path="url(#p406e064d46)">
     <use style="fill:#3db8cf;" x="138.477673" xlink:href="#C0_0_3fc4544c87" y="152.335949"/>
    </g>
    <g clip-path="url(#p406e064d46)">
     <use style="fill:#3db8cf;" x="137.7" xlink:href="#C0_0_3fc4544c87" y="44.472501"/>
    </g>
   </g>
   <g id="PathCollection_14">
    <path clip-path="url(#p406e064d46)" d="M 0 288.5 
C 0.132602 288.5 0.25979 288.447317 0.353553 288.353553 
C 0.447317 288.25979 0.5 288.132602 0.5 288 
C 0.5 287.867398 0.447317 287.74021 0.353553 287.646447 
C 0.25979 287.552683 0.132602 287.5 0 287.5 
C -0.132602 287.5 -0.25979 287.552683 -0.353553 287.646447 
C -0.447317 287.74021 -0.5 287.867398 -0.5 288 
C -0.5 288.132602 -0.447317 288.25979 -0.353553 288.353553 
C -0.25979 288.447317 -0.132602 288.5 0 288.5 
z
" style="fill:none;"/>
   </g>
  </g>
 </g>
 <defs>
  <clipPath id="p406e064d46">
   <rect height="217.44" width="334.8" x="54" y="34.56"/>
  </clipPath>
 </defs>
</svg>
