<?xml version="1.0" encoding="utf-8" standalone="no"?>
<!DOCTYPE svg PUBLIC "-//W3C//DTD SVG 1.1//EN"
  "http://www.w3.org/Graphics/SVG/1.1/DTD/svg11.dtd">
<!-- Created with matplotlib (http://matplotlib.org/) -->
<svg height="288pt" version="1.1" viewBox="0 0 432 288" width="432pt" xmlns="http://www.w3.org/2000/svg" xmlns:xlink="http://www.w3.org/1999/xlink">
 <defs>
  <style type="text/css">
*{stroke-linecap:butt;stroke-linejoin:round;}
  </style>
 </defs>
 <g id="figure_1">
  <g id="patch_1">
   <path d="M 0 288 
L 432 288 
L 432 0 
L 0 0 
z
" style="fill:#ffffff;"/>
  </g>
  <g id="axes_1">
   <g id="patch_2">
    <path d="M 54 252 
L 388.8 252 
L 388.8 34.56 
L 54 34.56 
z
" style="fill:#ffffff;"/>
   </g>
   <g id="PathCollection_1"/>
   <g id="PathCollection_2"/>
   <g id="PathCollection_3"/>
   <g id="PathCollection_4"/>
   <g id="PathCollection_5"/>
   <g id="PathCollection_6"/>
   <g id="PathCollection_7"/>
   <g id="PathCollection_8"/>
   <g id="PathCollection_9"/>
   <g id="PathCollection_10"/>
   <g id="PathCollection_11"/>
   <g id="PathCollection_12"/>
   <g id="matplotlib.axis_1">
    <g id="xtick_1">
     <g id="line2d_1">
      <defs>
       <path d="M 0 0 
L 0 6 
" id="mf602f4836e" style="stroke:#000000;stroke-width:1.25;"/>
      </defs>
      <g>
       <use style="stroke:#000000;stroke-width:1.25;" x="137.7" xlink:href="#mf602f4836e" y="252"/>
      </g>
     </g>
     <g id="text_1">
      <!-- Deforestation -->
      <defs>
       <path d="M 72.25 36.15625 
Q 72.25 28.203125 69.59375 21.546875 
Q 66.953125 14.90625 62.140625 10.09375 
Q 57.34375 5.296875 50.59375 2.640625 
Q 43.84375 0 35.59375 0 
L 8.046875 0 
L 8.046875 72.296875 
L 35.59375 72.296875 
Q 43.84375 72.296875 50.59375 69.625 
Q 57.34375 66.953125 62.140625 62.171875 
Q 66.953125 57.40625 69.59375 50.75 
Q 72.25 44.09375 72.25 36.15625 
z
M 58.453125 36.15625 
Q 58.453125 42.09375 56.875 46.8125 
Q 55.296875 51.546875 52.3125 54.8125 
Q 49.34375 58.09375 45.125 59.84375 
Q 40.90625 61.59375 35.59375 61.59375 
L 21.546875 61.59375 
L 21.546875 10.703125 
L 35.59375 10.703125 
Q 40.90625 10.703125 45.125 12.453125 
Q 49.34375 14.203125 52.3125 17.46875 
Q 55.296875 20.75 56.875 25.46875 
Q 58.453125 30.203125 58.453125 36.15625 
z
" id="Lato-Bold-44"/>
       <path d="M 27.953125 52.09375 
Q 32.796875 52.09375 36.890625 50.546875 
Q 41 49 43.953125 46.015625 
Q 46.90625 43.046875 48.578125 38.71875 
Q 50.25 34.40625 50.25 28.84375 
Q 50.25 26.046875 49.640625 25.0625 
Q 49.046875 24.09375 47.34375 24.09375 
L 15.59375 24.09375 
Q 15.90625 20.15625 17 17.28125 
Q 18.09375 14.40625 19.890625 12.53125 
Q 21.703125 10.65625 24.171875 9.71875 
Q 26.65625 8.796875 29.65625 8.796875 
Q 32.65625 8.796875 34.828125 9.5 
Q 37 10.203125 38.625 11.046875 
Q 40.25 11.90625 41.46875 12.59375 
Q 42.703125 13.296875 43.84375 13.296875 
Q 45.40625 13.296875 46.15625 12.15625 
L 49.703125 7.65625 
Q 47.65625 5.25 45.09375 3.625 
Q 42.546875 2 39.765625 1.015625 
Q 37 0.046875 34.125 -0.34375 
Q 31.25 -0.75 28.546875 -0.75 
Q 23.203125 -0.75 18.59375 1.015625 
Q 14 2.796875 10.59375 6.265625 
Q 7.203125 9.75 5.25 14.875 
Q 3.296875 20 3.296875 26.75 
Q 3.296875 32 5 36.625 
Q 6.703125 41.25 9.875 44.671875 
Q 13.046875 48.09375 17.625 50.09375 
Q 22.203125 52.09375 27.953125 52.09375 
z
M 28.203125 43.25 
Q 22.796875 43.25 19.75 40.203125 
Q 16.703125 37.15625 15.84375 31.546875 
L 39.15625 31.546875 
Q 39.15625 33.953125 38.46875 36.078125 
Q 37.796875 38.203125 36.4375 39.796875 
Q 35.09375 41.40625 33.015625 42.328125 
Q 30.953125 43.25 28.203125 43.25 
z
" id="Lato-Bold-65"/>
       <path d="M 9.703125 0 
L 9.703125 42 
L 5.25 42.703125 
Q 3.796875 43 2.921875 43.71875 
Q 2.046875 44.453125 2.046875 45.796875 
L 2.046875 50.84375 
L 9.703125 50.84375 
L 9.703125 54.65625 
Q 9.703125 59.046875 11.015625 62.546875 
Q 12.34375 66.046875 14.8125 68.5 
Q 17.296875 70.953125 20.84375 72.25 
Q 24.40625 73.546875 28.84375 73.546875 
Q 32.40625 73.546875 35.453125 72.59375 
L 35.203125 66.40625 
Q 35.15625 65.703125 34.796875 65.265625 
Q 34.453125 64.84375 33.875 64.625 
Q 33.296875 64.40625 32.546875 64.328125 
Q 31.796875 64.25 30.953125 64.25 
Q 28.75 64.25 27.015625 63.765625 
Q 25.296875 63.296875 24.09375 62.125 
Q 22.90625 60.953125 22.28125 59.015625 
Q 21.65625 57.09375 21.65625 54.25 
L 21.65625 50.84375 
L 35 50.84375 
L 35 42.046875 
L 22.046875 42.046875 
L 22.046875 0 
z
" id="Lato-Bold-66"/>
       <path d="M 28.796875 52.09375 
Q 34.5 52.09375 39.171875 50.25 
Q 43.84375 48.40625 47.171875 45 
Q 50.5 41.59375 52.296875 36.6875 
Q 54.09375 31.796875 54.09375 25.75 
Q 54.09375 19.65625 52.296875 14.75 
Q 50.5 9.84375 47.171875 6.390625 
Q 43.84375 2.953125 39.171875 1.09375 
Q 34.5 -0.75 28.796875 -0.75 
Q 23.046875 -0.75 18.34375 1.09375 
Q 13.65625 2.953125 10.328125 6.390625 
Q 7 9.84375 5.171875 14.75 
Q 3.34375 19.65625 3.34375 25.75 
Q 3.34375 31.796875 5.171875 36.6875 
Q 7 41.59375 10.328125 45 
Q 13.65625 48.40625 18.34375 50.25 
Q 23.046875 52.09375 28.796875 52.09375 
z
M 28.796875 8.75 
Q 35.203125 8.75 38.265625 13.046875 
Q 41.34375 17.34375 41.34375 25.65625 
Q 41.34375 33.953125 38.265625 38.296875 
Q 35.203125 42.65625 28.796875 42.65625 
Q 22.296875 42.65625 19.171875 38.28125 
Q 16.046875 33.90625 16.046875 25.65625 
Q 16.046875 17.40625 19.171875 13.078125 
Q 22.296875 8.75 28.796875 8.75 
z
" id="Lato-Bold-6f"/>
       <path d="M 6.09375 0 
L 6.09375 51.296875 
L 13.34375 51.296875 
Q 15.25 51.296875 16 50.625 
Q 16.75 49.953125 17 48.203125 
L 17.703125 42.40625 
Q 20.15625 47 23.453125 49.625 
Q 26.75 52.25 31.25 52.25 
Q 34.796875 52.25 36.953125 50.703125 
L 36.15625 41.453125 
Q 35.90625 40.546875 35.421875 40.171875 
Q 34.953125 39.796875 34.15625 39.796875 
Q 33.40625 39.796875 31.921875 40.046875 
Q 30.453125 40.296875 29.046875 40.296875 
Q 27 40.296875 25.390625 39.6875 
Q 23.796875 39.09375 22.515625 37.96875 
Q 21.25 36.84375 20.265625 35.25 
Q 19.296875 33.65625 18.453125 31.59375 
L 18.453125 0 
z
" id="Lato-Bold-72"/>
       <path d="M 37.40625 41.296875 
Q 36.90625 40.5 36.34375 40.171875 
Q 35.796875 39.84375 34.953125 39.84375 
Q 34.046875 39.84375 33.015625 40.34375 
Q 32 40.84375 30.640625 41.46875 
Q 29.296875 42.09375 27.5625 42.59375 
Q 25.84375 43.09375 23.5 43.09375 
Q 19.84375 43.09375 17.765625 41.546875 
Q 15.703125 40 15.703125 37.5 
Q 15.703125 35.84375 16.765625 34.71875 
Q 17.84375 33.59375 19.625 32.75 
Q 21.40625 31.90625 23.65625 31.21875 
Q 25.90625 30.546875 28.21875 29.75 
Q 30.546875 28.953125 32.796875 27.921875 
Q 35.046875 26.90625 36.8125 25.328125 
Q 38.59375 23.75 39.671875 21.546875 
Q 40.75 19.34375 40.75 16.25 
Q 40.75 12.546875 39.421875 9.421875 
Q 38.09375 6.296875 35.5 4.015625 
Q 32.90625 1.75 29.078125 0.46875 
Q 25.25 -0.796875 20.25 -0.796875 
Q 17.59375 -0.796875 15.0625 -0.3125 
Q 12.546875 0.15625 10.21875 1 
Q 7.90625 1.84375 5.921875 3 
Q 3.953125 4.15625 2.453125 5.5 
L 5.296875 10.203125 
Q 5.84375 11.046875 6.59375 11.5 
Q 7.34375 11.953125 8.5 11.953125 
Q 9.65625 11.953125 10.671875 11.296875 
Q 11.703125 10.65625 13.046875 9.90625 
Q 14.40625 9.15625 16.21875 8.5 
Q 18.046875 7.84375 20.84375 7.84375 
Q 23.046875 7.84375 24.625 8.375 
Q 26.203125 8.90625 27.21875 9.75 
Q 28.25 10.59375 28.71875 11.71875 
Q 29.203125 12.84375 29.203125 14.046875 
Q 29.203125 15.84375 28.125 17 
Q 27.046875 18.15625 25.265625 19 
Q 23.5 19.84375 21.21875 20.515625 
Q 18.953125 21.203125 16.578125 22 
Q 14.203125 22.796875 11.921875 23.875 
Q 9.65625 24.953125 7.875 26.59375 
Q 6.09375 28.25 5.015625 30.640625 
Q 3.953125 33.046875 3.953125 36.453125 
Q 3.953125 39.59375 5.203125 42.4375 
Q 6.453125 45.296875 8.875 47.421875 
Q 11.296875 49.546875 14.921875 50.8125 
Q 18.546875 52.09375 23.296875 52.09375 
Q 28.59375 52.09375 32.9375 50.34375 
Q 37.296875 48.59375 40.203125 45.75 
z
" id="Lato-Bold-73"/>
       <path d="M 23.203125 -0.796875 
Q 16.5 -0.796875 12.921875 2.96875 
Q 9.34375 6.75 9.34375 13.40625 
L 9.34375 42.046875 
L 4.09375 42.046875 
Q 3.09375 42.046875 2.390625 42.6875 
Q 1.703125 43.34375 1.703125 44.65625 
L 1.703125 49.546875 
L 9.953125 50.90625 
L 12.546875 64.90625 
Q 12.796875 65.90625 13.5 66.453125 
Q 14.203125 67 15.296875 67 
L 21.703125 67 
L 21.703125 50.84375 
L 35.40625 50.84375 
L 35.40625 42.046875 
L 21.703125 42.046875 
L 21.703125 14.25 
Q 21.703125 11.84375 22.875 10.5 
Q 24.046875 9.15625 26.09375 9.15625 
Q 27.25 9.15625 28.015625 9.421875 
Q 28.796875 9.703125 29.375 10 
Q 29.953125 10.296875 30.390625 10.5625 
Q 30.84375 10.84375 31.296875 10.84375 
Q 31.84375 10.84375 32.1875 10.5625 
Q 32.546875 10.296875 32.953125 9.75 
L 36.65625 3.75 
Q 33.953125 1.5 30.453125 0.34375 
Q 26.953125 -0.796875 23.203125 -0.796875 
z
" id="Lato-Bold-74"/>
       <path d="M 39.65625 0 
Q 37.90625 0 36.953125 0.515625 
Q 36 1.046875 35.453125 2.65625 
L 34.34375 6.296875 
Q 32.40625 4.546875 30.546875 3.21875 
Q 28.703125 1.90625 26.703125 1 
Q 24.703125 0.09375 22.421875 -0.34375 
Q 20.15625 -0.796875 17.40625 -0.796875 
Q 14.15625 -0.796875 11.40625 0.078125 
Q 8.65625 0.953125 6.65625 2.703125 
Q 4.65625 4.453125 3.546875 7.046875 
Q 2.453125 9.65625 2.453125 13.09375 
Q 2.453125 16 3.96875 18.828125 
Q 5.5 21.65625 9.046875 23.921875 
Q 12.59375 26.203125 18.5 27.703125 
Q 24.40625 29.203125 33.203125 29.40625 
L 33.203125 32.40625 
Q 33.203125 37.546875 31 40.015625 
Q 28.796875 42.5 24.65625 42.5 
Q 21.65625 42.5 19.671875 41.796875 
Q 17.703125 41.09375 16.203125 40.21875 
Q 14.703125 39.34375 13.46875 38.640625 
Q 12.25 37.953125 10.75 37.953125 
Q 9.453125 37.953125 8.546875 38.625 
Q 7.65625 39.296875 7.09375 40.203125 
L 4.90625 44.15625 
Q 13.75 52.25 26.203125 52.25 
Q 30.703125 52.25 34.25 50.765625 
Q 37.796875 49.296875 40.25 46.671875 
Q 42.703125 44.046875 43.96875 40.390625 
Q 45.25 36.75 45.25 32.40625 
L 45.25 0 
z
M 21.203125 7.703125 
Q 25 7.703125 27.765625 9.078125 
Q 30.546875 10.453125 33.203125 13.25 
L 33.203125 21.90625 
Q 27.796875 21.65625 24.171875 20.96875 
Q 20.546875 20.296875 18.34375 19.25 
Q 16.15625 18.203125 15.203125 16.796875 
Q 14.25 15.40625 14.25 13.75 
Q 14.25 10.5 16.171875 9.09375 
Q 18.09375 7.703125 21.203125 7.703125 
z
" id="Lato-Bold-61"/>
       <path d="M 18.90625 51.296875 
L 18.90625 0 
L 6.5 0 
L 6.5 51.296875 
z
M 20.59375 66.25 
Q 20.59375 64.65625 19.9375 63.25 
Q 19.296875 61.84375 18.21875 60.796875 
Q 17.15625 59.75 15.703125 59.125 
Q 14.25 58.5 12.59375 58.5 
Q 11 58.5 9.578125 59.125 
Q 8.15625 59.75 7.09375 60.796875 
Q 6.046875 61.84375 5.421875 63.25 
Q 4.796875 64.65625 4.796875 66.25 
Q 4.796875 67.90625 5.421875 69.34375 
Q 6.046875 70.796875 7.09375 71.84375 
Q 8.15625 72.90625 9.578125 73.53125 
Q 11 74.15625 12.59375 74.15625 
Q 14.25 74.15625 15.703125 73.53125 
Q 17.15625 72.90625 18.21875 71.84375 
Q 19.296875 70.796875 19.9375 69.34375 
Q 20.59375 67.90625 20.59375 66.25 
z
" id="Lato-Bold-69"/>
       <path d="M 6.09375 0 
L 6.09375 51.296875 
L 13.65625 51.296875 
Q 16.046875 51.296875 16.796875 49.046875 
L 17.65625 45 
Q 19.203125 46.59375 20.921875 47.890625 
Q 22.65625 49.203125 24.578125 50.140625 
Q 26.5 51.09375 28.703125 51.59375 
Q 30.90625 52.09375 33.5 52.09375 
Q 37.703125 52.09375 40.953125 50.671875 
Q 44.203125 49.25 46.375 46.671875 
Q 48.546875 44.09375 49.671875 40.515625 
Q 50.796875 36.953125 50.796875 32.65625 
L 50.796875 0 
L 38.453125 0 
L 38.453125 32.65625 
Q 38.453125 37.34375 36.296875 39.921875 
Q 34.15625 42.5 29.75 42.5 
Q 26.546875 42.5 23.75 41.046875 
Q 20.953125 39.59375 18.453125 37.09375 
L 18.453125 0 
z
" id="Lato-Bold-6e"/>
      </defs>
      <g transform="translate(103.501172 269.672656)scale(0.11 -0.11)">
       <use xlink:href="#Lato-Bold-44"/>
       <use x="76.050018" xlink:href="#Lato-Bold-65"/>
       <use x="129.450027" xlink:href="#Lato-Bold-66"/>
       <use x="165.284409" xlink:href="#Lato-Bold-6f"/>
       <use x="222.734421" xlink:href="#Lato-Bold-72"/>
       <use x="260.018799" xlink:href="#Lato-Bold-65"/>
       <use x="313.418808" xlink:href="#Lato-Bold-73"/>
       <use x="357.368805" xlink:href="#Lato-Bold-74"/>
       <use x="394.568802" xlink:href="#Lato-Bold-61"/>
       <use x="445.318802" xlink:href="#Lato-Bold-74"/>
       <use x="482.518799" xlink:href="#Lato-Bold-69"/>
       <use x="507.918793" xlink:href="#Lato-Bold-6f"/>
       <use x="565.368805" xlink:href="#Lato-Bold-6e"/>
      </g>
     </g>
    </g>
    <g id="xtick_2">
     <g id="line2d_2">
      <g>
       <use style="stroke:#000000;stroke-width:1.25;" x="305.1" xlink:href="#mf602f4836e" y="252"/>
      </g>
     </g>
     <g id="text_2">
      <!-- Afforestation -->
      <defs>
       <path d="M 70 0 
L 59.59375 0 
Q 57.84375 0 56.75 0.875 
Q 55.65625 1.75 55.09375 3.046875 
L 49.703125 17.796875 
L 19.75 17.796875 
L 14.34375 3.046875 
Q 13.953125 1.90625 12.796875 0.953125 
Q 11.65625 0 9.953125 0 
L -0.546875 0 
L 27.90625 72.296875 
L 41.59375 72.296875 
z
M 23.203125 27.296875 
L 46.25 27.296875 
L 37.453125 51.34375 
Q 36.796875 52.953125 36.09375 55.125 
Q 35.40625 57.296875 34.703125 59.84375 
Q 34 57.296875 33.328125 55.09375 
Q 32.65625 52.90625 32 51.25 
z
" id="Lato-Bold-41"/>
      </defs>
      <g transform="translate(272.231484 269.672656)scale(0.11 -0.11)">
       <use xlink:href="#Lato-Bold-41"/>
       <use x="69.418762" xlink:href="#Lato-Bold-66"/>
       <use x="105.268768" xlink:href="#Lato-Bold-66"/>
       <use x="141.103149" xlink:href="#Lato-Bold-6f"/>
       <use x="198.553162" xlink:href="#Lato-Bold-72"/>
       <use x="235.83754" xlink:href="#Lato-Bold-65"/>
       <use x="289.237549" xlink:href="#Lato-Bold-73"/>
       <use x="333.187546" xlink:href="#Lato-Bold-74"/>
       <use x="370.387543" xlink:href="#Lato-Bold-61"/>
       <use x="421.137543" xlink:href="#Lato-Bold-74"/>
       <use x="458.33754" xlink:href="#Lato-Bold-69"/>
       <use x="483.737534" xlink:href="#Lato-Bold-6f"/>
       <use x="541.187546" xlink:href="#Lato-Bold-6e"/>
      </g>
     </g>
    </g>
   </g>
   <g id="matplotlib.axis_2">
    <g id="ytick_1">
     <g id="line2d_3">
      <defs>
       <path d="M 0 0 
L -6 0 
" id="m8a73ae93e9" style="stroke:#000000;stroke-width:1.25;"/>
      </defs>
      <g>
       <use style="stroke:#000000;stroke-width:1.25;" x="54" xlink:href="#m8a73ae93e9" y="234.661251"/>
      </g>
     </g>
     <g id="text_3">
      <!-- 0 -->
      <defs>
       <path d="M 55.5 36.15625 
Q 55.5 26.703125 53.46875 19.71875 
Q 51.453125 12.75 47.875 8.203125 
Q 44.296875 3.65625 39.421875 1.421875 
Q 34.546875 -0.796875 28.90625 -0.796875 
Q 23.25 -0.796875 18.421875 1.421875 
Q 13.59375 3.65625 10.046875 8.203125 
Q 6.5 12.75 4.5 19.71875 
Q 2.5 26.703125 2.5 36.15625 
Q 2.5 45.65625 4.5 52.59375 
Q 6.5 59.546875 10.046875 64.09375 
Q 13.59375 68.65625 18.421875 70.875 
Q 23.25 73.09375 28.90625 73.09375 
Q 34.546875 73.09375 39.421875 70.875 
Q 44.296875 68.65625 47.875 64.09375 
Q 51.453125 59.546875 53.46875 52.59375 
Q 55.5 45.65625 55.5 36.15625 
z
M 42.75 36.15625 
Q 42.75 44 41.59375 49.140625 
Q 40.453125 54.296875 38.515625 57.34375 
Q 36.59375 60.40625 34.09375 61.625 
Q 31.59375 62.84375 28.90625 62.84375 
Q 26.25 62.84375 23.765625 61.625 
Q 21.296875 60.40625 19.390625 57.34375 
Q 17.5 54.296875 16.375 49.140625 
Q 15.25 44 15.25 36.15625 
Q 15.25 28.296875 16.375 23.140625 
Q 17.5 18 19.390625 14.953125 
Q 21.296875 11.90625 23.765625 10.671875 
Q 26.25 9.453125 28.90625 9.453125 
Q 31.59375 9.453125 34.09375 10.671875 
Q 36.59375 11.90625 38.515625 14.953125 
Q 40.453125 18 41.59375 23.140625 
Q 42.75 28.296875 42.75 36.15625 
z
" id="Lato-Bold-30"/>
      </defs>
      <g transform="translate(38.12 238.747579)scale(0.11 -0.11)">
       <use xlink:href="#Lato-Bold-30"/>
      </g>
     </g>
    </g>
    <g id="ytick_2">
     <g id="line2d_4">
      <g>
       <use style="stroke:#000000;stroke-width:1.25;" x="54" xlink:href="#m8a73ae93e9" y="208.096934"/>
      </g>
     </g>
     <g id="text_4">
      <!-- 50 -->
      <defs>
       <path d="M 49.953125 67.046875 
Q 49.953125 64.40625 48.296875 62.75 
Q 46.65625 61.09375 42.703125 61.09375 
L 22.84375 61.09375 
L 20.25 46 
Q 25.15625 47 29.15625 47 
Q 34.84375 47 39.1875 45.296875 
Q 43.546875 43.59375 46.5 40.59375 
Q 49.453125 37.59375 50.953125 33.5625 
Q 52.453125 29.546875 52.453125 24.90625 
Q 52.453125 19.15625 50.421875 14.40625 
Q 48.40625 9.65625 44.796875 6.28125 
Q 41.203125 2.90625 36.265625 1.046875 
Q 31.34375 -0.796875 25.546875 -0.796875 
Q 22.15625 -0.796875 19.09375 -0.09375 
Q 16.046875 0.59375 13.375 1.765625 
Q 10.703125 2.953125 8.421875 4.46875 
Q 6.15625 6 4.34375 7.703125 
L 8.15625 12.953125 
Q 9.34375 14.65625 11.296875 14.65625 
Q 12.546875 14.65625 13.84375 13.84375 
Q 15.15625 13.046875 16.828125 12.09375 
Q 18.5 11.15625 20.765625 10.34375 
Q 23.046875 9.546875 26.25 9.546875 
Q 29.65625 9.546875 32.25 10.640625 
Q 34.84375 11.75 36.5625 13.71875 
Q 38.296875 15.703125 39.171875 18.421875 
Q 40.046875 21.15625 40.046875 24.34375 
Q 40.046875 30.25 36.625 33.578125 
Q 33.203125 36.90625 26.5 36.90625 
Q 21.34375 36.90625 15.953125 35 
L 8.25 37.203125 
L 14.25 72.296875 
L 49.953125 72.296875 
z
" id="Lato-Bold-35"/>
      </defs>
      <g transform="translate(31.74 212.183262)scale(0.11 -0.11)">
       <use xlink:href="#Lato-Bold-35"/>
       <use x="58" xlink:href="#Lato-Bold-30"/>
      </g>
     </g>
    </g>
    <g id="ytick_3">
     <g id="line2d_5">
      <g>
       <use style="stroke:#000000;stroke-width:1.25;" x="54" xlink:href="#m8a73ae93e9" y="181.532617"/>
      </g>
     </g>
     <g id="text_5">
      <!-- 100 -->
      <defs>
       <path d="M 11.75 9.25 
L 26.40625 9.25 
L 26.40625 51.40625 
Q 26.40625 53.84375 26.546875 56.546875 
L 16.15625 47.84375 
Q 15.25 47.15625 14.375 46.96875 
Q 13.5 46.796875 12.71875 46.9375 
Q 11.953125 47.09375 11.34375 47.46875 
Q 10.75 47.84375 10.453125 48.296875 
L 6.546875 53.65625 
L 28.59375 72.40625 
L 38.75 72.40625 
L 38.75 9.25 
L 51.75 9.25 
L 51.75 0 
L 11.75 0 
z
" id="Lato-Bold-31"/>
      </defs>
      <g transform="translate(25.36 185.618945)scale(0.11 -0.11)">
       <use xlink:href="#Lato-Bold-31"/>
       <use x="58" xlink:href="#Lato-Bold-30"/>
       <use x="116" xlink:href="#Lato-Bold-30"/>
      </g>
     </g>
    </g>
    <g id="ytick_4">
     <g id="line2d_6">
      <g>
       <use style="stroke:#000000;stroke-width:1.25;" x="54" xlink:href="#m8a73ae93e9" y="154.9683"/>
      </g>
     </g>
     <g id="text_6">
      <!-- 150 -->
      <g transform="translate(25.36 159.054628)scale(0.11 -0.11)">
       <use xlink:href="#Lato-Bold-31"/>
       <use x="58" xlink:href="#Lato-Bold-35"/>
       <use x="116" xlink:href="#Lato-Bold-30"/>
      </g>
     </g>
    </g>
    <g id="ytick_5">
     <g id="line2d_7">
      <g>
       <use style="stroke:#000000;stroke-width:1.25;" x="54" xlink:href="#m8a73ae93e9" y="128.403982"/>
      </g>
     </g>
     <g id="text_7">
      <!-- 200 -->
      <defs>
       <path d="M 29.703125 73.09375 
Q 34.703125 73.09375 38.84375 71.625 
Q 43 70.15625 45.953125 67.453125 
Q 48.90625 64.75 50.546875 60.953125 
Q 52.203125 57.15625 52.203125 52.5 
Q 52.203125 48.5 51.015625 45.09375 
Q 49.84375 41.703125 47.875 38.59375 
Q 45.90625 35.5 43.25 32.59375 
Q 40.59375 29.703125 37.703125 26.703125 
L 21.34375 10.046875 
Q 23.75 10.75 26.078125 11.125 
Q 28.40625 11.5 30.5 11.5 
L 49.046875 11.5 
Q 51.046875 11.5 52.21875 10.375 
Q 53.40625 9.25 53.40625 7.40625 
L 53.40625 0 
L 3.796875 0 
L 3.796875 4.09375 
Q 3.796875 5.34375 4.3125 6.71875 
Q 4.84375 8.09375 6 9.203125 
L 27.953125 31.203125 
Q 30.703125 34 32.875 36.546875 
Q 35.046875 39.09375 36.5 41.59375 
Q 37.953125 44.09375 38.71875 46.671875 
Q 39.5 49.25 39.5 52.09375 
Q 39.5 54.703125 38.75 56.671875 
Q 38 58.65625 36.625 60 
Q 35.25 61.34375 33.328125 62.015625 
Q 31.40625 62.703125 29 62.703125 
Q 26.796875 62.703125 24.921875 62.078125 
Q 23.046875 61.453125 21.59375 60.328125 
Q 20.15625 59.203125 19.15625 57.703125 
Q 18.15625 56.203125 17.65625 54.40625 
Q 16.796875 52.09375 15.4375 51.34375 
Q 14.09375 50.59375 11.546875 51 
L 5.046875 52.15625 
Q 5.796875 57.34375 7.9375 61.265625 
Q 10.09375 65.203125 13.3125 67.828125 
Q 16.546875 70.453125 20.71875 71.765625 
Q 24.90625 73.09375 29.703125 73.09375 
z
" id="Lato-Bold-32"/>
      </defs>
      <g transform="translate(25.36 132.49031)scale(0.11 -0.11)">
       <use xlink:href="#Lato-Bold-32"/>
       <use x="58" xlink:href="#Lato-Bold-30"/>
       <use x="116" xlink:href="#Lato-Bold-30"/>
      </g>
     </g>
    </g>
    <g id="ytick_6">
     <g id="line2d_8">
      <g>
       <use style="stroke:#000000;stroke-width:1.25;" x="54" xlink:href="#m8a73ae93e9" y="101.839665"/>
      </g>
     </g>
     <g id="text_8">
      <!-- 250 -->
      <g transform="translate(25.36 105.925993)scale(0.11 -0.11)">
       <use xlink:href="#Lato-Bold-32"/>
       <use x="58" xlink:href="#Lato-Bold-35"/>
       <use x="116" xlink:href="#Lato-Bold-30"/>
      </g>
     </g>
    </g>
    <g id="ytick_7">
     <g id="line2d_9">
      <g>
       <use style="stroke:#000000;stroke-width:1.25;" x="54" xlink:href="#m8a73ae93e9" y="75.275348"/>
      </g>
     </g>
     <g id="text_9">
      <!-- 300 -->
      <defs>
       <path d="M 30.046875 73.09375 
Q 35.046875 73.09375 39.0625 71.671875 
Q 43.09375 70.25 45.9375 67.71875 
Q 48.796875 65.203125 50.3125 61.796875 
Q 51.84375 58.40625 51.84375 54.453125 
Q 51.84375 51 51.0625 48.375 
Q 50.296875 45.75 48.8125 43.796875 
Q 47.34375 41.84375 45.21875 40.5 
Q 43.09375 39.15625 40.40625 38.25 
Q 46.90625 36.203125 50.09375 32 
Q 53.296875 27.796875 53.296875 21.453125 
Q 53.296875 16.046875 51.296875 11.890625 
Q 49.296875 7.75 45.890625 4.921875 
Q 42.5 2.09375 38.015625 0.640625 
Q 33.546875 -0.796875 28.546875 -0.796875 
Q 23.09375 -0.796875 19.046875 0.453125 
Q 15 1.703125 12 4.140625 
Q 9 6.59375 6.890625 10.140625 
Q 4.796875 13.703125 3.296875 18.34375 
L 8.75 20.59375 
Q 10.90625 21.5 12.78125 21.078125 
Q 14.65625 20.65625 15.5 19.046875 
Q 16.40625 17.296875 17.46875 15.59375 
Q 18.546875 13.90625 20.046875 12.578125 
Q 21.546875 11.25 23.5625 10.421875 
Q 25.59375 9.59375 28.40625 9.59375 
Q 31.546875 9.59375 33.890625 10.625 
Q 36.25 11.65625 37.828125 13.296875 
Q 39.40625 14.953125 40.171875 16.96875 
Q 40.953125 19 40.953125 21.046875 
Q 40.953125 23.65625 40.390625 25.78125 
Q 39.84375 27.90625 38.09375 29.40625 
Q 36.34375 30.90625 33.0625 31.75 
Q 29.796875 32.59375 24.296875 32.59375 
L 24.296875 41.40625 
Q 28.84375 41.453125 31.84375 42.25 
Q 34.84375 43.046875 36.625 44.46875 
Q 38.40625 45.90625 39.09375 47.90625 
Q 39.796875 49.90625 39.796875 52.296875 
Q 39.796875 57.40625 36.9375 60.046875 
Q 34.09375 62.703125 29.34375 62.703125 
Q 27.15625 62.703125 25.296875 62.078125 
Q 23.453125 61.453125 21.96875 60.328125 
Q 20.5 59.203125 19.5 57.703125 
Q 18.5 56.203125 18 54.40625 
Q 17.15625 52.09375 15.78125 51.34375 
Q 14.40625 50.59375 11.90625 51 
L 5.40625 52.15625 
Q 6.15625 57.34375 8.296875 61.265625 
Q 10.453125 65.203125 13.671875 67.828125 
Q 16.90625 70.453125 21.078125 71.765625 
Q 25.25 73.09375 30.046875 73.09375 
z
" id="Lato-Bold-33"/>
      </defs>
      <g transform="translate(25.36 79.361676)scale(0.11 -0.11)">
       <use xlink:href="#Lato-Bold-33"/>
       <use x="58" xlink:href="#Lato-Bold-30"/>
       <use x="116" xlink:href="#Lato-Bold-30"/>
      </g>
     </g>
    </g>
    <g id="ytick_8">
     <g id="line2d_10">
      <g>
       <use style="stroke:#000000;stroke-width:1.25;" x="54" xlink:href="#m8a73ae93e9" y="48.711031"/>
      </g>
     </g>
     <g id="text_10">
      <!-- 350 -->
      <g transform="translate(25.36 52.797359)scale(0.11 -0.11)">
       <use xlink:href="#Lato-Bold-33"/>
       <use x="58" xlink:href="#Lato-Bold-35"/>
       <use x="116" xlink:href="#Lato-Bold-30"/>
      </g>
     </g>
    </g>
    <g id="text_11">
     <!-- Annual flow change -->
     <defs>
      <path d="M 67.40625 0 
L 59.90625 0 
Q 58.59375 0 57.796875 0.640625 
Q 57 1.296875 56.59375 2.296875 
L 49.90625 19.59375 
L 17.75 19.59375 
L 11.046875 2.296875 
Q 10.75 1.40625 9.890625 0.703125 
Q 9.046875 0 7.796875 0 
L 0.296875 0 
L 28.953125 71.65625 
L 38.75 71.65625 
z
M 20.453125 26.59375 
L 47.203125 26.59375 
L 35.953125 55.75 
Q 35.40625 57.046875 34.875 58.75 
Q 34.34375 60.453125 33.796875 62.40625 
Q 33.296875 60.453125 32.765625 58.71875 
Q 32.25 57 31.703125 55.703125 
z
" id="Lato-Regular-41"/>
      <path d="M 7.046875 0 
L 7.046875 50.65625 
L 12.40625 50.65625 
Q 14.296875 50.65625 14.75 48.796875 
L 15.453125 43.296875 
Q 18.75 46.953125 22.84375 49.203125 
Q 26.953125 51.453125 32.296875 51.453125 
Q 36.453125 51.453125 39.625 50.078125 
Q 42.796875 48.703125 44.921875 46.171875 
Q 47.046875 43.65625 48.140625 40.09375 
Q 49.25 36.546875 49.25 32.25 
L 49.25 0 
L 40.296875 0 
L 40.296875 32.25 
Q 40.296875 38 37.671875 41.171875 
Q 35.046875 44.34375 29.703125 44.34375 
Q 25.703125 44.34375 22.265625 42.4375 
Q 18.84375 40.546875 16 37.296875 
L 16 0 
z
" id="Lato-Regular-6e"/>
      <path d="M 15.453125 50.65625 
L 15.453125 18.34375 
Q 15.453125 12.59375 18.078125 9.4375 
Q 20.703125 6.296875 26.09375 6.296875 
Q 30 6.296875 33.453125 8.140625 
Q 36.90625 10 39.796875 13.296875 
L 39.796875 50.65625 
L 48.703125 50.65625 
L 48.703125 0 
L 43.40625 0 
Q 41.5 0 41 1.84375 
L 40.296875 7.296875 
Q 37 3.65625 32.890625 1.421875 
Q 28.796875 -0.796875 23.5 -0.796875 
Q 19.34375 -0.796875 16.171875 0.578125 
Q 13 1.953125 10.84375 4.453125 
Q 8.703125 6.953125 7.625 10.5 
Q 6.546875 14.046875 6.546875 18.34375 
L 6.546875 50.65625 
z
" id="Lato-Regular-75"/>
      <path d="M 39.25 0 
Q 37.953125 0 37.25 0.421875 
Q 36.546875 0.84375 36.15625 2.09375 
L 35.15625 6.84375 
Q 33.15625 5.046875 31.21875 3.625 
Q 29.296875 2.203125 27.21875 1.21875 
Q 25.15625 0.25 22.78125 -0.265625 
Q 20.40625 -0.796875 17.5 -0.796875 
Q 14.546875 -0.796875 11.9375 0.015625 
Q 9.34375 0.84375 7.421875 2.5 
Q 5.5 4.15625 4.375 6.671875 
Q 3.25 9.203125 3.25 12.65625 
Q 3.25 15.65625 4.890625 18.421875 
Q 6.546875 21.203125 10.25 23.34375 
Q 13.953125 25.5 19.890625 26.875 
Q 25.84375 28.25 34.5 28.453125 
L 34.5 32.40625 
Q 34.5 38.296875 31.953125 41.3125 
Q 29.40625 44.34375 24.5 44.34375 
Q 21.203125 44.34375 18.96875 43.515625 
Q 16.75 42.703125 15.125 41.671875 
Q 13.5 40.65625 12.328125 39.828125 
Q 11.15625 39 10 39 
Q 9.09375 39 8.4375 39.46875 
Q 7.796875 39.953125 7.34375 40.65625 
L 5.75 43.5 
Q 9.953125 47.546875 14.796875 49.546875 
Q 19.65625 51.546875 25.546875 51.546875 
Q 29.796875 51.546875 33.09375 50.140625 
Q 36.40625 48.75 38.65625 46.25 
Q 40.90625 43.75 42.046875 40.203125 
Q 43.203125 36.65625 43.203125 32.40625 
L 43.203125 0 
z
M 20.15625 5.453125 
Q 22.5 5.453125 24.453125 5.921875 
Q 26.40625 6.40625 28.125 7.28125 
Q 29.84375 8.15625 31.421875 9.421875 
Q 33 10.703125 34.5 12.296875 
L 34.5 22.796875 
Q 28.34375 22.59375 24.015625 21.8125 
Q 19.703125 21.046875 16.96875 19.796875 
Q 14.25 18.546875 13.015625 16.84375 
Q 11.796875 15.15625 11.796875 13.046875 
Q 11.796875 11.046875 12.4375 9.59375 
Q 13.09375 8.15625 14.21875 7.21875 
Q 15.34375 6.296875 16.875 5.875 
Q 18.40625 5.453125 20.15625 5.453125 
z
" id="Lato-Regular-61"/>
      <path d="M 16.25 73.65625 
L 16.25 0 
L 7.34375 0 
L 7.34375 73.65625 
z
" id="Lato-Regular-6c"/>
      <path id="Lato-Regular-20"/>
      <path d="M 10.34375 0 
L 10.34375 43.046875 
L 4.75 43.703125 
Q 3.703125 43.953125 3.015625 44.46875 
Q 2.34375 45 2.34375 46 
L 2.34375 49.65625 
L 10.34375 49.65625 
L 10.34375 54.546875 
Q 10.34375 58.90625 11.5625 62.28125 
Q 12.796875 65.65625 15.0625 67.96875 
Q 17.34375 70.296875 20.546875 71.5 
Q 23.75 72.703125 27.75 72.703125 
Q 31.15625 72.703125 34 71.703125 
L 33.796875 67.25 
Q 33.703125 66.046875 32.46875 65.9375 
Q 31.25 65.84375 29.203125 65.84375 
Q 26.90625 65.84375 25.03125 65.25 
Q 23.15625 64.65625 21.796875 63.296875 
Q 20.453125 61.953125 19.71875 59.75 
Q 19 57.546875 19 54.296875 
L 19 49.65625 
L 33.59375 49.65625 
L 33.59375 43.203125 
L 19.296875 43.203125 
L 19.296875 0 
z
" id="Lato-Regular-66"/>
      <path d="M 28.40625 51.453125 
Q 33.953125 51.453125 38.390625 49.59375 
Q 42.84375 47.75 46 44.34375 
Q 49.15625 40.953125 50.828125 36.125 
Q 52.5 31.296875 52.5 25.34375 
Q 52.5 19.34375 50.828125 14.546875 
Q 49.15625 9.75 46 6.34375 
Q 42.84375 2.953125 38.390625 1.125 
Q 33.953125 -0.703125 28.40625 -0.703125 
Q 22.796875 -0.703125 18.3125 1.125 
Q 13.84375 2.953125 10.6875 6.34375 
Q 7.546875 9.75 5.875 14.546875 
Q 4.203125 19.34375 4.203125 25.34375 
Q 4.203125 31.296875 5.875 36.125 
Q 7.546875 40.953125 10.6875 44.34375 
Q 13.84375 47.75 18.3125 49.59375 
Q 22.796875 51.453125 28.40625 51.453125 
z
M 28.40625 6.25 
Q 35.90625 6.25 39.59375 11.265625 
Q 43.296875 16.296875 43.296875 25.296875 
Q 43.296875 34.34375 39.59375 39.390625 
Q 35.90625 44.453125 28.40625 44.453125 
Q 24.59375 44.453125 21.765625 43.140625 
Q 18.953125 41.84375 17.078125 39.390625 
Q 15.203125 36.953125 14.265625 33.375 
Q 13.34375 29.796875 13.34375 25.296875 
Q 13.34375 16.296875 17.0625 11.265625 
Q 20.796875 6.25 28.40625 6.25 
z
" id="Lato-Regular-6f"/>
      <path d="M 1.65625 50.65625 
L 8.65625 50.65625 
Q 9.703125 50.65625 10.421875 50.09375 
Q 11.15625 49.546875 11.40625 48.796875 
L 21.09375 16.203125 
Q 21.5 14.453125 21.84375 12.765625 
Q 22.203125 11.09375 22.453125 9.453125 
Q 22.84375 11.09375 23.34375 12.765625 
Q 23.84375 14.453125 24.40625 16.203125 
L 35.09375 49 
Q 35.34375 49.75 35.96875 50.25 
Q 36.59375 50.75 37.5 50.75 
L 41.40625 50.75 
Q 42.40625 50.75 43.046875 50.25 
Q 43.703125 49.75 43.953125 49 
L 54.40625 16.203125 
Q 54.90625 14.453125 55.34375 12.75 
Q 55.796875 11.046875 56.203125 9.40625 
Q 56.5 11.046875 56.875 12.71875 
Q 57.25 14.40625 57.703125 16.203125 
L 67.59375 48.796875 
Q 67.84375 49.59375 68.546875 50.125 
Q 69.25 50.65625 70.203125 50.65625 
L 76.90625 50.65625 
L 60.5 0 
L 53.453125 0 
Q 52.15625 0 51.65625 1.703125 
L 40.453125 36.046875 
Q 40.046875 37.203125 39.796875 38.375 
Q 39.546875 39.546875 39.296875 40.703125 
Q 39.046875 39.546875 38.765625 38.34375 
Q 38.5 37.15625 38.15625 36 
L 26.75 1.703125 
Q 26.296875 0 24.75 0 
L 18.046875 0 
z
" id="Lato-Regular-77"/>
      <path d="M 42.296875 41.65625 
Q 41.90625 41.09375 41.5 40.796875 
Q 41.09375 40.5 40.40625 40.5 
Q 39.65625 40.5 38.75 41.125 
Q 37.84375 41.75 36.515625 42.5 
Q 35.203125 43.25 33.265625 43.875 
Q 31.34375 44.5 28.546875 44.5 
Q 24.796875 44.5 21.9375 43.171875 
Q 19.09375 41.84375 17.171875 39.34375 
Q 15.25 36.84375 14.265625 33.296875 
Q 13.296875 29.75 13.296875 25.34375 
Q 13.296875 20.75 14.34375 17.171875 
Q 15.40625 13.59375 17.328125 11.171875 
Q 19.25 8.75 21.96875 7.46875 
Q 24.703125 6.203125 28.09375 6.203125 
Q 31.34375 6.203125 33.4375 6.96875 
Q 35.546875 7.75 36.921875 8.703125 
Q 38.296875 9.65625 39.21875 10.421875 
Q 40.15625 11.203125 41.046875 11.203125 
Q 42.15625 11.203125 42.75 10.34375 
L 45.25 7.09375 
Q 43.59375 5.046875 41.5 3.59375 
Q 39.40625 2.15625 36.96875 1.171875 
Q 34.546875 0.203125 31.890625 -0.25 
Q 29.25 -0.703125 26.5 -0.703125 
Q 21.75 -0.703125 17.671875 1.046875 
Q 13.59375 2.796875 10.59375 6.125 
Q 7.59375 9.453125 5.890625 14.296875 
Q 4.203125 19.15625 4.203125 25.34375 
Q 4.203125 31 5.765625 35.796875 
Q 7.34375 40.59375 10.375 44.0625 
Q 13.40625 47.546875 17.828125 49.5 
Q 22.25 51.453125 28 51.453125 
Q 33.34375 51.453125 37.421875 49.71875 
Q 41.5 48 44.65625 44.84375 
z
" id="Lato-Regular-63"/>
      <path d="M 7.046875 0 
L 7.046875 73.65625 
L 16 73.65625 
L 16 43.84375 
Q 19.25 47.296875 23.203125 49.375 
Q 27.15625 51.453125 32.296875 51.453125 
Q 36.453125 51.453125 39.625 50.078125 
Q 42.796875 48.703125 44.921875 46.171875 
Q 47.046875 43.65625 48.140625 40.09375 
Q 49.25 36.546875 49.25 32.25 
L 49.25 0 
L 40.296875 0 
L 40.296875 32.25 
Q 40.296875 38 37.671875 41.171875 
Q 35.046875 44.34375 29.703125 44.34375 
Q 25.703125 44.34375 22.265625 42.4375 
Q 18.84375 40.546875 16 37.296875 
L 16 0 
z
" id="Lato-Regular-68"/>
      <path d="M 24.703125 51.5 
Q 28 51.5 30.84375 50.765625 
Q 33.703125 50.046875 36.046875 48.65625 
L 49.796875 48.65625 
L 49.796875 45.34375 
Q 49.796875 43.703125 47.703125 43.25 
L 41.953125 42.453125 
Q 43.65625 39.203125 43.65625 35.203125 
Q 43.65625 31.5 42.21875 28.46875 
Q 40.796875 25.453125 38.296875 23.296875 
Q 35.796875 21.15625 32.296875 20 
Q 28.796875 18.84375 24.703125 18.84375 
Q 21.09375 18.84375 17.953125 19.703125 
Q 16.34375 18.703125 15.515625 17.546875 
Q 14.703125 16.40625 14.703125 15.296875 
Q 14.703125 13.5 16.171875 12.578125 
Q 17.65625 11.65625 20.046875 11.25 
Q 22.453125 10.84375 25.515625 10.75 
Q 28.59375 10.65625 31.8125 10.421875 
Q 35.046875 10.203125 38.125 9.640625 
Q 41.203125 9.09375 43.59375 7.84375 
Q 46 6.59375 47.46875 4.390625 
Q 48.953125 2.203125 48.953125 -1.296875 
Q 48.953125 -4.546875 47.328125 -7.59375 
Q 45.703125 -10.65625 42.640625 -13.03125 
Q 39.59375 -15.40625 35.171875 -16.828125 
Q 30.75 -18.25 25.203125 -18.25 
Q 19.65625 -18.25 15.5 -17.140625 
Q 11.34375 -16.046875 8.59375 -14.1875 
Q 5.84375 -12.34375 4.46875 -9.921875 
Q 3.09375 -7.5 3.09375 -4.84375 
Q 3.09375 -1.09375 5.4375 1.5 
Q 7.796875 4.09375 11.84375 5.65625 
Q 9.59375 6.65625 8.296875 8.328125 
Q 7 10 7 12.84375 
Q 7 13.953125 7.390625 15.125 
Q 7.796875 16.296875 8.625 17.4375 
Q 9.453125 18.59375 10.640625 19.640625 
Q 11.84375 20.703125 13.453125 21.5 
Q 9.703125 23.59375 7.59375 27.09375 
Q 5.5 30.59375 5.5 35.203125 
Q 5.5 38.90625 6.921875 41.921875 
Q 8.34375 44.953125 10.890625 47.078125 
Q 13.453125 49.203125 16.96875 50.34375 
Q 20.5 51.5 24.703125 51.5 
z
M 40.75 -2.75 
Q 40.75 -0.90625 39.703125 0.25 
Q 38.65625 1.40625 36.875 2.046875 
Q 35.09375 2.703125 32.75 2.96875 
Q 30.40625 3.25 27.78125 3.390625 
Q 25.15625 3.546875 22.453125 3.6875 
Q 19.75 3.84375 17.25 4.203125 
Q 14.453125 2.90625 12.671875 0.953125 
Q 10.90625 -1 10.90625 -3.703125 
Q 10.90625 -5.40625 11.78125 -6.875 
Q 12.65625 -8.34375 14.453125 -9.421875 
Q 16.25 -10.5 18.96875 -11.125 
Q 21.703125 -11.75 25.40625 -11.75 
Q 29 -11.75 31.84375 -11.09375 
Q 34.703125 -10.453125 36.671875 -9.25 
Q 38.65625 -8.046875 39.703125 -6.390625 
Q 40.75 -4.75 40.75 -2.75 
z
M 24.703125 24.75 
Q 27.40625 24.75 29.453125 25.5 
Q 31.5 26.25 32.890625 27.59375 
Q 34.296875 28.953125 35 30.828125 
Q 35.703125 32.703125 35.703125 34.953125 
Q 35.703125 39.59375 32.875 42.34375 
Q 30.046875 45.09375 24.703125 45.09375 
Q 19.296875 45.09375 16.46875 42.34375 
Q 13.65625 39.59375 13.65625 34.953125 
Q 13.65625 32.703125 14.375 30.828125 
Q 15.09375 28.953125 16.5 27.59375 
Q 17.90625 26.25 19.953125 25.5 
Q 22 24.75 24.703125 24.75 
z
" id="Lato-Regular-67"/>
      <path d="M 27.796875 51.453125 
Q 32.34375 51.453125 36.21875 49.921875 
Q 40.09375 48.40625 42.921875 45.53125 
Q 45.75 42.65625 47.34375 38.421875 
Q 48.953125 34.203125 48.953125 28.796875 
Q 48.953125 26.703125 48.5 26 
Q 48.046875 25.296875 46.796875 25.296875 
L 12.953125 25.296875 
Q 13.046875 20.5 14.25 16.953125 
Q 15.453125 13.40625 17.546875 11.03125 
Q 19.65625 8.65625 22.546875 7.46875 
Q 25.453125 6.296875 29.046875 6.296875 
Q 32.40625 6.296875 34.828125 7.0625 
Q 37.25 7.84375 39 8.75 
Q 40.75 9.65625 41.921875 10.421875 
Q 43.09375 11.203125 43.953125 11.203125 
Q 45.046875 11.203125 45.65625 10.34375 
L 48.15625 7.09375 
Q 46.5 5.09375 44.203125 3.625 
Q 41.90625 2.15625 39.28125 1.203125 
Q 36.65625 0.25 33.84375 -0.21875 
Q 31.046875 -0.703125 28.296875 -0.703125 
Q 23.046875 -0.703125 18.625 1.0625 
Q 14.203125 2.84375 10.96875 6.265625 
Q 7.75 9.703125 5.953125 14.75 
Q 4.15625 19.796875 4.15625 26.34375 
Q 4.15625 31.65625 5.78125 36.25 
Q 7.40625 40.84375 10.453125 44.21875 
Q 13.5 47.59375 17.890625 49.515625 
Q 22.296875 51.453125 27.796875 51.453125 
z
M 28 44.90625 
Q 21.546875 44.90625 17.84375 41.171875 
Q 14.15625 37.453125 13.25 30.84375 
L 40.953125 30.84375 
Q 40.953125 33.953125 40.078125 36.515625 
Q 39.203125 39.09375 37.515625 40.96875 
Q 35.84375 42.84375 33.4375 43.875 
Q 31.046875 44.90625 28 44.90625 
z
" id="Lato-Regular-65"/>
     </defs>
     <g transform="translate(19.17 195.314063)rotate(-90)scale(0.12 -0.12)">
      <use xlink:href="#Lato-Regular-41"/>
      <use x="67.700012" xlink:href="#Lato-Regular-6e"/>
      <use x="123.500015" xlink:href="#Lato-Regular-6e"/>
      <use x="179.300018" xlink:href="#Lato-Regular-75"/>
      <use x="235.050018" xlink:href="#Lato-Regular-61"/>
      <use x="284.750031" xlink:href="#Lato-Regular-6c"/>
      <use x="308.350037" xlink:href="#Lato-Regular-20"/>
      <use x="333.950043" xlink:href="#Lato-Regular-66"/>
      <use x="369.000046" xlink:href="#Lato-Regular-6c"/>
      <use x="392.600052" xlink:href="#Lato-Regular-6f"/>
      <use x="449.300064" xlink:href="#Lato-Regular-77"/>
      <use x="527.818832" xlink:href="#Lato-Regular-20"/>
      <use x="553.418839" xlink:href="#Lato-Regular-63"/>
      <use x="601.168839" xlink:href="#Lato-Regular-68"/>
      <use x="656.968842" xlink:href="#Lato-Regular-61"/>
      <use x="706.668854" xlink:href="#Lato-Regular-6e"/>
      <use x="762.468857" xlink:href="#Lato-Regular-67"/>
      <use x="814.468857" xlink:href="#Lato-Regular-65"/>
     </g>
    </g>
   </g>
   <g id="LineCollection_1">
    <path clip-path="url(#p8aaaed630e)" d="M -1 234.661251 
L 433 234.661251 
" style="fill:none;stroke:#000000;stroke-width:1.5;"/>
   </g>
   <g id="patch_3">
    <path d="M 54 252 
L 54 34.56 
" style="fill:none;stroke:#000000;stroke-linecap:square;stroke-linejoin:miter;stroke-width:1.25;"/>
   </g>
   <g id="patch_4">
    <path d="M 54 252 
L 388.8 252 
" style="fill:none;stroke:#000000;stroke-linecap:square;stroke-linejoin:miter;stroke-width:1.25;"/>
   </g>
   <g id="PathCollection_13">
    <defs>
     <path d="M 0 7 
C 1.856422 7 3.637059 6.262436 4.949747 4.949747 
C 6.262436 3.637059 7 1.856422 7 0 
C 7 -1.856422 6.262436 -3.637059 4.949747 -4.949747 
C 3.637059 -6.262436 1.856422 -7 0 -7 
C -1.856422 -7 -3.637059 -6.262436 -4.949747 -4.949747 
C -6.262436 -3.637059 -7 -1.856422 -7 0 
C -7 1.856422 -6.262436 3.637059 -4.949747 4.949747 
C -3.637059 6.262436 -1.856422 7 0 7 
z
" id="C0_0_292aa352d0"/>
    </defs>
    <g clip-path="url(#p8aaaed630e)">
     <use style="fill:#39be8f;" x="137.7" xlink:href="#C0_0_292aa352d0" y="242.09926"/>
    </g>
    <g clip-path="url(#p8aaaed630e)">
     <use style="fill:#39be8f;" x="123.69381" xlink:href="#C0_0_292aa352d0" y="237.848969"/>
    </g>
    <g clip-path="url(#p8aaaed630e)">
     <use style="fill:#f88e3b;" x="150.5801" xlink:href="#C0_0_292aa352d0" y="235.351923"/>
    </g>
    <g clip-path="url(#p8aaaed630e)">
     <use style="fill:#f781c9;" x="165.279147" xlink:href="#C0_0_292aa352d0" y="235.192538"/>
    </g>
    <g clip-path="url(#p8aaaed630e)">
     <use style="fill:#59b0f6;" x="109.687619" xlink:href="#C0_0_292aa352d0" y="233.598679"/>
    </g>
    <g clip-path="url(#p8aaaed630e)">
     <use style="fill:#f88e3b;" x="178.637108" xlink:href="#C0_0_292aa352d0" y="229.348388"/>
    </g>
    <g clip-path="url(#p8aaaed630e)">
     <use style="fill:#59b0f6;" x="95.871577" xlink:href="#C0_0_292aa352d0" y="228.817101"/>
    </g>
    <g clip-path="url(#p8aaaed630e)">
     <use style="fill:#f88e3b;" x="193.32652" xlink:href="#C0_0_292aa352d0" y="228.817101"/>
    </g>
    <g clip-path="url(#p8aaaed630e)">
     <use style="fill:#59b0f6;" x="137.7" xlink:href="#C0_0_292aa352d0" y="225.629383"/>
    </g>
    <g clip-path="url(#p8aaaed630e)">
     <use style="fill:#59b0f6;" x="121.302035" xlink:href="#C0_0_292aa352d0" y="224.035524"/>
    </g>
    <g clip-path="url(#p8aaaed630e)">
     <use style="fill:#f88e3b;" x="82.055535" xlink:href="#C0_0_292aa352d0" y="224.035524"/>
    </g>
    <g clip-path="url(#p8aaaed630e)">
     <use style="fill:#f88e3b;" x="151.495468" xlink:href="#C0_0_292aa352d0" y="221.379093"/>
    </g>
    <g clip-path="url(#p8aaaed630e)">
     <use style="fill:#f781c9;" x="166.025121" xlink:href="#C0_0_292aa352d0" y="219.253947"/>
    </g>
    <g clip-path="url(#p8aaaed630e)">
     <use style="fill:#59b0f6;" x="107.527049" xlink:href="#C0_0_292aa352d0" y="219.14769"/>
    </g>
    <g clip-path="url(#p8aaaed630e)">
     <use style="fill:#f88e3b;" x="180.031312" xlink:href="#C0_0_292aa352d0" y="215.003656"/>
    </g>
    <g clip-path="url(#p8aaaed630e)">
     <use style="fill:#f88e3b;" x="137.7" xlink:href="#C0_0_292aa352d0" y="208.096934"/>
    </g>
    <g clip-path="url(#p8aaaed630e)">
     <use style="fill:#f88e3b;" x="123.010589" xlink:href="#C0_0_292aa352d0" y="207.565648"/>
    </g>
    <g clip-path="url(#p8aaaed630e)">
     <use style="fill:#f88e3b;" x="152.304425" xlink:href="#C0_0_292aa352d0" y="206.503075"/>
    </g>
    <g clip-path="url(#p8aaaed630e)">
     <use style="fill:#57bf36;" x="109.194547" xlink:href="#C0_0_292aa352d0" y="202.784071"/>
    </g>
    <g clip-path="url(#p8aaaed630e)">
     <use style="fill:#59b0f6;" x="137.7" xlink:href="#C0_0_292aa352d0" y="188.970626"/>
    </g>
    <g clip-path="url(#p8aaaed630e)">
     <use style="fill:#a4b136;" x="123.095575" xlink:href="#C0_0_292aa352d0" y="187.376767"/>
    </g>
    <g clip-path="url(#p8aaaed630e)">
     <use style="fill:#57bf36;" x="152.229654" xlink:href="#C0_0_292aa352d0" y="186.84548"/>
    </g>
    <g clip-path="url(#p8aaaed630e)">
     <use style="fill:#ea80f6;" x="110.308955" xlink:href="#C0_0_292aa352d0" y="180.470044"/>
    </g>
    <g clip-path="url(#p8aaaed630e)">
     <use style="fill:#59b0f6;" x="137.7" xlink:href="#C0_0_292aa352d0" y="173.032035"/>
    </g>
    <g clip-path="url(#p8aaaed630e)">
     <use style="fill:#cba537;" x="137.7" xlink:href="#C0_0_292aa352d0" y="150.186722"/>
    </g>
    <g clip-path="url(#p8aaaed630e)">
     <use style="fill:#3db8cf;" x="137.7" xlink:href="#C0_0_292aa352d0" y="131.5917"/>
    </g>
    <g clip-path="url(#p8aaaed630e)">
     <use style="fill:#3db8cf;" x="137.7" xlink:href="#C0_0_292aa352d0" y="112.465392"/>
    </g>
    <g clip-path="url(#p8aaaed630e)">
     <use style="fill:#59b0f6;" x="123.883958" xlink:href="#C0_0_292aa352d0" y="107.683815"/>
    </g>
    <g clip-path="url(#p8aaaed630e)">
     <use style="fill:#57bf36;" x="137.7" xlink:href="#C0_0_292aa352d0" y="80.588211"/>
    </g>
    <g clip-path="url(#p8aaaed630e)">
     <use style="fill:#ea80f6;" x="151.87185" xlink:href="#C0_0_292aa352d0" y="76.869207"/>
    </g>
    <g clip-path="url(#p8aaaed630e)">
     <use style="fill:#3bbbb2;" x="137.7" xlink:href="#C0_0_292aa352d0" y="61.461903"/>
    </g>
    <g clip-path="url(#p8aaaed630e)">
     <use style="fill:#b09cf6;" x="152.132951" xlink:href="#C0_0_292aa352d0" y="58.805471"/>
    </g>
    <g clip-path="url(#p8aaaed630e)">
     <use style="fill:#b09cf6;" x="137.7" xlink:href="#C0_0_292aa352d0" y="44.46074"/>
    </g>
   </g>
   <g id="PathCollection_14">
    <defs>
     <path d="M 0 7 
C 1.856422 7 3.637059 6.262436 4.949747 4.949747 
C 6.262436 3.637059 7 1.856422 7 0 
C 7 -1.856422 6.262436 -3.637059 4.949747 -4.949747 
C 3.637059 -6.262436 1.856422 -7 0 -7 
C -1.856422 -7 -3.637059 -6.262436 -4.949747 -4.949747 
C -6.262436 -3.637059 -7 -1.856422 -7 0 
C -7 1.856422 -6.262436 3.637059 -4.949747 4.949747 
C -3.637059 6.262436 -1.856422 7 0 7 
z
" id="m219d4f8d0a"/>
    </defs>
    <g clip-path="url(#p8aaaed630e)">
     <use style="fill:#f8889a;" x="305.1" xlink:href="#m219d4f8d0a" y="179.938758"/>
    </g>
   </g>
  </g>
 </g>
 <defs>
  <clipPath id="p8aaaed630e">
   <rect height="217.44" width="334.8" x="54" y="34.56"/>
  </clipPath>
 </defs>
</svg>
