<?xml version="1.0" encoding="utf-8" standalone="no"?>
<!DOCTYPE svg PUBLIC "-//W3C//DTD SVG 1.1//EN"
  "http://www.w3.org/Graphics/SVG/1.1/DTD/svg11.dtd">
<!-- Created with matplotlib (http://matplotlib.org/) -->
<svg height="288pt" version="1.1" viewBox="0 0 432 288" width="432pt" xmlns="http://www.w3.org/2000/svg" xmlns:xlink="http://www.w3.org/1999/xlink">
 <defs>
  <style type="text/css">
*{stroke-linecap:butt;stroke-linejoin:round;}
  </style>
 </defs>
 <g id="figure_1">
  <g id="patch_1">
   <path d="M 0 288 
L 432 288 
L 432 0 
L 0 0 
z
" style="fill:#ffffff;"/>
  </g>
  <g id="axes_1"/>
  <g id="legend_1">
   <g id="PathCollection_1">
    <defs>
     <path d="M 0 3.872983 
C 1.027127 3.872983 2.012324 3.464901 2.738613 2.738613 
C 3.464901 2.012324 3.872983 1.027127 3.872983 0 
C 3.872983 -1.027127 3.464901 -2.012324 2.738613 -2.738613 
C 2.012324 -3.464901 1.027127 -3.872983 0 -3.872983 
C -1.027127 -3.872983 -2.012324 -3.464901 -2.738613 -2.738613 
C -3.464901 -2.012324 -3.872983 -1.027127 -3.872983 0 
C -3.872983 1.027127 -3.464901 2.012324 -2.738613 2.738613 
C -2.012324 3.464901 -1.027127 3.872983 0 3.872983 
z
" id="m54c37249b0" style="stroke:#82c6e2;"/>
    </defs>
    <g>
     <use style="fill:#82c6e2;stroke:#82c6e2;" x="208.41" xlink:href="#m54c37249b0" y="136.52"/>
    </g>
   </g>
   <g id="text_1">
    <!-- + -->
    <defs>
     <path d="M 34 58.65625 
L 34 38.15625 
L 53.40625 38.15625 
L 53.40625 29 
L 34 29 
L 34 8.40625 
L 23.953125 8.40625 
L 23.953125 29 
L 4.65625 29 
L 4.65625 38.15625 
L 23.953125 38.15625 
L 23.953125 58.65625 
z
" id="Lato-Bold-2b"/>
    </defs>
    <g transform="translate(228.21 139.4075)scale(0.11 -0.11)">
     <use xlink:href="#Lato-Bold-2b"/>
    </g>
   </g>
   <g id="PathCollection_2">
    <defs>
     <path d="M 0 3.872983 
C 1.027127 3.872983 2.012324 3.464901 2.738613 2.738613 
C 3.464901 2.012324 3.872983 1.027127 3.872983 0 
C 3.872983 -1.027127 3.464901 -2.012324 2.738613 -2.738613 
C 2.012324 -3.464901 1.027127 -3.872983 0 -3.872983 
C -1.027127 -3.872983 -2.012324 -3.464901 -2.738613 -2.738613 
C -3.464901 -2.012324 -3.872983 -1.027127 -3.872983 0 
C -3.872983 1.027127 -3.464901 2.012324 -2.738613 2.738613 
C -2.012324 3.464901 -1.027127 3.872983 0 3.872983 
z
" id="m51b20cf984" style="stroke:#d65f5f;"/>
    </defs>
    <g>
     <use style="fill:#d65f5f;stroke:#d65f5f;" x="208.41" xlink:href="#m51b20cf984" y="152.035156"/>
    </g>
   </g>
   <g id="text_2">
    <!-- – -->
    <defs>
     <path d="M 8.75 34.34375 
L 49.25 34.34375 
L 49.25 25.59375 
L 8.75 25.59375 
z
" id="Lato-Bold-2013"/>
    </defs>
    <g transform="translate(228.21 154.922656)scale(0.11 -0.11)">
     <use xlink:href="#Lato-Bold-2013"/>
    </g>
   </g>
  </g>
 </g>
</svg>
