<?xml version="1.0" encoding="utf-8" standalone="no"?>
<!DOCTYPE svg PUBLIC "-//W3C//DTD SVG 1.1//EN"
  "http://www.w3.org/Graphics/SVG/1.1/DTD/svg11.dtd">
<!-- Created with matplotlib (http://matplotlib.org/) -->
<svg height="288pt" version="1.1" viewBox="100 100 150 150" width="432pt" xmlns="http://www.w3.org/2000/svg" xmlns:xlink="http://www.w3.org/1999/xlink">
 <defs>
  <style type="text/css">
*{stroke-linecap:butt;stroke-linejoin:round;}
  </style>
 </defs>
 <g id="figure_1">
  <g id="patch_1">
   <path d="M 0 288
L 432 288
L 432 0
L 0 0
z
" style="fill:#ffffff;"/>
  </g>
  <g id="axes_1"/>
  <g id="legend_1">
   <g id="PathCollection_1">
    <defs>
     <path d="M 0 3.872983
C 1.027127 3.872983 2.012324 3.464901 2.738613 2.738613
C 3.464901 2.012324 3.872983 1.027127 3.872983 0
C 3.872983 -1.027127 3.464901 -2.012324 2.738613 -2.738613
C 2.012324 -3.464901 1.027127 -3.872983 0 -3.872983
C -1.027127 -3.872983 -2.012324 -3.464901 -2.738613 -2.738613
C -3.464901 -2.012324 -3.872983 -1.027127 -3.872983 0
C -3.872983 1.027127 -3.464901 2.012324 -2.738613 2.738613
C -2.012324 3.464901 -1.027127 3.872983 0 3.872983
z
" id="md70577d484" style="stroke:#82c6e2;"/>
    </defs>
    <g>
     <use style="fill:#82c6e2;stroke:#82c6e2;" x="175.64375" xlink:href="#md70577d484" y="136.377344"/>
    </g>
   </g>
   <g id="text_1">
    <!-- Significant -->
    <defs>
     <path d="M 46.546875 59.15625
Q 45.953125 58.09375 45.265625 57.625
Q 44.59375 57.15625 43.59375 57.15625
Q 42.546875 57.15625 41.3125 57.921875
Q 40.09375 58.703125 38.390625 59.640625
Q 36.703125 60.59375 34.421875 61.375
Q 32.15625 62.15625 29.046875 62.15625
Q 26.25 62.15625 24.140625 61.46875
Q 22.046875 60.796875 20.625 59.59375
Q 19.203125 58.40625 18.5 56.71875
Q 17.796875 55.046875 17.796875 53.046875
Q 17.796875 50.5 19.21875 48.796875
Q 20.65625 47.09375 23 45.890625
Q 25.34375 44.703125 28.34375 43.75
Q 31.34375 42.796875 34.5 41.71875
Q 37.65625 40.65625 40.65625 39.21875
Q 43.65625 37.796875 46 35.625
Q 48.34375 33.453125 49.765625 30.296875
Q 51.203125 27.15625 51.203125 22.65625
Q 51.203125 17.75 49.515625 13.46875
Q 47.84375 9.203125 44.625 6.015625
Q 41.40625 2.84375 36.75 1.015625
Q 32.09375 -0.796875 26.09375 -0.796875
Q 22.65625 -0.796875 19.296875 -0.125
Q 15.953125 0.546875 12.875 1.796875
Q 9.796875 3.046875 7.09375 4.796875
Q 4.40625 6.546875 2.296875 8.703125
L 6.25 15.15625
Q 6.75 15.84375 7.546875 16.3125
Q 8.34375 16.796875 9.25 16.796875
Q 10.5 16.796875 11.953125 15.765625
Q 13.40625 14.75 15.40625 13.5
Q 17.40625 12.25 20.078125 11.21875
Q 22.75 10.203125 26.5 10.203125
Q 32.25 10.203125 35.390625 12.921875
Q 38.546875 15.65625 38.546875 20.75
Q 38.546875 23.59375 37.125 25.390625
Q 35.703125 27.203125 33.34375 28.421875
Q 31 29.65625 28 30.5
Q 25 31.34375 21.890625 32.34375
Q 18.796875 33.34375 15.796875 34.75
Q 12.796875 36.15625 10.4375 38.40625
Q 8.09375 40.65625 6.671875 44.03125
Q 5.25 47.40625 5.25 52.34375
Q 5.25 56.296875 6.828125 60.046875
Q 8.40625 63.796875 11.40625 66.6875
Q 14.40625 69.59375 18.796875 71.34375
Q 23.203125 73.09375 28.90625 73.09375
Q 35.296875 73.09375 40.6875 71.09375
Q 46.09375 69.09375 49.90625 65.5
z
" id="Lato-Bold-53"/>
     <path d="M 18.90625 51.296875
L 18.90625 0
L 6.5 0
L 6.5 51.296875
z
M 20.59375 66.25
Q 20.59375 64.65625 19.9375 63.25
Q 19.296875 61.84375 18.21875 60.796875
Q 17.15625 59.75 15.703125 59.125
Q 14.25 58.5 12.59375 58.5
Q 11 58.5 9.578125 59.125
Q 8.15625 59.75 7.09375 60.796875
Q 6.046875 61.84375 5.421875 63.25
Q 4.796875 64.65625 4.796875 66.25
Q 4.796875 67.90625 5.421875 69.34375
Q 6.046875 70.796875 7.09375 71.84375
Q 8.15625 72.90625 9.578125 73.53125
Q 11 74.15625 12.59375 74.15625
Q 14.25 74.15625 15.703125 73.53125
Q 17.15625 72.90625 18.21875 71.84375
Q 19.296875 70.796875 19.9375 69.34375
Q 20.59375 67.90625 20.59375 66.25
z
" id="Lato-Bold-69"/>
     <path d="M 24.84375 52.203125
Q 28.15625 52.203125 31.03125 51.515625
Q 33.90625 50.84375 36.34375 49.546875
L 51.09375 49.546875
L 51.09375 44.953125
Q 51.09375 42.75 48.453125 42.25
L 43.84375 41.40625
Q 44.34375 40.09375 44.625 38.640625
Q 44.90625 37.203125 44.90625 35.59375
Q 44.90625 31.796875 43.375 28.71875
Q 41.84375 25.65625 39.140625 23.5
Q 36.453125 21.34375 32.765625 20.171875
Q 29.09375 19 24.84375 19
Q 21.953125 19 19.203125 19.546875
Q 16.796875 18.09375 16.796875 16.296875
Q 16.796875 14.75 18.21875 14.015625
Q 19.65625 13.296875 22 13
Q 24.34375 12.703125 27.34375 12.625
Q 30.34375 12.546875 33.5 12.296875
Q 36.65625 12.046875 39.65625 11.421875
Q 42.65625 10.796875 45 9.4375
Q 47.34375 8.09375 48.765625 5.765625
Q 50.203125 3.453125 50.203125 -0.203125
Q 50.203125 -3.59375 48.515625 -6.796875
Q 46.84375 -10 43.671875 -12.5
Q 40.5 -15 35.875 -16.515625
Q 31.25 -18.046875 25.34375 -18.046875
Q 19.546875 -18.046875 15.25 -16.921875
Q 10.953125 -15.796875 8.09375 -13.921875
Q 5.25 -12.046875 3.84375 -9.59375
Q 2.453125 -7.15625 2.453125 -4.5
Q 2.453125 -0.953125 4.625 1.5
Q 6.796875 3.953125 10.546875 5.40625
Q 8.546875 6.453125 7.34375 8.203125
Q 6.15625 9.953125 6.15625 12.796875
Q 6.15625 13.953125 6.546875 15.171875
Q 6.953125 16.40625 7.765625 17.59375
Q 8.59375 18.796875 9.875 19.875
Q 11.15625 20.953125 12.84375 21.796875
Q 8.953125 23.90625 6.71875 27.40625
Q 4.5 30.90625 4.5 35.59375
Q 4.5 39.40625 6.015625 42.46875
Q 7.546875 45.546875 10.265625 47.71875
Q 13 49.90625 16.71875 51.046875
Q 20.453125 52.203125 24.84375 52.203125
z
M 38.796875 -2.296875
Q 38.796875 -0.796875 37.890625 0.125
Q 37 1.046875 35.453125 1.59375
Q 33.90625 2.15625 31.828125 2.40625
Q 29.75 2.65625 27.421875 2.78125
Q 25.09375 2.90625 22.625 3
Q 20.15625 3.09375 17.796875 3.40625
Q 15.75 2.25 14.46875 0.703125
Q 13.203125 -0.84375 13.203125 -2.90625
Q 13.203125 -4.25 13.875 -5.421875
Q 14.546875 -6.59375 16.015625 -7.4375
Q 17.5 -8.296875 19.84375 -8.765625
Q 22.203125 -9.25 25.59375 -9.25
Q 29.046875 -9.25 31.546875 -8.71875
Q 34.046875 -8.203125 35.671875 -7.265625
Q 37.296875 -6.34375 38.046875 -5.0625
Q 38.796875 -3.796875 38.796875 -2.296875
z
M 24.84375 26.90625
Q 27.15625 26.90625 28.84375 27.53125
Q 30.546875 28.15625 31.671875 29.25
Q 32.796875 30.34375 33.375 31.890625
Q 33.953125 33.453125 33.953125 35.296875
Q 33.953125 39.09375 31.671875 41.3125
Q 29.40625 43.546875 24.84375 43.546875
Q 20.296875 43.546875 18.015625 41.3125
Q 15.75 39.09375 15.75 35.296875
Q 15.75 33.5 16.328125 31.953125
Q 16.90625 30.40625 18.03125 29.28125
Q 19.15625 28.15625 20.875 27.53125
Q 22.59375 26.90625 24.84375 26.90625
z
" id="Lato-Bold-67"/>
     <path d="M 6.09375 0
L 6.09375 51.296875
L 13.65625 51.296875
Q 16.046875 51.296875 16.796875 49.046875
L 17.65625 45
Q 19.203125 46.59375 20.921875 47.890625
Q 22.65625 49.203125 24.578125 50.140625
Q 26.5 51.09375 28.703125 51.59375
Q 30.90625 52.09375 33.5 52.09375
Q 37.703125 52.09375 40.953125 50.671875
Q 44.203125 49.25 46.375 46.671875
Q 48.546875 44.09375 49.671875 40.515625
Q 50.796875 36.953125 50.796875 32.65625
L 50.796875 0
L 38.453125 0
L 38.453125 32.65625
Q 38.453125 37.34375 36.296875 39.921875
Q 34.15625 42.5 29.75 42.5
Q 26.546875 42.5 23.75 41.046875
Q 20.953125 39.59375 18.453125 37.09375
L 18.453125 0
z
" id="Lato-Bold-6e"/>
     <path d="M 9.703125 0
L 9.703125 42
L 5.25 42.703125
Q 3.796875 43 2.921875 43.71875
Q 2.046875 44.453125 2.046875 45.796875
L 2.046875 50.84375
L 9.703125 50.84375
L 9.703125 54.65625
Q 9.703125 59.046875 11.015625 62.546875
Q 12.34375 66.046875 14.8125 68.5
Q 17.296875 70.953125 20.84375 72.25
Q 24.40625 73.546875 28.84375 73.546875
Q 32.40625 73.546875 35.453125 72.59375
L 35.203125 66.40625
Q 35.15625 65.703125 34.796875 65.265625
Q 34.453125 64.84375 33.875 64.625
Q 33.296875 64.40625 32.546875 64.328125
Q 31.796875 64.25 30.953125 64.25
Q 28.75 64.25 27.015625 63.765625
Q 25.296875 63.296875 24.09375 62.125
Q 22.90625 60.953125 22.28125 59.015625
Q 21.65625 57.09375 21.65625 54.25
L 21.65625 50.84375
L 35 50.84375
L 35 42.046875
L 22.046875 42.046875
L 22.046875 0
z
" id="Lato-Bold-66"/>
     <path d="M 42.84375 40.453125
Q 42.296875 39.75 41.765625 39.34375
Q 41.25 38.953125 40.25 38.953125
Q 39.296875 38.953125 38.390625 39.515625
Q 37.5 40.09375 36.25 40.8125
Q 35 41.546875 33.265625 42.125
Q 31.546875 42.703125 29 42.703125
Q 25.75 42.703125 23.296875 41.515625
Q 20.84375 40.34375 19.21875 38.140625
Q 17.59375 35.953125 16.796875 32.828125
Q 16 29.703125 16 25.75
Q 16 21.65625 16.875 18.453125
Q 17.75 15.25 19.390625 13.078125
Q 21.046875 10.90625 23.390625 9.78125
Q 25.75 8.65625 28.703125 8.65625
Q 31.65625 8.65625 33.46875 9.375
Q 35.296875 10.09375 36.546875 10.96875
Q 37.796875 11.84375 38.71875 12.5625
Q 39.65625 13.296875 40.796875 13.296875
Q 42.296875 13.296875 43.046875 12.15625
L 46.59375 7.65625
Q 44.546875 5.25 42.140625 3.625
Q 39.75 2 37.171875 1.015625
Q 34.59375 0.046875 31.875 -0.34375
Q 29.15625 -0.75 26.453125 -0.75
Q 21.703125 -0.75 17.5 1.015625
Q 13.296875 2.796875 10.140625 6.1875
Q 7 9.59375 5.171875 14.515625
Q 3.34375 19.453125 3.34375 25.75
Q 3.34375 31.40625 4.96875 36.21875
Q 6.59375 41.046875 9.75 44.5625
Q 12.90625 48.09375 17.546875 50.09375
Q 22.203125 52.09375 28.25 52.09375
Q 34 52.09375 38.328125 50.25
Q 42.65625 48.40625 46.09375 44.953125
z
" id="Lato-Bold-63"/>
     <path d="M 39.65625 0
Q 37.90625 0 36.953125 0.515625
Q 36 1.046875 35.453125 2.65625
L 34.34375 6.296875
Q 32.40625 4.546875 30.546875 3.21875
Q 28.703125 1.90625 26.703125 1
Q 24.703125 0.09375 22.421875 -0.34375
Q 20.15625 -0.796875 17.40625 -0.796875
Q 14.15625 -0.796875 11.40625 0.078125
Q 8.65625 0.953125 6.65625 2.703125
Q 4.65625 4.453125 3.546875 7.046875
Q 2.453125 9.65625 2.453125 13.09375
Q 2.453125 16 3.96875 18.828125
Q 5.5 21.65625 9.046875 23.921875
Q 12.59375 26.203125 18.5 27.703125
Q 24.40625 29.203125 33.203125 29.40625
L 33.203125 32.40625
Q 33.203125 37.546875 31 40.015625
Q 28.796875 42.5 24.65625 42.5
Q 21.65625 42.5 19.671875 41.796875
Q 17.703125 41.09375 16.203125 40.21875
Q 14.703125 39.34375 13.46875 38.640625
Q 12.25 37.953125 10.75 37.953125
Q 9.453125 37.953125 8.546875 38.625
Q 7.65625 39.296875 7.09375 40.203125
L 4.90625 44.15625
Q 13.75 52.25 26.203125 52.25
Q 30.703125 52.25 34.25 50.765625
Q 37.796875 49.296875 40.25 46.671875
Q 42.703125 44.046875 43.96875 40.390625
Q 45.25 36.75 45.25 32.40625
L 45.25 0
z
M 21.203125 7.703125
Q 25 7.703125 27.765625 9.078125
Q 30.546875 10.453125 33.203125 13.25
L 33.203125 21.90625
Q 27.796875 21.65625 24.171875 20.96875
Q 20.546875 20.296875 18.34375 19.25
Q 16.15625 18.203125 15.203125 16.796875
Q 14.25 15.40625 14.25 13.75
Q 14.25 10.5 16.171875 9.09375
Q 18.09375 7.703125 21.203125 7.703125
z
" id="Lato-Bold-61"/>
     <path d="M 23.203125 -0.796875
Q 16.5 -0.796875 12.921875 2.96875
Q 9.34375 6.75 9.34375 13.40625
L 9.34375 42.046875
L 4.09375 42.046875
Q 3.09375 42.046875 2.390625 42.6875
Q 1.703125 43.34375 1.703125 44.65625
L 1.703125 49.546875
L 9.953125 50.90625
L 12.546875 64.90625
Q 12.796875 65.90625 13.5 66.453125
Q 14.203125 67 15.296875 67
L 21.703125 67
L 21.703125 50.84375
L 35.40625 50.84375
L 35.40625 42.046875
L 21.703125 42.046875
L 21.703125 14.25
Q 21.703125 11.84375 22.875 10.5
Q 24.046875 9.15625 26.09375 9.15625
Q 27.25 9.15625 28.015625 9.421875
Q 28.796875 9.703125 29.375 10
Q 29.953125 10.296875 30.390625 10.5625
Q 30.84375 10.84375 31.296875 10.84375
Q 31.84375 10.84375 32.1875 10.5625
Q 32.546875 10.296875 32.953125 9.75
L 36.65625 3.75
Q 33.953125 1.5 30.453125 0.34375
Q 26.953125 -0.796875 23.203125 -0.796875
z
" id="Lato-Bold-74"/>
    </defs>
    <g transform="translate(195.44375 139.264844)scale(0.11 -0.11)">
     <use xlink:href="#Lato-Bold-53"/>
     <use x="54.850006" xlink:href="#Lato-Bold-69"/>
     <use x="80.25" xlink:href="#Lato-Bold-67"/>
     <use x="133.050003" xlink:href="#Lato-Bold-6e"/>
     <use x="189.450012" xlink:href="#Lato-Bold-69"/>
     <use x="214.850006" xlink:href="#Lato-Bold-66"/>
     <use x="250.700012" xlink:href="#Lato-Bold-69"/>
     <use x="276.100006" xlink:href="#Lato-Bold-63"/>
     <use x="324.300018" xlink:href="#Lato-Bold-61"/>
     <use x="375.050018" xlink:href="#Lato-Bold-6e"/>
     <use x="431.450027" xlink:href="#Lato-Bold-74"/>
    </g>
   </g>
   <g id="PathCollection_2">
    <defs>
     <path d="M 0 3.872983
C 1.027127 3.872983 2.012324 3.464901 2.738613 2.738613
C 3.464901 2.012324 3.872983 1.027127 3.872983 0
C 3.872983 -1.027127 3.464901 -2.012324 2.738613 -2.738613
C 2.012324 -3.464901 1.027127 -3.872983 0 -3.872983
C -1.027127 -3.872983 -2.012324 -3.464901 -2.738613 -2.738613
C -3.464901 -2.012324 -3.872983 -1.027127 -3.872983 0
C -3.872983 1.027127 -3.464901 2.012324 -2.738613 2.738613
C -2.012324 3.464901 -1.027127 3.872983 0 3.872983
z
" id="m31c885866c" style="stroke:#e8f2ff;"/>
    </defs>
    <g>
     <use style="fill:#e8f2ff;stroke:#e8f2ff;" x="175.64375" xlink:href="#m31c885866c" y="152.035156"/>
    </g>
   </g>
   <g id="text_2">
    <!-- Not significant -->
    <defs>
     <path d="M 15.09375 72.296875
Q 15.953125 72.296875 16.578125 72.21875
Q 17.203125 72.15625 17.671875 71.921875
Q 18.15625 71.703125 18.59375 71.265625
Q 19.046875 70.84375 19.59375 70.15625
L 57.5 21.75
Q 57.34375 23.5 57.25 25.203125
Q 57.15625 26.90625 57.15625 28.34375
L 57.15625 72.296875
L 69 72.296875
L 69 0
L 62.09375 0
Q 60.5 0 59.421875 0.515625
Q 58.34375 1.046875 57.34375 2.296875
L 19.59375 50.453125
Q 19.75 48.84375 19.828125 47.265625
Q 19.90625 45.703125 19.90625 44.40625
L 19.90625 0
L 8.046875 0
L 8.046875 72.296875
L 15.09375 72.296875
z
" id="Lato-Bold-4e"/>
     <path d="M 28.796875 52.09375
Q 34.5 52.09375 39.171875 50.25
Q 43.84375 48.40625 47.171875 45
Q 50.5 41.59375 52.296875 36.6875
Q 54.09375 31.796875 54.09375 25.75
Q 54.09375 19.65625 52.296875 14.75
Q 50.5 9.84375 47.171875 6.390625
Q 43.84375 2.953125 39.171875 1.09375
Q 34.5 -0.75 28.796875 -0.75
Q 23.046875 -0.75 18.34375 1.09375
Q 13.65625 2.953125 10.328125 6.390625
Q 7 9.84375 5.171875 14.75
Q 3.34375 19.65625 3.34375 25.75
Q 3.34375 31.796875 5.171875 36.6875
Q 7 41.59375 10.328125 45
Q 13.65625 48.40625 18.34375 50.25
Q 23.046875 52.09375 28.796875 52.09375
z
M 28.796875 8.75
Q 35.203125 8.75 38.265625 13.046875
Q 41.34375 17.34375 41.34375 25.65625
Q 41.34375 33.953125 38.265625 38.296875
Q 35.203125 42.65625 28.796875 42.65625
Q 22.296875 42.65625 19.171875 38.28125
Q 16.046875 33.90625 16.046875 25.65625
Q 16.046875 17.40625 19.171875 13.078125
Q 22.296875 8.75 28.796875 8.75
z
" id="Lato-Bold-6f"/>
     <path id="Lato-Bold-20"/>
     <path d="M 37.40625 41.296875
Q 36.90625 40.5 36.34375 40.171875
Q 35.796875 39.84375 34.953125 39.84375
Q 34.046875 39.84375 33.015625 40.34375
Q 32 40.84375 30.640625 41.46875
Q 29.296875 42.09375 27.5625 42.59375
Q 25.84375 43.09375 23.5 43.09375
Q 19.84375 43.09375 17.765625 41.546875
Q 15.703125 40 15.703125 37.5
Q 15.703125 35.84375 16.765625 34.71875
Q 17.84375 33.59375 19.625 32.75
Q 21.40625 31.90625 23.65625 31.21875
Q 25.90625 30.546875 28.21875 29.75
Q 30.546875 28.953125 32.796875 27.921875
Q 35.046875 26.90625 36.8125 25.328125
Q 38.59375 23.75 39.671875 21.546875
Q 40.75 19.34375 40.75 16.25
Q 40.75 12.546875 39.421875 9.421875
Q 38.09375 6.296875 35.5 4.015625
Q 32.90625 1.75 29.078125 0.46875
Q 25.25 -0.796875 20.25 -0.796875
Q 17.59375 -0.796875 15.0625 -0.3125
Q 12.546875 0.15625 10.21875 1
Q 7.90625 1.84375 5.921875 3
Q 3.953125 4.15625 2.453125 5.5
L 5.296875 10.203125
Q 5.84375 11.046875 6.59375 11.5
Q 7.34375 11.953125 8.5 11.953125
Q 9.65625 11.953125 10.671875 11.296875
Q 11.703125 10.65625 13.046875 9.90625
Q 14.40625 9.15625 16.21875 8.5
Q 18.046875 7.84375 20.84375 7.84375
Q 23.046875 7.84375 24.625 8.375
Q 26.203125 8.90625 27.21875 9.75
Q 28.25 10.59375 28.71875 11.71875
Q 29.203125 12.84375 29.203125 14.046875
Q 29.203125 15.84375 28.125 17
Q 27.046875 18.15625 25.265625 19
Q 23.5 19.84375 21.21875 20.515625
Q 18.953125 21.203125 16.578125 22
Q 14.203125 22.796875 11.921875 23.875
Q 9.65625 24.953125 7.875 26.59375
Q 6.09375 28.25 5.015625 30.640625
Q 3.953125 33.046875 3.953125 36.453125
Q 3.953125 39.59375 5.203125 42.4375
Q 6.453125 45.296875 8.875 47.421875
Q 11.296875 49.546875 14.921875 50.8125
Q 18.546875 52.09375 23.296875 52.09375
Q 28.59375 52.09375 32.9375 50.34375
Q 37.296875 48.59375 40.203125 45.75
z
" id="Lato-Bold-73"/>
    </defs>
    <g transform="translate(195.44375 154.922656)scale(0.11 -0.11)">
     <use xlink:href="#Lato-Bold-4e"/>
     <use x="77.034393" xlink:href="#Lato-Bold-6f"/>
     <use x="134.468781" xlink:href="#Lato-Bold-74"/>
     <use x="171.668777" xlink:href="#Lato-Bold-20"/>
     <use x="195.968781" xlink:href="#Lato-Bold-73"/>
     <use x="239.918777" xlink:href="#Lato-Bold-69"/>
     <use x="265.318771" xlink:href="#Lato-Bold-67"/>
     <use x="318.118774" xlink:href="#Lato-Bold-6e"/>
     <use x="374.518784" xlink:href="#Lato-Bold-69"/>
     <use x="399.918777" xlink:href="#Lato-Bold-66"/>
     <use x="435.768784" xlink:href="#Lato-Bold-69"/>
     <use x="461.168777" xlink:href="#Lato-Bold-63"/>
     <use x="509.36879" xlink:href="#Lato-Bold-61"/>
     <use x="560.11879" xlink:href="#Lato-Bold-6e"/>
     <use x="616.518799" xlink:href="#Lato-Bold-74"/>
    </g>
   </g>
  </g>
 </g>
</svg>
