<?xml version="1.0" encoding="utf-8" standalone="no"?>
<!DOCTYPE svg PUBLIC "-//W3C//DTD SVG 1.1//EN"
  "http://www.w3.org/Graphics/SVG/1.1/DTD/svg11.dtd">
<!-- Created with matplotlib (http://matplotlib.org/) -->
<svg height="288pt" version="1.1" viewBox="0 0 432 288" width="432pt" xmlns="http://www.w3.org/2000/svg" xmlns:xlink="http://www.w3.org/1999/xlink">
 <defs>
  <style type="text/css">
*{stroke-linecap:butt;stroke-linejoin:round;}
  </style>
 </defs>
 <g id="figure_1">
  <g id="patch_1">
   <path d="M 0 288 
L 432 288 
L 432 0 
L 0 0 
z
" style="fill:#ffffff;"/>
  </g>
  <g id="axes_1"/>
  <g id="legend_1">
   <g id="PathCollection_1">
    <defs>
     <path d="M 0 3.872983 
C 1.027127 3.872983 2.012324 3.464901 2.738613 2.738613 
C 3.464901 2.012324 3.872983 1.027127 3.872983 0 
C 3.872983 -1.027127 3.464901 -2.012324 2.738613 -2.738613 
C 2.012324 -3.464901 1.027127 -3.872983 0 -3.872983 
C -1.027127 -3.872983 -2.012324 -3.464901 -2.738613 -2.738613 
C -3.464901 -2.012324 -3.872983 -1.027127 -3.872983 0 
C -3.872983 1.027127 -3.464901 2.012324 -2.738613 2.738613 
C -2.012324 3.464901 -1.027127 3.872983 0 3.872983 
z
" id="m738b5a03f4" style="stroke:#f8889a;"/>
    </defs>
    <g>
     <use style="fill:#f8889a;stroke:#f8889a;" x="121.032187" xlink:href="#m738b5a03f4" y="58.658906"/>
    </g>
   </g>
   <g id="text_1">
    <!-- Angat, Bulacan, Phillipines -->
    <defs>
     <path d="M 70 0 
L 59.59375 0 
Q 57.84375 0 56.75 0.875 
Q 55.65625 1.75 55.09375 3.046875 
L 49.703125 17.796875 
L 19.75 17.796875 
L 14.34375 3.046875 
Q 13.953125 1.90625 12.796875 0.953125 
Q 11.65625 0 9.953125 0 
L -0.546875 0 
L 27.90625 72.296875 
L 41.59375 72.296875 
z
M 23.203125 27.296875 
L 46.25 27.296875 
L 37.453125 51.34375 
Q 36.796875 52.953125 36.09375 55.125 
Q 35.40625 57.296875 34.703125 59.84375 
Q 34 57.296875 33.328125 55.09375 
Q 32.65625 52.90625 32 51.25 
z
" id="Lato-Bold-41"/>
     <path d="M 6.09375 0 
L 6.09375 51.296875 
L 13.65625 51.296875 
Q 16.046875 51.296875 16.796875 49.046875 
L 17.65625 45 
Q 19.203125 46.59375 20.921875 47.890625 
Q 22.65625 49.203125 24.578125 50.140625 
Q 26.5 51.09375 28.703125 51.59375 
Q 30.90625 52.09375 33.5 52.09375 
Q 37.703125 52.09375 40.953125 50.671875 
Q 44.203125 49.25 46.375 46.671875 
Q 48.546875 44.09375 49.671875 40.515625 
Q 50.796875 36.953125 50.796875 32.65625 
L 50.796875 0 
L 38.453125 0 
L 38.453125 32.65625 
Q 38.453125 37.34375 36.296875 39.921875 
Q 34.15625 42.5 29.75 42.5 
Q 26.546875 42.5 23.75 41.046875 
Q 20.953125 39.59375 18.453125 37.09375 
L 18.453125 0 
z
" id="Lato-Bold-6e"/>
     <path d="M 24.84375 52.203125 
Q 28.15625 52.203125 31.03125 51.515625 
Q 33.90625 50.84375 36.34375 49.546875 
L 51.09375 49.546875 
L 51.09375 44.953125 
Q 51.09375 42.75 48.453125 42.25 
L 43.84375 41.40625 
Q 44.34375 40.09375 44.625 38.640625 
Q 44.90625 37.203125 44.90625 35.59375 
Q 44.90625 31.796875 43.375 28.71875 
Q 41.84375 25.65625 39.140625 23.5 
Q 36.453125 21.34375 32.765625 20.171875 
Q 29.09375 19 24.84375 19 
Q 21.953125 19 19.203125 19.546875 
Q 16.796875 18.09375 16.796875 16.296875 
Q 16.796875 14.75 18.21875 14.015625 
Q 19.65625 13.296875 22 13 
Q 24.34375 12.703125 27.34375 12.625 
Q 30.34375 12.546875 33.5 12.296875 
Q 36.65625 12.046875 39.65625 11.421875 
Q 42.65625 10.796875 45 9.4375 
Q 47.34375 8.09375 48.765625 5.765625 
Q 50.203125 3.453125 50.203125 -0.203125 
Q 50.203125 -3.59375 48.515625 -6.796875 
Q 46.84375 -10 43.671875 -12.5 
Q 40.5 -15 35.875 -16.515625 
Q 31.25 -18.046875 25.34375 -18.046875 
Q 19.546875 -18.046875 15.25 -16.921875 
Q 10.953125 -15.796875 8.09375 -13.921875 
Q 5.25 -12.046875 3.84375 -9.59375 
Q 2.453125 -7.15625 2.453125 -4.5 
Q 2.453125 -0.953125 4.625 1.5 
Q 6.796875 3.953125 10.546875 5.40625 
Q 8.546875 6.453125 7.34375 8.203125 
Q 6.15625 9.953125 6.15625 12.796875 
Q 6.15625 13.953125 6.546875 15.171875 
Q 6.953125 16.40625 7.765625 17.59375 
Q 8.59375 18.796875 9.875 19.875 
Q 11.15625 20.953125 12.84375 21.796875 
Q 8.953125 23.90625 6.71875 27.40625 
Q 4.5 30.90625 4.5 35.59375 
Q 4.5 39.40625 6.015625 42.46875 
Q 7.546875 45.546875 10.265625 47.71875 
Q 13 49.90625 16.71875 51.046875 
Q 20.453125 52.203125 24.84375 52.203125 
z
M 38.796875 -2.296875 
Q 38.796875 -0.796875 37.890625 0.125 
Q 37 1.046875 35.453125 1.59375 
Q 33.90625 2.15625 31.828125 2.40625 
Q 29.75 2.65625 27.421875 2.78125 
Q 25.09375 2.90625 22.625 3 
Q 20.15625 3.09375 17.796875 3.40625 
Q 15.75 2.25 14.46875 0.703125 
Q 13.203125 -0.84375 13.203125 -2.90625 
Q 13.203125 -4.25 13.875 -5.421875 
Q 14.546875 -6.59375 16.015625 -7.4375 
Q 17.5 -8.296875 19.84375 -8.765625 
Q 22.203125 -9.25 25.59375 -9.25 
Q 29.046875 -9.25 31.546875 -8.71875 
Q 34.046875 -8.203125 35.671875 -7.265625 
Q 37.296875 -6.34375 38.046875 -5.0625 
Q 38.796875 -3.796875 38.796875 -2.296875 
z
M 24.84375 26.90625 
Q 27.15625 26.90625 28.84375 27.53125 
Q 30.546875 28.15625 31.671875 29.25 
Q 32.796875 30.34375 33.375 31.890625 
Q 33.953125 33.453125 33.953125 35.296875 
Q 33.953125 39.09375 31.671875 41.3125 
Q 29.40625 43.546875 24.84375 43.546875 
Q 20.296875 43.546875 18.015625 41.3125 
Q 15.75 39.09375 15.75 35.296875 
Q 15.75 33.5 16.328125 31.953125 
Q 16.90625 30.40625 18.03125 29.28125 
Q 19.15625 28.15625 20.875 27.53125 
Q 22.59375 26.90625 24.84375 26.90625 
z
" id="Lato-Bold-67"/>
     <path d="M 39.65625 0 
Q 37.90625 0 36.953125 0.515625 
Q 36 1.046875 35.453125 2.65625 
L 34.34375 6.296875 
Q 32.40625 4.546875 30.546875 3.21875 
Q 28.703125 1.90625 26.703125 1 
Q 24.703125 0.09375 22.421875 -0.34375 
Q 20.15625 -0.796875 17.40625 -0.796875 
Q 14.15625 -0.796875 11.40625 0.078125 
Q 8.65625 0.953125 6.65625 2.703125 
Q 4.65625 4.453125 3.546875 7.046875 
Q 2.453125 9.65625 2.453125 13.09375 
Q 2.453125 16 3.96875 18.828125 
Q 5.5 21.65625 9.046875 23.921875 
Q 12.59375 26.203125 18.5 27.703125 
Q 24.40625 29.203125 33.203125 29.40625 
L 33.203125 32.40625 
Q 33.203125 37.546875 31 40.015625 
Q 28.796875 42.5 24.65625 42.5 
Q 21.65625 42.5 19.671875 41.796875 
Q 17.703125 41.09375 16.203125 40.21875 
Q 14.703125 39.34375 13.46875 38.640625 
Q 12.25 37.953125 10.75 37.953125 
Q 9.453125 37.953125 8.546875 38.625 
Q 7.65625 39.296875 7.09375 40.203125 
L 4.90625 44.15625 
Q 13.75 52.25 26.203125 52.25 
Q 30.703125 52.25 34.25 50.765625 
Q 37.796875 49.296875 40.25 46.671875 
Q 42.703125 44.046875 43.96875 40.390625 
Q 45.25 36.75 45.25 32.40625 
L 45.25 0 
z
M 21.203125 7.703125 
Q 25 7.703125 27.765625 9.078125 
Q 30.546875 10.453125 33.203125 13.25 
L 33.203125 21.90625 
Q 27.796875 21.65625 24.171875 20.96875 
Q 20.546875 20.296875 18.34375 19.25 
Q 16.15625 18.203125 15.203125 16.796875 
Q 14.25 15.40625 14.25 13.75 
Q 14.25 10.5 16.171875 9.09375 
Q 18.09375 7.703125 21.203125 7.703125 
z
" id="Lato-Bold-61"/>
     <path d="M 23.203125 -0.796875 
Q 16.5 -0.796875 12.921875 2.96875 
Q 9.34375 6.75 9.34375 13.40625 
L 9.34375 42.046875 
L 4.09375 42.046875 
Q 3.09375 42.046875 2.390625 42.6875 
Q 1.703125 43.34375 1.703125 44.65625 
L 1.703125 49.546875 
L 9.953125 50.90625 
L 12.546875 64.90625 
Q 12.796875 65.90625 13.5 66.453125 
Q 14.203125 67 15.296875 67 
L 21.703125 67 
L 21.703125 50.84375 
L 35.40625 50.84375 
L 35.40625 42.046875 
L 21.703125 42.046875 
L 21.703125 14.25 
Q 21.703125 11.84375 22.875 10.5 
Q 24.046875 9.15625 26.09375 9.15625 
Q 27.25 9.15625 28.015625 9.421875 
Q 28.796875 9.703125 29.375 10 
Q 29.953125 10.296875 30.390625 10.5625 
Q 30.84375 10.84375 31.296875 10.84375 
Q 31.84375 10.84375 32.1875 10.5625 
Q 32.546875 10.296875 32.953125 9.75 
L 36.65625 3.75 
Q 33.953125 1.5 30.453125 0.34375 
Q 26.953125 -0.796875 23.203125 -0.796875 
z
" id="Lato-Bold-74"/>
     <path d="M 4.296875 7.59375 
Q 4.296875 9 4.8125 10.21875 
Q 5.34375 11.453125 6.296875 12.375 
Q 7.25 13.296875 8.59375 13.8125 
Q 9.953125 14.34375 11.546875 14.34375 
Q 13.453125 14.34375 14.875 13.671875 
Q 16.296875 13 17.21875 11.828125 
Q 18.15625 10.65625 18.625 9.125 
Q 19.09375 7.59375 19.09375 5.90625 
Q 19.09375 3.5 18.375 0.84375 
Q 17.65625 -1.796875 16.25 -4.4375 
Q 14.84375 -7.09375 12.765625 -9.59375 
Q 10.703125 -12.09375 8.046875 -14.203125 
L 5.90625 -12.25 
Q 5 -11.5 5 -10.40625 
Q 5 -10 5.265625 -9.5 
Q 5.546875 -9 5.953125 -8.59375 
Q 6.5 -8 7.296875 -7.125 
Q 8.09375 -6.25 8.890625 -5.125 
Q 9.703125 -4 10.375 -2.671875 
Q 11.046875 -1.34375 11.34375 0.15625 
Q 9.796875 0.15625 8.5 0.71875 
Q 7.203125 1.296875 6.265625 2.296875 
Q 5.34375 3.296875 4.8125 4.640625 
Q 4.296875 6 4.296875 7.59375 
z
" id="Lato-Bold-2c"/>
     <path id="Lato-Bold-20"/>
     <path d="M 8.046875 0 
L 8.046875 72.296875 
L 32.953125 72.296875 
Q 40.046875 72.296875 45.09375 70.9375 
Q 50.15625 69.59375 53.375 67.09375 
Q 56.59375 64.59375 58.09375 61.046875 
Q 59.59375 57.5 59.59375 53.046875 
Q 59.59375 50.5 58.84375 48.171875 
Q 58.09375 45.84375 56.515625 43.8125 
Q 54.953125 41.796875 52.515625 40.140625 
Q 50.09375 38.5 46.75 37.34375 
Q 61.65625 34 61.65625 21.25 
Q 61.65625 16.65625 59.90625 12.75 
Q 58.15625 8.84375 54.796875 6.015625 
Q 51.453125 3.203125 46.546875 1.59375 
Q 41.65625 0 35.34375 0 
z
M 21.5 31.703125 
L 21.5 10.5 
L 35.09375 10.5 
Q 38.84375 10.5 41.390625 11.390625 
Q 43.953125 12.296875 45.46875 13.796875 
Q 47 15.296875 47.671875 17.296875 
Q 48.34375 19.296875 48.34375 21.546875 
Q 48.34375 23.90625 47.59375 25.78125 
Q 46.84375 27.65625 45.25 28.96875 
Q 43.65625 30.296875 41.125 31 
Q 38.59375 31.703125 35.046875 31.703125 
z
M 21.5 41 
L 32.203125 41 
Q 39.09375 41 42.625 43.5 
Q 46.15625 46 46.15625 51.453125 
Q 46.15625 57.09375 42.953125 59.5 
Q 39.75 61.90625 32.953125 61.90625 
L 21.5 61.90625 
z
" id="Lato-Bold-42"/>
     <path d="M 17.953125 51.296875 
L 17.953125 18.703125 
Q 17.953125 14 20.125 11.421875 
Q 22.296875 8.84375 26.65625 8.84375 
Q 29.84375 8.84375 32.640625 10.265625 
Q 35.453125 11.703125 37.953125 14.203125 
L 37.953125 51.296875 
L 50.296875 51.296875 
L 50.296875 0 
L 42.75 0 
Q 40.296875 0 39.65625 2.25 
L 38.796875 6.34375 
Q 37.203125 4.75 35.5 3.421875 
Q 33.796875 2.09375 31.84375 1.140625 
Q 29.90625 0.203125 27.703125 -0.296875 
Q 25.5 -0.796875 22.90625 -0.796875 
Q 18.703125 -0.796875 15.46875 0.625 
Q 12.25 2.046875 10.046875 4.640625 
Q 7.84375 7.25 6.71875 10.828125 
Q 5.59375 14.40625 5.59375 18.703125 
L 5.59375 51.296875 
z
" id="Lato-Bold-75"/>
     <path d="M 18.59375 74.296875 
L 18.59375 0 
L 6.25 0 
L 6.25 74.296875 
z
" id="Lato-Bold-6c"/>
     <path d="M 42.84375 40.453125 
Q 42.296875 39.75 41.765625 39.34375 
Q 41.25 38.953125 40.25 38.953125 
Q 39.296875 38.953125 38.390625 39.515625 
Q 37.5 40.09375 36.25 40.8125 
Q 35 41.546875 33.265625 42.125 
Q 31.546875 42.703125 29 42.703125 
Q 25.75 42.703125 23.296875 41.515625 
Q 20.84375 40.34375 19.21875 38.140625 
Q 17.59375 35.953125 16.796875 32.828125 
Q 16 29.703125 16 25.75 
Q 16 21.65625 16.875 18.453125 
Q 17.75 15.25 19.390625 13.078125 
Q 21.046875 10.90625 23.390625 9.78125 
Q 25.75 8.65625 28.703125 8.65625 
Q 31.65625 8.65625 33.46875 9.375 
Q 35.296875 10.09375 36.546875 10.96875 
Q 37.796875 11.84375 38.71875 12.5625 
Q 39.65625 13.296875 40.796875 13.296875 
Q 42.296875 13.296875 43.046875 12.15625 
L 46.59375 7.65625 
Q 44.546875 5.25 42.140625 3.625 
Q 39.75 2 37.171875 1.015625 
Q 34.59375 0.046875 31.875 -0.34375 
Q 29.15625 -0.75 26.453125 -0.75 
Q 21.703125 -0.75 17.5 1.015625 
Q 13.296875 2.796875 10.140625 6.1875 
Q 7 9.59375 5.171875 14.515625 
Q 3.34375 19.453125 3.34375 25.75 
Q 3.34375 31.40625 4.96875 36.21875 
Q 6.59375 41.046875 9.75 44.5625 
Q 12.90625 48.09375 17.546875 50.09375 
Q 22.203125 52.09375 28.25 52.09375 
Q 34 52.09375 38.328125 50.25 
Q 42.65625 48.40625 46.09375 44.953125 
z
" id="Lato-Bold-63"/>
     <path d="M 21.5 25.453125 
L 21.5 0 
L 8.046875 0 
L 8.046875 72.296875 
L 31.546875 72.296875 
Q 38.796875 72.296875 44.09375 70.59375 
Q 49.40625 68.90625 52.84375 65.84375 
Q 56.296875 62.796875 57.96875 58.546875 
Q 59.65625 54.296875 59.65625 49.25 
Q 59.65625 44 57.90625 39.625 
Q 56.15625 35.25 52.65625 32.09375 
Q 49.15625 28.953125 43.875 27.203125 
Q 38.59375 25.453125 31.546875 25.453125 
z
M 21.5 35.953125 
L 31.546875 35.953125 
Q 35.25 35.953125 38 36.875 
Q 40.75 37.796875 42.578125 39.515625 
Q 44.40625 41.25 45.296875 43.71875 
Q 46.203125 46.203125 46.203125 49.25 
Q 46.203125 52.15625 45.296875 54.5 
Q 44.40625 56.84375 42.59375 58.5 
Q 40.796875 60.15625 38.046875 61.03125 
Q 35.296875 61.90625 31.546875 61.90625 
L 21.5 61.90625 
z
" id="Lato-Bold-50"/>
     <path d="M 6.09375 0 
L 6.09375 74.296875 
L 18.453125 74.296875 
L 18.453125 45.75 
Q 21.453125 48.59375 25.046875 50.34375 
Q 28.65625 52.09375 33.5 52.09375 
Q 37.703125 52.09375 40.953125 50.671875 
Q 44.203125 49.25 46.375 46.671875 
Q 48.546875 44.09375 49.671875 40.515625 
Q 50.796875 36.953125 50.796875 32.65625 
L 50.796875 0 
L 38.453125 0 
L 38.453125 32.65625 
Q 38.453125 37.34375 36.296875 39.921875 
Q 34.15625 42.5 29.75 42.5 
Q 26.546875 42.5 23.75 41.046875 
Q 20.953125 39.59375 18.453125 37.09375 
L 18.453125 0 
z
" id="Lato-Bold-68"/>
     <path d="M 18.90625 51.296875 
L 18.90625 0 
L 6.5 0 
L 6.5 51.296875 
z
M 20.59375 66.25 
Q 20.59375 64.65625 19.9375 63.25 
Q 19.296875 61.84375 18.21875 60.796875 
Q 17.15625 59.75 15.703125 59.125 
Q 14.25 58.5 12.59375 58.5 
Q 11 58.5 9.578125 59.125 
Q 8.15625 59.75 7.09375 60.796875 
Q 6.046875 61.84375 5.421875 63.25 
Q 4.796875 64.65625 4.796875 66.25 
Q 4.796875 67.90625 5.421875 69.34375 
Q 6.046875 70.796875 7.09375 71.84375 
Q 8.15625 72.90625 9.578125 73.53125 
Q 11 74.15625 12.59375 74.15625 
Q 14.25 74.15625 15.703125 73.53125 
Q 17.15625 72.90625 18.21875 71.84375 
Q 19.296875 70.796875 19.9375 69.34375 
Q 20.59375 67.90625 20.59375 66.25 
z
" id="Lato-Bold-69"/>
     <path d="M 6.09375 -16.75 
L 6.09375 51.296875 
L 13.65625 51.296875 
Q 16.046875 51.296875 16.796875 49.046875 
L 17.796875 44.296875 
Q 20.90625 47.84375 24.921875 50.046875 
Q 28.953125 52.25 34.34375 52.25 
Q 38.546875 52.25 42.015625 50.5 
Q 45.5 48.75 48.015625 45.421875 
Q 50.546875 42.09375 51.921875 37.21875 
Q 53.296875 32.34375 53.296875 26.046875 
Q 53.296875 20.296875 51.75 15.390625 
Q 50.203125 10.5 47.328125 6.890625 
Q 44.453125 3.296875 40.375 1.265625 
Q 36.296875 -0.75 31.25 -0.75 
Q 26.90625 -0.75 23.875 0.578125 
Q 20.84375 1.90625 18.453125 4.25 
L 18.453125 -16.75 
z
M 30.09375 42.5 
Q 26.25 42.5 23.515625 40.875 
Q 20.796875 39.25 18.453125 36.296875 
L 18.453125 13.296875 
Q 20.546875 10.703125 23.015625 9.671875 
Q 25.5 8.65625 28.40625 8.65625 
Q 31.203125 8.65625 33.453125 9.703125 
Q 35.703125 10.75 37.265625 12.890625 
Q 38.84375 15.046875 39.6875 18.3125 
Q 40.546875 21.59375 40.546875 26.046875 
Q 40.546875 30.546875 39.8125 33.671875 
Q 39.09375 36.796875 37.75 38.75 
Q 36.40625 40.703125 34.46875 41.59375 
Q 32.546875 42.5 30.09375 42.5 
z
" id="Lato-Bold-70"/>
     <path d="M 27.953125 52.09375 
Q 32.796875 52.09375 36.890625 50.546875 
Q 41 49 43.953125 46.015625 
Q 46.90625 43.046875 48.578125 38.71875 
Q 50.25 34.40625 50.25 28.84375 
Q 50.25 26.046875 49.640625 25.0625 
Q 49.046875 24.09375 47.34375 24.09375 
L 15.59375 24.09375 
Q 15.90625 20.15625 17 17.28125 
Q 18.09375 14.40625 19.890625 12.53125 
Q 21.703125 10.65625 24.171875 9.71875 
Q 26.65625 8.796875 29.65625 8.796875 
Q 32.65625 8.796875 34.828125 9.5 
Q 37 10.203125 38.625 11.046875 
Q 40.25 11.90625 41.46875 12.59375 
Q 42.703125 13.296875 43.84375 13.296875 
Q 45.40625 13.296875 46.15625 12.15625 
L 49.703125 7.65625 
Q 47.65625 5.25 45.09375 3.625 
Q 42.546875 2 39.765625 1.015625 
Q 37 0.046875 34.125 -0.34375 
Q 31.25 -0.75 28.546875 -0.75 
Q 23.203125 -0.75 18.59375 1.015625 
Q 14 2.796875 10.59375 6.265625 
Q 7.203125 9.75 5.25 14.875 
Q 3.296875 20 3.296875 26.75 
Q 3.296875 32 5 36.625 
Q 6.703125 41.25 9.875 44.671875 
Q 13.046875 48.09375 17.625 50.09375 
Q 22.203125 52.09375 27.953125 52.09375 
z
M 28.203125 43.25 
Q 22.796875 43.25 19.75 40.203125 
Q 16.703125 37.15625 15.84375 31.546875 
L 39.15625 31.546875 
Q 39.15625 33.953125 38.46875 36.078125 
Q 37.796875 38.203125 36.4375 39.796875 
Q 35.09375 41.40625 33.015625 42.328125 
Q 30.953125 43.25 28.203125 43.25 
z
" id="Lato-Bold-65"/>
     <path d="M 37.40625 41.296875 
Q 36.90625 40.5 36.34375 40.171875 
Q 35.796875 39.84375 34.953125 39.84375 
Q 34.046875 39.84375 33.015625 40.34375 
Q 32 40.84375 30.640625 41.46875 
Q 29.296875 42.09375 27.5625 42.59375 
Q 25.84375 43.09375 23.5 43.09375 
Q 19.84375 43.09375 17.765625 41.546875 
Q 15.703125 40 15.703125 37.5 
Q 15.703125 35.84375 16.765625 34.71875 
Q 17.84375 33.59375 19.625 32.75 
Q 21.40625 31.90625 23.65625 31.21875 
Q 25.90625 30.546875 28.21875 29.75 
Q 30.546875 28.953125 32.796875 27.921875 
Q 35.046875 26.90625 36.8125 25.328125 
Q 38.59375 23.75 39.671875 21.546875 
Q 40.75 19.34375 40.75 16.25 
Q 40.75 12.546875 39.421875 9.421875 
Q 38.09375 6.296875 35.5 4.015625 
Q 32.90625 1.75 29.078125 0.46875 
Q 25.25 -0.796875 20.25 -0.796875 
Q 17.59375 -0.796875 15.0625 -0.3125 
Q 12.546875 0.15625 10.21875 1 
Q 7.90625 1.84375 5.921875 3 
Q 3.953125 4.15625 2.453125 5.5 
L 5.296875 10.203125 
Q 5.84375 11.046875 6.59375 11.5 
Q 7.34375 11.953125 8.5 11.953125 
Q 9.65625 11.953125 10.671875 11.296875 
Q 11.703125 10.65625 13.046875 9.90625 
Q 14.40625 9.15625 16.21875 8.5 
Q 18.046875 7.84375 20.84375 7.84375 
Q 23.046875 7.84375 24.625 8.375 
Q 26.203125 8.90625 27.21875 9.75 
Q 28.25 10.59375 28.71875 11.71875 
Q 29.203125 12.84375 29.203125 14.046875 
Q 29.203125 15.84375 28.125 17 
Q 27.046875 18.15625 25.265625 19 
Q 23.5 19.84375 21.21875 20.515625 
Q 18.953125 21.203125 16.578125 22 
Q 14.203125 22.796875 11.921875 23.875 
Q 9.65625 24.953125 7.875 26.59375 
Q 6.09375 28.25 5.015625 30.640625 
Q 3.953125 33.046875 3.953125 36.453125 
Q 3.953125 39.59375 5.203125 42.4375 
Q 6.453125 45.296875 8.875 47.421875 
Q 11.296875 49.546875 14.921875 50.8125 
Q 18.546875 52.09375 23.296875 52.09375 
Q 28.59375 52.09375 32.9375 50.34375 
Q 37.296875 48.59375 40.203125 45.75 
z
" id="Lato-Bold-73"/>
    </defs>
    <g transform="translate(140.832188 61.546406)scale(0.11 -0.11)">
     <use xlink:href="#Lato-Bold-41"/>
     <use x="69.450012" xlink:href="#Lato-Bold-6e"/>
     <use x="125.850021" xlink:href="#Lato-Bold-67"/>
     <use x="178.650024" xlink:href="#Lato-Bold-61"/>
     <use x="229.400024" xlink:href="#Lato-Bold-74"/>
     <use x="266.600021" xlink:href="#Lato-Bold-2c"/>
     <use x="290.000015" xlink:href="#Lato-Bold-20"/>
     <use x="314.300018" xlink:href="#Lato-Bold-42"/>
     <use x="380.150024" xlink:href="#Lato-Bold-75"/>
     <use x="436.550034" xlink:href="#Lato-Bold-6c"/>
     <use x="461.40004" xlink:href="#Lato-Bold-61"/>
     <use x="512.15004" xlink:href="#Lato-Bold-63"/>
     <use x="560.350052" xlink:href="#Lato-Bold-61"/>
     <use x="611.100052" xlink:href="#Lato-Bold-6e"/>
     <use x="667.500061" xlink:href="#Lato-Bold-2c"/>
     <use x="690.900055" xlink:href="#Lato-Bold-20"/>
     <use x="715.200058" xlink:href="#Lato-Bold-50"/>
     <use x="777.100067" xlink:href="#Lato-Bold-68"/>
     <use x="833.500076" xlink:href="#Lato-Bold-69"/>
     <use x="858.90007" xlink:href="#Lato-Bold-6c"/>
     <use x="883.750076" xlink:href="#Lato-Bold-6c"/>
     <use x="908.600082" xlink:href="#Lato-Bold-69"/>
     <use x="934.000076" xlink:href="#Lato-Bold-70"/>
     <use x="990.800079" xlink:href="#Lato-Bold-69"/>
     <use x="1016.200073" xlink:href="#Lato-Bold-6e"/>
     <use x="1072.600082" xlink:href="#Lato-Bold-65"/>
     <use x="1126.000092" xlink:href="#Lato-Bold-73"/>
    </g>
   </g>
   <g id="PathCollection_2">
    <defs>
     <path d="M 0 3.872983 
C 1.027127 3.872983 2.012324 3.464901 2.738613 2.738613 
C 3.464901 2.012324 3.872983 1.027127 3.872983 0 
C 3.872983 -1.027127 3.464901 -2.012324 2.738613 -2.738613 
C 2.012324 -3.464901 1.027127 -3.872983 0 -3.872983 
C -1.027127 -3.872983 -2.012324 -3.464901 -2.738613 -2.738613 
C -3.464901 -2.012324 -3.872983 -1.027127 -3.872983 0 
C -3.872983 1.027127 -3.464901 2.012324 -2.738613 2.738613 
C -2.012324 3.464901 -1.027127 3.872983 0 3.872983 
z
" id="mf0ff5ea90d" style="stroke:#f88e3b;"/>
    </defs>
    <g>
     <use style="fill:#f88e3b;stroke:#f88e3b;" x="121.032187" xlink:href="#mf0ff5ea90d" y="74.316719"/>
    </g>
   </g>
   <g id="text_2">
    <!-- Beaver Creek, Arizona, USA -->
    <defs>
     <path d="M 0.453125 51.296875 
L 10.65625 51.296875 
Q 12.046875 51.296875 12.96875 50.640625 
Q 13.90625 50 14.203125 49 
L 24.09375 21.59375 
Q 24.90625 19.203125 25.46875 16.890625 
Q 26.046875 14.59375 26.546875 12.296875 
Q 27.046875 14.59375 27.640625 16.890625 
Q 28.25 19.203125 29.09375 21.59375 
L 39.203125 49 
Q 39.546875 50 40.4375 50.640625 
Q 41.34375 51.296875 42.59375 51.296875 
L 52.34375 51.296875 
L 32 0 
L 20.796875 0 
z
" id="Lato-Bold-76"/>
     <path d="M 6.09375 0 
L 6.09375 51.296875 
L 13.34375 51.296875 
Q 15.25 51.296875 16 50.625 
Q 16.75 49.953125 17 48.203125 
L 17.703125 42.40625 
Q 20.15625 47 23.453125 49.625 
Q 26.75 52.25 31.25 52.25 
Q 34.796875 52.25 36.953125 50.703125 
L 36.15625 41.453125 
Q 35.90625 40.546875 35.421875 40.171875 
Q 34.953125 39.796875 34.15625 39.796875 
Q 33.40625 39.796875 31.921875 40.046875 
Q 30.453125 40.296875 29.046875 40.296875 
Q 27 40.296875 25.390625 39.6875 
Q 23.796875 39.09375 22.515625 37.96875 
Q 21.25 36.84375 20.265625 35.25 
Q 19.296875 33.65625 18.453125 31.59375 
L 18.453125 0 
z
" id="Lato-Bold-72"/>
     <path d="M 57.703125 17.046875 
Q 58.796875 17.046875 59.65625 16.203125 
L 64.953125 10.453125 
Q 60.546875 5 54.125 2.09375 
Q 47.703125 -0.796875 38.703125 -0.796875 
Q 30.65625 -0.796875 24.21875 1.953125 
Q 17.796875 4.703125 13.25 9.59375 
Q 8.703125 14.5 6.265625 21.296875 
Q 3.84375 28.09375 3.84375 36.15625 
Q 3.84375 44.296875 6.4375 51.0625 
Q 9.046875 57.84375 13.765625 62.75 
Q 18.5 67.65625 25.046875 70.375 
Q 31.59375 73.09375 39.546875 73.09375 
Q 47.453125 73.09375 53.578125 70.5 
Q 59.703125 67.90625 64 63.703125 
L 59.5 57.453125 
Q 59.09375 56.84375 58.46875 56.390625 
Q 57.84375 55.953125 56.75 55.953125 
Q 56 55.953125 55.203125 56.375 
Q 54.40625 56.796875 53.453125 57.421875 
Q 52.5 58.046875 51.25 58.796875 
Q 50 59.546875 48.34375 60.171875 
Q 46.703125 60.796875 44.515625 61.21875 
Q 42.34375 61.65625 39.5 61.65625 
Q 34.65625 61.65625 30.625 59.921875 
Q 26.59375 58.203125 23.6875 54.921875 
Q 20.796875 51.65625 19.1875 46.921875 
Q 17.59375 42.203125 17.59375 36.15625 
Q 17.59375 30.046875 19.3125 25.296875 
Q 21.046875 20.546875 24 17.296875 
Q 26.953125 14.046875 30.953125 12.3125 
Q 34.953125 10.59375 39.546875 10.59375 
Q 42.296875 10.59375 44.515625 10.890625 
Q 46.75 11.203125 48.625 11.84375 
Q 50.5 12.5 52.171875 13.515625 
Q 53.84375 14.546875 55.5 16.046875 
Q 56 16.5 56.546875 16.765625 
Q 57.09375 17.046875 57.703125 17.046875 
z
" id="Lato-Bold-43"/>
     <path d="M 18.453125 74.296875 
L 18.453125 31.75 
L 20.75 31.75 
Q 22 31.75 22.71875 32.078125 
Q 23.453125 32.40625 24.203125 33.40625 
L 36.953125 49.15625 
Q 37.75 50.203125 38.71875 50.75 
Q 39.703125 51.296875 41.25 51.296875 
L 52.546875 51.296875 
L 36.59375 32.25 
Q 34.90625 30 32.90625 28.796875 
Q 33.953125 28.046875 34.765625 27.046875 
Q 35.59375 26.046875 36.34375 24.90625 
L 53.453125 0 
L 42.296875 0 
Q 40.84375 0 39.796875 0.46875 
Q 38.75 0.953125 38.046875 2.203125 
L 24.953125 21.65625 
Q 24.25 22.796875 23.5 23.140625 
Q 22.75 23.5 21.25 23.5 
L 18.453125 23.5 
L 18.453125 0 
L 6.09375 0 
L 6.09375 74.296875 
z
" id="Lato-Bold-6b"/>
     <path d="M 42.953125 46.203125 
Q 42.953125 44.90625 42.5 43.65625 
Q 42.046875 42.40625 41.296875 41.59375 
L 16.90625 9.5 
L 42.203125 9.5 
L 42.203125 0 
L 2.59375 0 
L 2.59375 5.15625 
Q 2.59375 6 3 7.171875 
Q 3.40625 8.34375 4.203125 9.40625 
L 28.796875 41.84375 
L 4.046875 41.84375 
L 4.046875 51.296875 
L 42.953125 51.296875 
z
" id="Lato-Bold-7a"/>
     <path d="M 28.796875 52.09375 
Q 34.5 52.09375 39.171875 50.25 
Q 43.84375 48.40625 47.171875 45 
Q 50.5 41.59375 52.296875 36.6875 
Q 54.09375 31.796875 54.09375 25.75 
Q 54.09375 19.65625 52.296875 14.75 
Q 50.5 9.84375 47.171875 6.390625 
Q 43.84375 2.953125 39.171875 1.09375 
Q 34.5 -0.75 28.796875 -0.75 
Q 23.046875 -0.75 18.34375 1.09375 
Q 13.65625 2.953125 10.328125 6.390625 
Q 7 9.84375 5.171875 14.75 
Q 3.34375 19.65625 3.34375 25.75 
Q 3.34375 31.796875 5.171875 36.6875 
Q 7 41.59375 10.328125 45 
Q 13.65625 48.40625 18.34375 50.25 
Q 23.046875 52.09375 28.796875 52.09375 
z
M 28.796875 8.75 
Q 35.203125 8.75 38.265625 13.046875 
Q 41.34375 17.34375 41.34375 25.65625 
Q 41.34375 33.953125 38.265625 38.296875 
Q 35.203125 42.65625 28.796875 42.65625 
Q 22.296875 42.65625 19.171875 38.28125 
Q 16.046875 33.90625 16.046875 25.65625 
Q 16.046875 17.40625 19.171875 13.078125 
Q 22.296875 8.75 28.796875 8.75 
z
" id="Lato-Bold-6f"/>
     <path d="M 37.15625 10.84375 
Q 41.046875 10.84375 44.125 12.140625 
Q 47.203125 13.453125 49.296875 15.796875 
Q 51.40625 18.15625 52.53125 21.5 
Q 53.65625 24.84375 53.65625 29 
L 53.65625 72.296875 
L 67.09375 72.296875 
L 67.09375 29 
Q 67.09375 22.546875 65.015625 17.0625 
Q 62.953125 11.59375 59.078125 7.625 
Q 55.203125 3.65625 49.640625 1.421875 
Q 44.09375 -0.796875 37.15625 -0.796875 
Q 30.15625 -0.796875 24.59375 1.421875 
Q 19.046875 3.65625 15.171875 7.625 
Q 11.296875 11.59375 9.21875 17.0625 
Q 7.15625 22.546875 7.15625 29 
L 7.15625 72.296875 
L 20.59375 72.296875 
L 20.59375 29.046875 
Q 20.59375 24.90625 21.71875 21.546875 
Q 22.84375 18.203125 24.96875 15.828125 
Q 27.09375 13.453125 30.171875 12.140625 
Q 33.25 10.84375 37.15625 10.84375 
z
" id="Lato-Bold-55"/>
     <path d="M 46.546875 59.15625 
Q 45.953125 58.09375 45.265625 57.625 
Q 44.59375 57.15625 43.59375 57.15625 
Q 42.546875 57.15625 41.3125 57.921875 
Q 40.09375 58.703125 38.390625 59.640625 
Q 36.703125 60.59375 34.421875 61.375 
Q 32.15625 62.15625 29.046875 62.15625 
Q 26.25 62.15625 24.140625 61.46875 
Q 22.046875 60.796875 20.625 59.59375 
Q 19.203125 58.40625 18.5 56.71875 
Q 17.796875 55.046875 17.796875 53.046875 
Q 17.796875 50.5 19.21875 48.796875 
Q 20.65625 47.09375 23 45.890625 
Q 25.34375 44.703125 28.34375 43.75 
Q 31.34375 42.796875 34.5 41.71875 
Q 37.65625 40.65625 40.65625 39.21875 
Q 43.65625 37.796875 46 35.625 
Q 48.34375 33.453125 49.765625 30.296875 
Q 51.203125 27.15625 51.203125 22.65625 
Q 51.203125 17.75 49.515625 13.46875 
Q 47.84375 9.203125 44.625 6.015625 
Q 41.40625 2.84375 36.75 1.015625 
Q 32.09375 -0.796875 26.09375 -0.796875 
Q 22.65625 -0.796875 19.296875 -0.125 
Q 15.953125 0.546875 12.875 1.796875 
Q 9.796875 3.046875 7.09375 4.796875 
Q 4.40625 6.546875 2.296875 8.703125 
L 6.25 15.15625 
Q 6.75 15.84375 7.546875 16.3125 
Q 8.34375 16.796875 9.25 16.796875 
Q 10.5 16.796875 11.953125 15.765625 
Q 13.40625 14.75 15.40625 13.5 
Q 17.40625 12.25 20.078125 11.21875 
Q 22.75 10.203125 26.5 10.203125 
Q 32.25 10.203125 35.390625 12.921875 
Q 38.546875 15.65625 38.546875 20.75 
Q 38.546875 23.59375 37.125 25.390625 
Q 35.703125 27.203125 33.34375 28.421875 
Q 31 29.65625 28 30.5 
Q 25 31.34375 21.890625 32.34375 
Q 18.796875 33.34375 15.796875 34.75 
Q 12.796875 36.15625 10.4375 38.40625 
Q 8.09375 40.65625 6.671875 44.03125 
Q 5.25 47.40625 5.25 52.34375 
Q 5.25 56.296875 6.828125 60.046875 
Q 8.40625 63.796875 11.40625 66.6875 
Q 14.40625 69.59375 18.796875 71.34375 
Q 23.203125 73.09375 28.90625 73.09375 
Q 35.296875 73.09375 40.6875 71.09375 
Q 46.09375 69.09375 49.90625 65.5 
z
" id="Lato-Bold-53"/>
    </defs>
    <g transform="translate(140.832188 77.204219)scale(0.11 -0.11)">
     <use xlink:href="#Lato-Bold-42"/>
     <use x="65.850006" xlink:href="#Lato-Bold-65"/>
     <use x="119.250015" xlink:href="#Lato-Bold-61"/>
     <use x="169.98439" xlink:href="#Lato-Bold-76"/>
     <use x="222.768768" xlink:href="#Lato-Bold-65"/>
     <use x="276.168777" xlink:href="#Lato-Bold-72"/>
     <use x="313.437531" xlink:href="#Lato-Bold-20"/>
     <use x="337.737534" xlink:href="#Lato-Bold-43"/>
     <use x="403.887543" xlink:href="#Lato-Bold-72"/>
     <use x="441.171921" xlink:href="#Lato-Bold-65"/>
     <use x="494.57193" xlink:href="#Lato-Bold-65"/>
     <use x="547.971939" xlink:href="#Lato-Bold-6b"/>
     <use x="601.421951" xlink:href="#Lato-Bold-2c"/>
     <use x="624.821945" xlink:href="#Lato-Bold-20"/>
     <use x="649.075073" xlink:href="#Lato-Bold-41"/>
     <use x="718.525085" xlink:href="#Lato-Bold-72"/>
     <use x="755.825089" xlink:href="#Lato-Bold-69"/>
     <use x="781.225082" xlink:href="#Lato-Bold-7a"/>
     <use x="827.175079" xlink:href="#Lato-Bold-6f"/>
     <use x="884.625092" xlink:href="#Lato-Bold-6e"/>
     <use x="941.025101" xlink:href="#Lato-Bold-61"/>
     <use x="991.775101" xlink:href="#Lato-Bold-2c"/>
     <use x="1015.175095" xlink:href="#Lato-Bold-20"/>
     <use x="1039.475098" xlink:href="#Lato-Bold-55"/>
     <use x="1113.725113" xlink:href="#Lato-Bold-53"/>
     <use x="1168.559494" xlink:href="#Lato-Bold-41"/>
    </g>
   </g>
   <g id="PathCollection_3">
    <defs>
     <path d="M 0 3.872983 
C 1.027127 3.872983 2.012324 3.464901 2.738613 2.738613 
C 3.464901 2.012324 3.872983 1.027127 3.872983 0 
C 3.872983 -1.027127 3.464901 -2.012324 2.738613 -2.738613 
C 2.012324 -3.464901 1.027127 -3.872983 0 -3.872983 
C -1.027127 -3.872983 -2.012324 -3.464901 -2.738613 -2.738613 
C -3.464901 -2.012324 -3.872983 -1.027127 -3.872983 0 
C -3.872983 1.027127 -3.464901 2.012324 -2.738613 2.738613 
C -2.012324 3.464901 -1.027127 3.872983 0 3.872983 
z
" id="m0e8bc62ed6" style="stroke:#cba537;"/>
    </defs>
    <g>
     <use style="fill:#cba537;stroke:#cba537;" x="121.032187" xlink:href="#m0e8bc62ed6" y="89.831875"/>
    </g>
   </g>
   <g id="text_3">
    <!-- Berembun Forest Reserve, Malaysia -->
    <defs>
     <path d="M 6.09375 0 
L 6.09375 51.296875 
L 13.65625 51.296875 
Q 16.046875 51.296875 16.796875 49.046875 
L 17.59375 45.25 
Q 18.953125 46.75 20.421875 48 
Q 21.90625 49.25 23.578125 50.140625 
Q 25.25 51.046875 27.171875 51.5625 
Q 29.09375 52.09375 31.40625 52.09375 
Q 36.25 52.09375 39.375 49.46875 
Q 42.5 46.84375 44.046875 42.5 
Q 45.25 45.046875 47.046875 46.875 
Q 48.84375 48.703125 51 49.84375 
Q 53.15625 51 55.578125 51.546875 
Q 58 52.09375 60.453125 52.09375 
Q 64.703125 52.09375 68 50.796875 
Q 71.296875 49.5 73.546875 47 
Q 75.796875 44.5 76.96875 40.890625 
Q 78.15625 37.296875 78.15625 32.65625 
L 78.15625 0 
L 65.796875 0 
L 65.796875 32.65625 
Q 65.796875 37.546875 63.640625 40.015625 
Q 61.5 42.5 57.34375 42.5 
Q 55.453125 42.5 53.828125 41.84375 
Q 52.203125 41.203125 50.96875 39.96875 
Q 49.75 38.75 49.046875 36.890625 
Q 48.34375 35.046875 48.34375 32.65625 
L 48.34375 0 
L 35.953125 0 
L 35.953125 32.65625 
Q 35.953125 37.796875 33.875 40.140625 
Q 31.796875 42.5 27.796875 42.5 
Q 25.09375 42.5 22.765625 41.171875 
Q 20.453125 39.84375 18.453125 37.546875 
L 18.453125 0 
z
" id="Lato-Bold-6d"/>
     <path d="M 6.09375 0 
L 6.09375 74.296875 
L 18.453125 74.296875 
L 18.453125 44.953125 
Q 21.546875 48.25 25.3125 50.171875 
Q 29.09375 52.09375 33.953125 52.09375 
Q 38.40625 52.09375 41.96875 50.34375 
Q 45.546875 48.59375 48.0625 45.3125 
Q 50.59375 42.046875 51.9375 37.390625 
Q 53.296875 32.75 53.296875 26.953125 
Q 53.296875 20.703125 51.75 15.59375 
Q 50.203125 10.5 47.328125 6.875 
Q 44.453125 3.25 40.390625 1.25 
Q 36.34375 -0.75 31.40625 -0.75 
Q 29 -0.75 27.015625 -0.265625 
Q 25.046875 0.203125 23.421875 1.046875 
Q 21.796875 1.90625 20.421875 3.125 
Q 19.046875 4.34375 17.796875 5.84375 
L 17.25 2.40625 
Q 16.953125 1.09375 16.21875 0.546875 
Q 15.5 0 14.25 0 
z
M 29.703125 42.5 
Q 26.15625 42.5 23.5 40.875 
Q 20.84375 39.25 18.453125 36.296875 
L 18.453125 13.296875 
Q 20.546875 10.703125 23.015625 9.671875 
Q 25.5 8.65625 28.25 8.65625 
Q 31.09375 8.65625 33.375 9.671875 
Q 35.65625 10.703125 37.25 12.875 
Q 38.84375 15.046875 39.6875 18.421875 
Q 40.546875 21.796875 40.546875 26.5 
Q 40.546875 34.953125 37.75 38.71875 
Q 34.953125 42.5 29.703125 42.5 
z
" id="Lato-Bold-62"/>
     <path d="M 53.65625 72.296875 
L 53.65625 61.59375 
L 21.546875 61.59375 
L 21.546875 40.203125 
L 48.65625 40.203125 
L 48.65625 29.453125 
L 21.546875 29.453125 
L 21.546875 0 
L 8.046875 0 
L 8.046875 72.296875 
z
" id="Lato-Bold-46"/>
     <path d="M 21.5 28.25 
L 21.5 0 
L 8.046875 0 
L 8.046875 72.296875 
L 30.09375 72.296875 
Q 37.453125 72.296875 42.71875 70.765625 
Q 48 69.25 51.375 66.5 
Q 54.75 63.75 56.34375 59.921875 
Q 57.953125 56.09375 57.953125 51.5 
Q 57.953125 47.84375 56.875 44.59375 
Q 55.796875 41.34375 53.765625 38.6875 
Q 51.75 36.046875 48.765625 34.046875 
Q 45.796875 32.046875 42 30.84375 
Q 44.546875 29.40625 46.40625 26.703125 
L 64.5 0 
L 52.34375 0 
Q 48.90625 0 47.34375 2.703125 
L 32.15625 25.84375 
Q 31.296875 27.15625 30.265625 27.703125 
Q 29.25 28.25 27.25 28.25 
z
M 21.5 37.90625 
L 29.90625 37.90625 
Q 33.703125 37.90625 36.515625 38.84375 
Q 39.34375 39.796875 41.171875 41.46875 
Q 43 43.15625 43.890625 45.453125 
Q 44.796875 47.75 44.796875 50.5 
Q 44.796875 56 41.171875 58.953125 
Q 37.546875 61.90625 30.09375 61.90625 
L 21.5 61.90625 
z
" id="Lato-Bold-52"/>
     <path d="M 44.34375 30 
Q 45.203125 28.40625 45.921875 26.671875 
Q 46.65625 24.953125 47.34375 23.203125 
Q 48.046875 25.046875 48.796875 26.765625 
Q 49.546875 28.5 50.40625 30.09375 
L 71.75 70.15625 
Q 72.15625 70.90625 72.59375 71.34375 
Q 73.046875 71.796875 73.5625 72 
Q 74.09375 72.203125 74.75 72.25 
Q 75.40625 72.296875 76.296875 72.296875 
L 86.453125 72.296875 
L 86.453125 0 
L 74.59375 0 
L 74.59375 46.703125 
Q 74.59375 48 74.671875 49.546875 
Q 74.75 51.09375 74.90625 52.703125 
L 53.046875 11.703125 
Q 51.5 8.75 48.296875 8.75 
L 46.40625 8.75 
Q 43.203125 8.75 41.65625 11.703125 
L 19.546875 52.84375 
Q 19.703125 51.203125 19.796875 49.625 
Q 19.90625 48.046875 19.90625 46.703125 
L 19.90625 0 
L 8.046875 0 
L 8.046875 72.296875 
L 18.203125 72.296875 
Q 19.09375 72.296875 19.75 72.25 
Q 20.40625 72.203125 20.921875 72 
Q 21.453125 71.796875 21.875 71.34375 
Q 22.296875 70.90625 22.703125 70.15625 
L 44.34375 30 
z
" id="Lato-Bold-4d"/>
     <path d="M 24.75 -14.09375 
Q 24.203125 -15.40625 23.328125 -16.078125 
Q 22.453125 -16.75 20.65625 -16.75 
L 11.453125 -16.75 
L 21.046875 3.796875 
L 0.296875 51.296875 
L 11.15625 51.296875 
Q 12.59375 51.296875 13.421875 50.59375 
Q 14.25 49.90625 14.65625 49 
L 25.546875 22.40625 
Q 26.546875 19.65625 27.203125 16.953125 
Q 27.59375 18.34375 28.0625 19.71875 
Q 28.546875 21.09375 29.09375 22.453125 
L 39.40625 49 
Q 39.796875 50 40.71875 50.640625 
Q 41.65625 51.296875 42.796875 51.296875 
L 52.703125 51.296875 
z
" id="Lato-Bold-79"/>
    </defs>
    <g transform="translate(140.832188 92.719375)scale(0.11 -0.11)">
     <use xlink:href="#Lato-Bold-42"/>
     <use x="65.850006" xlink:href="#Lato-Bold-65"/>
     <use x="119.250015" xlink:href="#Lato-Bold-72"/>
     <use x="156.534393" xlink:href="#Lato-Bold-65"/>
     <use x="209.934402" xlink:href="#Lato-Bold-6d"/>
     <use x="293.684418" xlink:href="#Lato-Bold-62"/>
     <use x="350.434418" xlink:href="#Lato-Bold-75"/>
     <use x="406.834427" xlink:href="#Lato-Bold-6e"/>
     <use x="463.234436" xlink:href="#Lato-Bold-20"/>
     <use x="487.534439" xlink:href="#Lato-Bold-46"/>
     <use x="544.071945" xlink:href="#Lato-Bold-6f"/>
     <use x="601.521957" xlink:href="#Lato-Bold-72"/>
     <use x="638.806335" xlink:href="#Lato-Bold-65"/>
     <use x="692.206345" xlink:href="#Lato-Bold-73"/>
     <use x="736.156342" xlink:href="#Lato-Bold-74"/>
     <use x="773.356339" xlink:href="#Lato-Bold-20"/>
     <use x="797.656342" xlink:href="#Lato-Bold-52"/>
     <use x="861.90947" xlink:href="#Lato-Bold-65"/>
     <use x="915.309479" xlink:href="#Lato-Bold-73"/>
     <use x="959.259476" xlink:href="#Lato-Bold-65"/>
     <use x="1012.659485" xlink:href="#Lato-Bold-72"/>
     <use x="1049.959488" xlink:href="#Lato-Bold-76"/>
     <use x="1102.743866" xlink:href="#Lato-Bold-65"/>
     <use x="1156.143875" xlink:href="#Lato-Bold-2c"/>
     <use x="1179.543869" xlink:href="#Lato-Bold-20"/>
     <use x="1203.843872" xlink:href="#Lato-Bold-4d"/>
     <use x="1298.328262" xlink:href="#Lato-Bold-61"/>
     <use x="1349.078262" xlink:href="#Lato-Bold-6c"/>
     <use x="1373.928268" xlink:href="#Lato-Bold-61"/>
     <use x="1424.662643" xlink:href="#Lato-Bold-79"/>
     <use x="1477.397018" xlink:href="#Lato-Bold-73"/>
     <use x="1521.347015" xlink:href="#Lato-Bold-69"/>
     <use x="1546.747009" xlink:href="#Lato-Bold-61"/>
    </g>
   </g>
   <g id="PathCollection_4">
    <defs>
     <path d="M 0 3.872983 
C 1.027127 3.872983 2.012324 3.464901 2.738613 2.738613 
C 3.464901 2.012324 3.872983 1.027127 3.872983 0 
C 3.872983 -1.027127 3.464901 -2.012324 2.738613 -2.738613 
C 2.012324 -3.464901 1.027127 -3.872983 0 -3.872983 
C -1.027127 -3.872983 -2.012324 -3.464901 -2.738613 -2.738613 
C -3.464901 -2.012324 -3.872983 -1.027127 -3.872983 0 
C -3.872983 1.027127 -3.464901 2.012324 -2.738613 2.738613 
C -2.012324 3.464901 -1.027127 3.872983 0 3.872983 
z
" id="m6d389052b5" style="stroke:#a4b136;"/>
    </defs>
    <g>
     <use style="fill:#a4b136;stroke:#a4b136;" x="121.032187" xlink:href="#m6d389052b5" y="105.347031"/>
    </g>
   </g>
   <g id="text_4">
    <!-- Berembun Research Forest, Malaysia -->
    <g transform="translate(140.832188 108.234531)scale(0.11 -0.11)">
     <use xlink:href="#Lato-Bold-42"/>
     <use x="65.850006" xlink:href="#Lato-Bold-65"/>
     <use x="119.250015" xlink:href="#Lato-Bold-72"/>
     <use x="156.534393" xlink:href="#Lato-Bold-65"/>
     <use x="209.934402" xlink:href="#Lato-Bold-6d"/>
     <use x="293.684418" xlink:href="#Lato-Bold-62"/>
     <use x="350.434418" xlink:href="#Lato-Bold-75"/>
     <use x="406.834427" xlink:href="#Lato-Bold-6e"/>
     <use x="463.234436" xlink:href="#Lato-Bold-20"/>
     <use x="487.534439" xlink:href="#Lato-Bold-52"/>
     <use x="551.787567" xlink:href="#Lato-Bold-65"/>
     <use x="605.187576" xlink:href="#Lato-Bold-73"/>
     <use x="649.137573" xlink:href="#Lato-Bold-65"/>
     <use x="702.537582" xlink:href="#Lato-Bold-61"/>
     <use x="753.287582" xlink:href="#Lato-Bold-72"/>
     <use x="790.57196" xlink:href="#Lato-Bold-63"/>
     <use x="838.771973" xlink:href="#Lato-Bold-68"/>
     <use x="895.171982" xlink:href="#Lato-Bold-20"/>
     <use x="919.471985" xlink:href="#Lato-Bold-46"/>
     <use x="976.009491" xlink:href="#Lato-Bold-6f"/>
     <use x="1033.459503" xlink:href="#Lato-Bold-72"/>
     <use x="1070.743881" xlink:href="#Lato-Bold-65"/>
     <use x="1124.14389" xlink:href="#Lato-Bold-73"/>
     <use x="1168.093887" xlink:href="#Lato-Bold-74"/>
     <use x="1205.293884" xlink:href="#Lato-Bold-2c"/>
     <use x="1228.693878" xlink:href="#Lato-Bold-20"/>
     <use x="1252.993881" xlink:href="#Lato-Bold-4d"/>
     <use x="1347.478271" xlink:href="#Lato-Bold-61"/>
     <use x="1398.228271" xlink:href="#Lato-Bold-6c"/>
     <use x="1423.078278" xlink:href="#Lato-Bold-61"/>
     <use x="1473.812653" xlink:href="#Lato-Bold-79"/>
     <use x="1526.547028" xlink:href="#Lato-Bold-73"/>
     <use x="1570.497025" xlink:href="#Lato-Bold-69"/>
     <use x="1595.897018" xlink:href="#Lato-Bold-61"/>
    </g>
   </g>
   <g id="PathCollection_5">
    <defs>
     <path d="M 0 3.872983 
C 1.027127 3.872983 2.012324 3.464901 2.738613 2.738613 
C 3.464901 2.012324 3.872983 1.027127 3.872983 0 
C 3.872983 -1.027127 3.464901 -2.012324 2.738613 -2.738613 
C 2.012324 -3.464901 1.027127 -3.872983 0 -3.872983 
C -1.027127 -3.872983 -2.012324 -3.464901 -2.738613 -2.738613 
C -3.464901 -2.012324 -3.872983 -1.027127 -3.872983 0 
C -3.872983 1.027127 -3.464901 2.012324 -2.738613 2.738613 
C -2.012324 3.464901 -1.027127 3.872983 0 3.872983 
z
" id="meba3d35964" style="stroke:#57bf36;"/>
    </defs>
    <g>
     <use style="fill:#57bf36;stroke:#57bf36;" x="121.032187" xlink:href="#meba3d35964" y="120.862187"/>
    </g>
   </g>
   <g id="text_5">
    <!-- Coyote Creek, Oregon, USA -->
    <defs>
     <path d="M 77 36.15625 
Q 77 28.203125 74.375 21.421875 
Q 71.75 14.65625 66.953125 9.703125 
Q 62.15625 4.75 55.40625 1.96875 
Q 48.65625 -0.796875 40.40625 -0.796875 
Q 32.203125 -0.796875 25.453125 1.96875 
Q 18.703125 4.75 13.875 9.703125 
Q 9.046875 14.65625 6.390625 21.421875 
Q 3.75 28.203125 3.75 36.15625 
Q 3.75 44.09375 6.390625 50.875 
Q 9.046875 57.65625 13.875 62.59375 
Q 18.703125 67.546875 25.453125 70.3125 
Q 32.203125 73.09375 40.40625 73.09375 
Q 45.90625 73.09375 50.75 71.8125 
Q 55.59375 70.546875 59.640625 68.21875 
Q 63.703125 65.90625 66.921875 62.578125 
Q 70.15625 59.25 72.40625 55.140625 
Q 74.65625 51.046875 75.828125 46.25 
Q 77 41.453125 77 36.15625 
z
M 63.25 36.15625 
Q 63.25 42.09375 61.640625 46.8125 
Q 60.046875 51.546875 57.09375 54.84375 
Q 54.15625 58.15625 49.921875 59.90625 
Q 45.703125 61.65625 40.40625 61.65625 
Q 35.09375 61.65625 30.875 59.90625 
Q 26.65625 58.15625 23.671875 54.84375 
Q 20.703125 51.546875 19.09375 46.8125 
Q 17.5 42.09375 17.5 36.15625 
Q 17.5 30.203125 19.09375 25.46875 
Q 20.703125 20.75 23.671875 17.46875 
Q 26.65625 14.203125 30.875 12.453125 
Q 35.09375 10.703125 40.40625 10.703125 
Q 45.703125 10.703125 49.921875 12.453125 
Q 54.15625 14.203125 57.09375 17.46875 
Q 60.046875 20.75 61.640625 25.46875 
Q 63.25 30.203125 63.25 36.15625 
z
" id="Lato-Bold-4f"/>
    </defs>
    <g transform="translate(140.832188 123.749687)scale(0.11 -0.11)">
     <use xlink:href="#Lato-Bold-43"/>
     <use x="66.134384" xlink:href="#Lato-Bold-6f"/>
     <use x="123.568771" xlink:href="#Lato-Bold-79"/>
     <use x="176.303146" xlink:href="#Lato-Bold-6f"/>
     <use x="233.737534" xlink:href="#Lato-Bold-74"/>
     <use x="270.937531" xlink:href="#Lato-Bold-65"/>
     <use x="324.33754" xlink:href="#Lato-Bold-20"/>
     <use x="348.637543" xlink:href="#Lato-Bold-43"/>
     <use x="414.787552" xlink:href="#Lato-Bold-72"/>
     <use x="452.07193" xlink:href="#Lato-Bold-65"/>
     <use x="505.471939" xlink:href="#Lato-Bold-65"/>
     <use x="558.871948" xlink:href="#Lato-Bold-6b"/>
     <use x="612.32196" xlink:href="#Lato-Bold-2c"/>
     <use x="635.721954" xlink:href="#Lato-Bold-20"/>
     <use x="660.021957" xlink:href="#Lato-Bold-4f"/>
     <use x="740.821976" xlink:href="#Lato-Bold-72"/>
     <use x="778.106354" xlink:href="#Lato-Bold-65"/>
     <use x="831.506363" xlink:href="#Lato-Bold-67"/>
     <use x="884.306366" xlink:href="#Lato-Bold-6f"/>
     <use x="941.756378" xlink:href="#Lato-Bold-6e"/>
     <use x="998.156387" xlink:href="#Lato-Bold-2c"/>
     <use x="1021.556381" xlink:href="#Lato-Bold-20"/>
     <use x="1045.856384" xlink:href="#Lato-Bold-55"/>
     <use x="1120.1064" xlink:href="#Lato-Bold-53"/>
     <use x="1174.940781" xlink:href="#Lato-Bold-41"/>
    </g>
   </g>
   <g id="PathCollection_6">
    <defs>
     <path d="M 0 3.872983 
C 1.027127 3.872983 2.012324 3.464901 2.738613 2.738613 
C 3.464901 2.012324 3.872983 1.027127 3.872983 0 
C 3.872983 -1.027127 3.464901 -2.012324 2.738613 -2.738613 
C 2.012324 -3.464901 1.027127 -3.872983 0 -3.872983 
C -1.027127 -3.872983 -2.012324 -3.464901 -2.738613 -2.738613 
C -3.464901 -2.012324 -3.872983 -1.027127 -3.872983 0 
C -3.872983 1.027127 -3.464901 2.012324 -2.738613 2.738613 
C -2.012324 3.464901 -1.027127 3.872983 0 3.872983 
z
" id="m8b177bfdac" style="stroke:#39be8f;"/>
    </defs>
    <g>
     <use style="fill:#39be8f;stroke:#39be8f;" x="121.032187" xlink:href="#m8b177bfdac" y="136.52"/>
    </g>
   </g>
   <g id="text_6">
    <!-- Fox Creek, Oregon, USA -->
    <defs>
     <path d="M 17.84375 26.453125 
L 1 51.296875 
L 12.90625 51.296875 
Q 14.25 51.296875 14.890625 50.921875 
Q 15.546875 50.546875 16.046875 49.703125 
L 26.796875 32.546875 
Q 27.046875 33.40625 27.421875 34.25 
Q 27.796875 35.09375 28.34375 35.953125 
L 37 49.453125 
Q 38.09375 51.296875 39.84375 51.296875 
L 51.203125 51.296875 
L 34.296875 27 
L 51.90625 0 
L 40 0 
Q 38.65625 0 37.828125 0.703125 
Q 37 1.40625 36.453125 2.296875 
L 25.546875 20.15625 
Q 25.09375 18.34375 24.296875 17.15625 
L 14.703125 2.296875 
Q 14.15625 1.453125 13.34375 0.71875 
Q 12.546875 0 11.34375 0 
L 0.296875 0 
z
" id="Lato-Bold-78"/>
    </defs>
    <g transform="translate(140.832188 139.4075)scale(0.11 -0.11)">
     <use xlink:href="#Lato-Bold-46"/>
     <use x="56.537506" xlink:href="#Lato-Bold-6f"/>
     <use x="113.956268" xlink:href="#Lato-Bold-78"/>
     <use x="166.156281" xlink:href="#Lato-Bold-20"/>
     <use x="190.456284" xlink:href="#Lato-Bold-43"/>
     <use x="256.606293" xlink:href="#Lato-Bold-72"/>
     <use x="293.890671" xlink:href="#Lato-Bold-65"/>
     <use x="347.29068" xlink:href="#Lato-Bold-65"/>
     <use x="400.690689" xlink:href="#Lato-Bold-6b"/>
     <use x="454.140701" xlink:href="#Lato-Bold-2c"/>
     <use x="477.540695" xlink:href="#Lato-Bold-20"/>
     <use x="501.840698" xlink:href="#Lato-Bold-4f"/>
     <use x="582.640717" xlink:href="#Lato-Bold-72"/>
     <use x="619.925095" xlink:href="#Lato-Bold-65"/>
     <use x="673.325104" xlink:href="#Lato-Bold-67"/>
     <use x="726.125107" xlink:href="#Lato-Bold-6f"/>
     <use x="783.575119" xlink:href="#Lato-Bold-6e"/>
     <use x="839.975128" xlink:href="#Lato-Bold-2c"/>
     <use x="863.375122" xlink:href="#Lato-Bold-20"/>
     <use x="887.675125" xlink:href="#Lato-Bold-55"/>
     <use x="961.92514" xlink:href="#Lato-Bold-53"/>
     <use x="1016.759521" xlink:href="#Lato-Bold-41"/>
    </g>
   </g>
   <g id="PathCollection_7">
    <defs>
     <path d="M 0 3.872983 
C 1.027127 3.872983 2.012324 3.464901 2.738613 2.738613 
C 3.464901 2.012324 3.872983 1.027127 3.872983 0 
C 3.872983 -1.027127 3.464901 -2.012324 2.738613 -2.738613 
C 2.012324 -3.464901 1.027127 -3.872983 0 -3.872983 
C -1.027127 -3.872983 -2.012324 -3.464901 -2.738613 -2.738613 
C -3.464901 -2.012324 -3.872983 -1.027127 -3.872983 0 
C -3.872983 1.027127 -3.464901 2.012324 -2.738613 2.738613 
C -2.012324 3.464901 -1.027127 3.872983 0 3.872983 
z
" id="md89b3ee2aa" style="stroke:#3bbbb2;"/>
    </defs>
    <g>
     <use style="fill:#3bbbb2;stroke:#3bbbb2;" x="121.032187" xlink:href="#md89b3ee2aa" y="152.177813"/>
    </g>
   </g>
   <g id="text_7">
    <!-- Lien-Hua-Chi, Taiwan -->
    <defs>
     <path d="M 21.5 11.09375 
L 50.40625 11.09375 
L 50.40625 0 
L 8.046875 0 
L 8.046875 72.296875 
L 21.5 72.296875 
z
" id="Lato-Bold-4c"/>
     <path d="M 5.703125 35.34375 
L 31.59375 35.34375 
L 31.59375 25.046875 
L 5.703125 25.046875 
z
" id="Lato-Bold-2d"/>
     <path d="M 69 0 
L 55.5 0 
L 55.5 31.59375 
L 21.546875 31.59375 
L 21.546875 0 
L 8.046875 0 
L 8.046875 72.296875 
L 21.546875 72.296875 
L 21.546875 41.203125 
L 55.5 41.203125 
L 55.5 72.296875 
L 69 72.296875 
z
" id="Lato-Bold-48"/>
     <path d="M 58.546875 72.296875 
L 58.546875 61.25 
L 36.75 61.25 
L 36.75 0 
L 23.296875 0 
L 23.296875 61.25 
L 1.5 61.25 
L 1.5 72.296875 
z
" id="Lato-Bold-54"/>
     <path d="M 0.90625 51.296875 
L 10.75 51.296875 
Q 12.09375 51.296875 13.046875 50.640625 
Q 14 50 14.296875 49 
L 21.65625 21.59375 
Q 22.203125 19.34375 22.59375 17.1875 
Q 23 15.046875 23.34375 12.953125 
Q 23.90625 15.046875 24.53125 17.1875 
Q 25.15625 19.34375 25.84375 21.59375 
L 34.34375 49.09375 
Q 34.65625 50.09375 35.53125 50.75 
Q 36.40625 51.40625 37.65625 51.40625 
L 43.09375 51.40625 
Q 44.40625 51.40625 45.328125 50.75 
Q 46.25 50.09375 46.546875 49.09375 
L 54.796875 21.59375 
Q 55.453125 19.296875 56.015625 17.140625 
Q 56.59375 15 57.09375 12.84375 
Q 57.5 15 57.953125 17.140625 
Q 58.40625 19.296875 59 21.59375 
L 66.546875 49 
Q 66.90625 50 67.796875 50.640625 
Q 68.703125 51.296875 69.953125 51.296875 
L 79.34375 51.296875 
L 63.046875 0 
L 53.15625 0 
Q 51.453125 0 50.796875 2.203125 
L 41.59375 31.84375 
Q 40.65625 34.90625 40.15625 37.75 
Q 39.546875 34.75 38.65625 31.75 
L 29.296875 2.203125 
Q 28.703125 0 26.65625 0 
L 17.15625 0 
z
" id="Lato-Bold-77"/>
    </defs>
    <g transform="translate(140.832188 155.065313)scale(0.11 -0.11)">
     <use xlink:href="#Lato-Bold-4c"/>
     <use x="51.950012" xlink:href="#Lato-Bold-69"/>
     <use x="77.350006" xlink:href="#Lato-Bold-65"/>
     <use x="130.750015" xlink:href="#Lato-Bold-6e"/>
     <use x="187.150024" xlink:href="#Lato-Bold-2d"/>
     <use x="224.450027" xlink:href="#Lato-Bold-48"/>
     <use x="301.484421" xlink:href="#Lato-Bold-75"/>
     <use x="357.88443" xlink:href="#Lato-Bold-61"/>
     <use x="408.63443" xlink:href="#Lato-Bold-2d"/>
     <use x="445.934433" xlink:href="#Lato-Bold-43"/>
     <use x="512.084442" xlink:href="#Lato-Bold-68"/>
     <use x="568.484451" xlink:href="#Lato-Bold-69"/>
     <use x="593.884445" xlink:href="#Lato-Bold-2c"/>
     <use x="617.284439" xlink:href="#Lato-Bold-20"/>
     <use x="641.537567" xlink:href="#Lato-Bold-54"/>
     <use x="701.365707" xlink:href="#Lato-Bold-61"/>
     <use x="752.115707" xlink:href="#Lato-Bold-69"/>
     <use x="777.515701" xlink:href="#Lato-Bold-77"/>
     <use x="857.765717" xlink:href="#Lato-Bold-61"/>
     <use x="908.515717" xlink:href="#Lato-Bold-6e"/>
    </g>
   </g>
   <g id="PathCollection_8">
    <defs>
     <path d="M 0 3.872983 
C 1.027127 3.872983 2.012324 3.464901 2.738613 2.738613 
C 3.464901 2.012324 3.872983 1.027127 3.872983 0 
C 3.872983 -1.027127 3.464901 -2.012324 2.738613 -2.738613 
C 2.012324 -3.464901 1.027127 -3.872983 0 -3.872983 
C -1.027127 -3.872983 -2.012324 -3.464901 -2.738613 -2.738613 
C -3.464901 -2.012324 -3.872983 -1.027127 -3.872983 0 
C -3.872983 1.027127 -3.464901 2.012324 -2.738613 2.738613 
C -2.012324 3.464901 -1.027127 3.872983 0 3.872983 
z
" id="m7bce60b5db" style="stroke:#3db8cf;"/>
    </defs>
    <g>
     <use style="fill:#3db8cf;stroke:#3db8cf;" x="121.032187" xlink:href="#m7bce60b5db" y="167.692969"/>
    </g>
   </g>
   <g id="text_8">
    <!-- Luano Catchments, Zambia -->
    <defs>
     <path d="M 57.84375 72.296875 
L 57.84375 67.34375 
Q 57.84375 65.046875 56.546875 63.15625 
L 19.453125 10.75 
L 57 10.75 
L 57 0 
L 2 0 
L 2 5.296875 
Q 2 6.296875 2.34375 7.21875 
Q 2.703125 8.15625 3.25 8.953125 
L 40.453125 61.59375 
L 4.34375 61.59375 
L 4.34375 72.296875 
z
" id="Lato-Bold-5a"/>
    </defs>
    <g transform="translate(140.832188 170.580469)scale(0.11 -0.11)">
     <use xlink:href="#Lato-Bold-4c"/>
     <use x="51.918762" xlink:href="#Lato-Bold-75"/>
     <use x="108.318771" xlink:href="#Lato-Bold-61"/>
     <use x="159.068771" xlink:href="#Lato-Bold-6e"/>
     <use x="215.468781" xlink:href="#Lato-Bold-6f"/>
     <use x="272.918793" xlink:href="#Lato-Bold-20"/>
     <use x="297.218796" xlink:href="#Lato-Bold-43"/>
     <use x="363.368805" xlink:href="#Lato-Bold-61"/>
     <use x="414.118805" xlink:href="#Lato-Bold-74"/>
     <use x="451.318802" xlink:href="#Lato-Bold-63"/>
     <use x="499.518814" xlink:href="#Lato-Bold-68"/>
     <use x="555.918823" xlink:href="#Lato-Bold-6d"/>
     <use x="639.668839" xlink:href="#Lato-Bold-65"/>
     <use x="693.068848" xlink:href="#Lato-Bold-6e"/>
     <use x="749.468857" xlink:href="#Lato-Bold-74"/>
     <use x="786.668854" xlink:href="#Lato-Bold-73"/>
     <use x="830.618851" xlink:href="#Lato-Bold-2c"/>
     <use x="854.018845" xlink:href="#Lato-Bold-20"/>
     <use x="878.318848" xlink:href="#Lato-Bold-5a"/>
     <use x="938.868851" xlink:href="#Lato-Bold-61"/>
     <use x="989.618851" xlink:href="#Lato-Bold-6d"/>
     <use x="1073.368866" xlink:href="#Lato-Bold-62"/>
     <use x="1130.118866" xlink:href="#Lato-Bold-69"/>
     <use x="1155.51886" xlink:href="#Lato-Bold-61"/>
    </g>
   </g>
   <g id="PathCollection_9">
    <defs>
     <path d="M 0 3.872983 
C 1.027127 3.872983 2.012324 3.464901 2.738613 2.738613 
C 3.464901 2.012324 3.872983 1.027127 3.872983 0 
C 3.872983 -1.027127 3.464901 -2.012324 2.738613 -2.738613 
C 2.012324 -3.464901 1.027127 -3.872983 0 -3.872983 
C -1.027127 -3.872983 -2.012324 -3.464901 -2.738613 -2.738613 
C -3.464901 -2.012324 -3.872983 -1.027127 -3.872983 0 
C -3.872983 1.027127 -3.464901 2.012324 -2.738613 2.738613 
C -2.012324 3.464901 -1.027127 3.872983 0 3.872983 
z
" id="m0b7e488a11" style="stroke:#59b0f6;"/>
    </defs>
    <g>
     <use style="fill:#59b0f6;stroke:#59b0f6;" x="121.032187" xlink:href="#m0b7e488a11" y="183.208125"/>
    </g>
   </g>
   <g id="text_9">
    <!-- Southwest Western Australia -->
    <defs>
     <path d="M 0.84375 72.296875 
L 12.09375 72.296875 
Q 13.84375 72.296875 15.015625 71.46875 
Q 16.203125 70.65625 16.59375 69.25 
L 28.90625 26 
Q 29.296875 24.40625 29.671875 22.53125 
Q 30.046875 20.65625 30.453125 18.546875 
Q 30.84375 20.65625 31.3125 22.53125 
Q 31.796875 24.40625 32.34375 26 
L 46.546875 69.25 
Q 46.953125 70.40625 48.125 71.34375 
Q 49.296875 72.296875 51 72.296875 
L 54.953125 72.296875 
Q 56.703125 72.296875 57.796875 71.4375 
Q 58.90625 70.59375 59.453125 69.25 
L 73.59375 26 
Q 74.65625 22.90625 75.5 18.84375 
Q 76.15625 22.796875 76.953125 26 
L 89.25 69.25 
Q 89.546875 70.5 90.765625 71.390625 
Q 92 72.296875 93.703125 72.296875 
L 104.25 72.296875 
L 81.796875 0 
L 69.65625 0 
L 53.84375 49.40625 
Q 53.5 50.34375 53.203125 51.4375 
Q 52.90625 52.546875 52.59375 53.75 
Q 52.34375 52.546875 52.015625 51.4375 
Q 51.703125 50.34375 51.40625 49.40625 
L 35.453125 0 
L 23.25 0 
z
" id="Lato-Bold-57"/>
    </defs>
    <g transform="translate(140.832188 186.095625)scale(0.11 -0.11)">
     <use xlink:href="#Lato-Bold-53"/>
     <use x="54.850006" xlink:href="#Lato-Bold-6f"/>
     <use x="112.300018" xlink:href="#Lato-Bold-75"/>
     <use x="168.700027" xlink:href="#Lato-Bold-74"/>
     <use x="205.900024" xlink:href="#Lato-Bold-68"/>
     <use x="262.300034" xlink:href="#Lato-Bold-77"/>
     <use x="342.550049" xlink:href="#Lato-Bold-65"/>
     <use x="395.950058" xlink:href="#Lato-Bold-73"/>
     <use x="439.900055" xlink:href="#Lato-Bold-74"/>
     <use x="477.100052" xlink:href="#Lato-Bold-20"/>
     <use x="501.400055" xlink:href="#Lato-Bold-57"/>
     <use x="606.406326" xlink:href="#Lato-Bold-65"/>
     <use x="659.806335" xlink:href="#Lato-Bold-73"/>
     <use x="703.756332" xlink:href="#Lato-Bold-74"/>
     <use x="740.956329" xlink:href="#Lato-Bold-65"/>
     <use x="794.356339" xlink:href="#Lato-Bold-72"/>
     <use x="831.656342" xlink:href="#Lato-Bold-6e"/>
     <use x="888.056351" xlink:href="#Lato-Bold-20"/>
     <use x="912.309479" xlink:href="#Lato-Bold-41"/>
     <use x="981.743866" xlink:href="#Lato-Bold-75"/>
     <use x="1038.143875" xlink:href="#Lato-Bold-73"/>
     <use x="1082.093872" xlink:href="#Lato-Bold-74"/>
     <use x="1119.293869" xlink:href="#Lato-Bold-72"/>
     <use x="1156.593872" xlink:href="#Lato-Bold-61"/>
     <use x="1207.343872" xlink:href="#Lato-Bold-6c"/>
     <use x="1232.193878" xlink:href="#Lato-Bold-69"/>
     <use x="1257.593872" xlink:href="#Lato-Bold-61"/>
    </g>
   </g>
   <g id="PathCollection_10">
    <defs>
     <path d="M 0 3.872983 
C 1.027127 3.872983 2.012324 3.464901 2.738613 2.738613 
C 3.464901 2.012324 3.872983 1.027127 3.872983 0 
C 3.872983 -1.027127 3.464901 -2.012324 2.738613 -2.738613 
C 2.012324 -3.464901 1.027127 -3.872983 0 -3.872983 
C -1.027127 -3.872983 -2.012324 -3.464901 -2.738613 -2.738613 
C -3.464901 -2.012324 -3.872983 -1.027127 -3.872983 0 
C -3.872983 1.027127 -3.464901 2.012324 -2.738613 2.738613 
C -2.012324 3.464901 -1.027127 3.872983 0 3.872983 
z
" id="mca9cefa219" style="stroke:#b09cf6;"/>
    </defs>
    <g>
     <use style="fill:#b09cf6;stroke:#b09cf6;" x="121.032187" xlink:href="#mca9cefa219" y="198.723281"/>
    </g>
   </g>
   <g id="text_10">
    <!-- Sungei Tekam, Malaysia -->
    <g transform="translate(140.832188 201.610781)scale(0.11 -0.11)">
     <use xlink:href="#Lato-Bold-53"/>
     <use x="54.850006" xlink:href="#Lato-Bold-75"/>
     <use x="111.250015" xlink:href="#Lato-Bold-6e"/>
     <use x="167.650024" xlink:href="#Lato-Bold-67"/>
     <use x="220.450027" xlink:href="#Lato-Bold-65"/>
     <use x="273.850037" xlink:href="#Lato-Bold-69"/>
     <use x="299.250031" xlink:href="#Lato-Bold-20"/>
     <use x="323.503159" xlink:href="#Lato-Bold-54"/>
     <use x="383.315674" xlink:href="#Lato-Bold-65"/>
     <use x="436.715683" xlink:href="#Lato-Bold-6b"/>
     <use x="490.165695" xlink:href="#Lato-Bold-61"/>
     <use x="540.915695" xlink:href="#Lato-Bold-6d"/>
     <use x="624.66571" xlink:href="#Lato-Bold-2c"/>
     <use x="648.065704" xlink:href="#Lato-Bold-20"/>
     <use x="672.365707" xlink:href="#Lato-Bold-4d"/>
     <use x="766.850098" xlink:href="#Lato-Bold-61"/>
     <use x="817.600098" xlink:href="#Lato-Bold-6c"/>
     <use x="842.450104" xlink:href="#Lato-Bold-61"/>
     <use x="893.184479" xlink:href="#Lato-Bold-79"/>
     <use x="945.918854" xlink:href="#Lato-Bold-73"/>
     <use x="989.868851" xlink:href="#Lato-Bold-69"/>
     <use x="1015.268845" xlink:href="#Lato-Bold-61"/>
    </g>
   </g>
   <g id="PathCollection_11">
    <defs>
     <path d="M 0 3.872983 
C 1.027127 3.872983 2.012324 3.464901 2.738613 2.738613 
C 3.464901 2.012324 3.872983 1.027127 3.872983 0 
C 3.872983 -1.027127 3.464901 -2.012324 2.738613 -2.738613 
C 2.012324 -3.464901 1.027127 -3.872983 0 -3.872983 
C -1.027127 -3.872983 -2.012324 -3.464901 -2.738613 -2.738613 
C -3.464901 -2.012324 -3.872983 -1.027127 -3.872983 0 
C -3.872983 1.027127 -3.464901 2.012324 -2.738613 2.738613 
C -2.012324 3.464901 -1.027127 3.872983 0 3.872983 
z
" id="me743785dce" style="stroke:#ea80f6;"/>
    </defs>
    <g>
     <use style="fill:#ea80f6;stroke:#ea80f6;" x="121.032187" xlink:href="#me743785dce" y="214.381094"/>
    </g>
   </g>
   <g id="text_11">
    <!-- Upper Bear Creek, Alabama, USA -->
    <g transform="translate(140.832188 217.268594)scale(0.11 -0.11)">
     <use xlink:href="#Lato-Bold-55"/>
     <use x="74.23439" xlink:href="#Lato-Bold-70"/>
     <use x="131.034393" xlink:href="#Lato-Bold-70"/>
     <use x="187.834396" xlink:href="#Lato-Bold-65"/>
     <use x="241.234406" xlink:href="#Lato-Bold-72"/>
     <use x="278.503159" xlink:href="#Lato-Bold-20"/>
     <use x="302.803162" xlink:href="#Lato-Bold-42"/>
     <use x="368.653168" xlink:href="#Lato-Bold-65"/>
     <use x="422.053177" xlink:href="#Lato-Bold-61"/>
     <use x="472.803177" xlink:href="#Lato-Bold-72"/>
     <use x="510.07193" xlink:href="#Lato-Bold-20"/>
     <use x="534.371933" xlink:href="#Lato-Bold-43"/>
     <use x="600.521942" xlink:href="#Lato-Bold-72"/>
     <use x="637.80632" xlink:href="#Lato-Bold-65"/>
     <use x="691.206329" xlink:href="#Lato-Bold-65"/>
     <use x="744.606339" xlink:href="#Lato-Bold-6b"/>
     <use x="798.056351" xlink:href="#Lato-Bold-2c"/>
     <use x="821.456345" xlink:href="#Lato-Bold-20"/>
     <use x="845.709473" xlink:href="#Lato-Bold-41"/>
     <use x="915.159485" xlink:href="#Lato-Bold-6c"/>
     <use x="940.009491" xlink:href="#Lato-Bold-61"/>
     <use x="990.759491" xlink:href="#Lato-Bold-62"/>
     <use x="1047.509491" xlink:href="#Lato-Bold-61"/>
     <use x="1098.259491" xlink:href="#Lato-Bold-6d"/>
     <use x="1182.009506" xlink:href="#Lato-Bold-61"/>
     <use x="1232.759506" xlink:href="#Lato-Bold-2c"/>
     <use x="1256.1595" xlink:href="#Lato-Bold-20"/>
     <use x="1280.459503" xlink:href="#Lato-Bold-55"/>
     <use x="1354.709518" xlink:href="#Lato-Bold-53"/>
     <use x="1409.5439" xlink:href="#Lato-Bold-41"/>
    </g>
   </g>
   <g id="PathCollection_12">
    <defs>
     <path d="M 0 3.872983 
C 1.027127 3.872983 2.012324 3.464901 2.738613 2.738613 
C 3.464901 2.012324 3.872983 1.027127 3.872983 0 
C 3.872983 -1.027127 3.464901 -2.012324 2.738613 -2.738613 
C 2.012324 -3.464901 1.027127 -3.872983 0 -3.872983 
C -1.027127 -3.872983 -2.012324 -3.464901 -2.738613 -2.738613 
C -3.464901 -2.012324 -3.872983 -1.027127 -3.872983 0 
C -3.872983 1.027127 -3.464901 2.012324 -2.738613 2.738613 
C -2.012324 3.464901 -1.027127 3.872983 0 3.872983 
z
" id="m3309ec96c7" style="stroke:#f781c9;"/>
    </defs>
    <g>
     <use style="fill:#f781c9;stroke:#f781c9;" x="121.032187" xlink:href="#m3309ec96c7" y="229.89625"/>
    </g>
   </g>
   <g id="text_12">
    <!-- Workman Creek, Arizona, USA -->
    <g transform="translate(140.832188 232.78375)scale(0.11 -0.11)">
     <use xlink:href="#Lato-Bold-57"/>
     <use x="105.006271" xlink:href="#Lato-Bold-6f"/>
     <use x="162.456284" xlink:href="#Lato-Bold-72"/>
     <use x="199.756287" xlink:href="#Lato-Bold-6b"/>
     <use x="253.206299" xlink:href="#Lato-Bold-6d"/>
     <use x="336.956314" xlink:href="#Lato-Bold-61"/>
     <use x="387.706314" xlink:href="#Lato-Bold-6e"/>
     <use x="444.106323" xlink:href="#Lato-Bold-20"/>
     <use x="468.406326" xlink:href="#Lato-Bold-43"/>
     <use x="534.556335" xlink:href="#Lato-Bold-72"/>
     <use x="571.840714" xlink:href="#Lato-Bold-65"/>
     <use x="625.240723" xlink:href="#Lato-Bold-65"/>
     <use x="678.640732" xlink:href="#Lato-Bold-6b"/>
     <use x="732.090744" xlink:href="#Lato-Bold-2c"/>
     <use x="755.490738" xlink:href="#Lato-Bold-20"/>
     <use x="779.743866" xlink:href="#Lato-Bold-41"/>
     <use x="849.193878" xlink:href="#Lato-Bold-72"/>
     <use x="886.493881" xlink:href="#Lato-Bold-69"/>
     <use x="911.893875" xlink:href="#Lato-Bold-7a"/>
     <use x="957.843872" xlink:href="#Lato-Bold-6f"/>
     <use x="1015.293884" xlink:href="#Lato-Bold-6e"/>
     <use x="1071.693893" xlink:href="#Lato-Bold-61"/>
     <use x="1122.443893" xlink:href="#Lato-Bold-2c"/>
     <use x="1145.843887" xlink:href="#Lato-Bold-20"/>
     <use x="1170.14389" xlink:href="#Lato-Bold-55"/>
     <use x="1244.393906" xlink:href="#Lato-Bold-53"/>
     <use x="1299.228287" xlink:href="#Lato-Bold-41"/>
    </g>
   </g>
  </g>
 </g>
</svg>
